<svg width="200" height="200" viewBox="0 0 200 200" fill="none" xmlns="http://www.w3.org/2000/svg">
<g id="heroicons:wrench-screwdriver">
<path id="Vector" d="M95.1676 126.417L143.751 175C147.918 179.033 153.503 181.268 159.302 181.221C165.101 181.173 170.649 178.849 174.749 174.748C178.85 170.648 181.174 165.1 181.221 159.301C181.269 153.502 179.034 147.917 175.001 143.75L126.026 94.775M95.1676 126.417L115.968 101.167C118.609 97.9667 122.134 95.95 126.034 94.7833C130.618 93.4167 135.726 93.2167 140.559 93.6167C147.075 94.1761 153.623 93.0222 159.554 90.2693C165.486 87.5164 170.594 83.2603 174.373 77.9234C178.152 72.5864 180.469 66.3541 181.095 59.845C181.721 53.3358 180.635 46.7761 177.943 40.8167L150.643 68.125C146.075 67.0688 141.896 64.7514 138.581 61.4365C135.266 58.1216 132.949 53.9425 131.893 49.375L159.193 22.075C153.233 19.383 146.673 18.2962 140.164 18.9224C133.655 19.5485 127.423 21.8659 122.086 25.6446C116.749 29.4232 112.493 34.5318 109.74 40.4633C106.987 46.3948 105.833 52.9431 106.393 59.4583C107.151 68.425 105.801 78.325 98.8593 84.0417L98.0093 84.75M95.1676 126.417L56.376 173.525C54.4959 175.817 52.1568 177.689 49.5092 179.023C46.8617 180.356 43.9644 181.12 41.0037 181.265C38.0431 181.411 35.0847 180.935 32.319 179.869C29.5534 178.802 27.0417 177.168 24.9457 175.072C22.8496 172.976 21.2157 170.464 20.149 167.699C19.0823 164.933 18.6065 161.975 18.7522 159.014C18.898 156.053 19.662 153.156 20.9951 150.508C22.3282 147.861 24.2009 145.522 26.4926 143.642L83.4676 96.725L49.2426 62.5H37.501L18.751 31.25L31.251 18.75L62.501 37.5V49.2417L98.001 84.7417L83.4593 96.7167M153.126 153.125L131.251 131.25M40.5593 159.375H40.626V159.442H40.5593V159.375Z" stroke="#183475" stroke-opacity="0.5" stroke-width="7" stroke-linecap="round" stroke-linejoin="round"/>
</g>
</svg>
