<svg width="172" height="50" viewBox="0 0 172 50" fill="none" xmlns="http://www.w3.org/2000/svg">
<path id="Vector" opacity="0.897" fill-rule="evenodd" clip-rule="evenodd" d="M69.144 0.183319C74.1478 -0.416767 78.9064 0.456419 83.42 2.8028C84.3512 2.53898 85.0967 1.97766 85.656 1.11885C86.2181 0.934175 86.7915 0.871794 87.376 0.931742C87.376 5.7965 87.376 10.6612 87.376 15.526C86.688 15.526 86 15.526 85.312 15.526C84.4121 7.06268 80.0546 2.57214 72.24 2.05438C65.6703 2.22513 61.1408 5.59304 58.652 12.1581C56.9334 17.384 56.3028 22.7475 56.76 28.2492C73.4856 26.7161 90.2271 26.4665 106.984 27.5008C110.025 18.6394 113.235 9.84558 116.616 1.11885C117.075 0.869361 117.533 0.869361 117.992 1.11885C121.729 10.6933 125.398 20.298 129 29.9332C140.99 31.7683 152.801 34.5128 164.432 38.1658C167.068 38.8716 169.59 39.8696 172 41.1595C158.647 37.2071 145.059 34.4005 131.236 32.7397C130.835 32.8644 130.433 32.9893 130.032 33.114C131.499 36.9657 132.932 40.8328 134.332 44.7145C135.645 47.2689 137.652 48.3915 140.352 48.0824C140.352 48.7062 140.352 49.3297 140.352 49.9535C136.218 50.0777 132.09 49.9531 127.968 49.5793C125.961 43.7165 123.955 37.8541 121.948 31.9913C118.3 31.5681 114.63 31.1939 110.94 30.8687C110.559 30.9005 110.215 31.0255 109.908 31.2429C108.37 35.8872 106.765 40.5024 105.092 45.0887C104.668 47.5604 105.642 48.683 108.016 48.4566C108.016 48.8309 108.016 49.2051 108.016 49.5793C103.315 49.5793 98.6134 49.5793 93.912 49.5793C93.912 49.0805 93.912 48.5813 93.912 48.0824C96.3695 48.6467 98.3761 47.8983 99.932 45.8372C101.886 40.7236 103.72 35.6092 105.436 30.4945C92.922 30.4413 80.366 30.5038 67.768 30.6816C64.3256 30.8511 60.8856 31.0382 57.448 31.2429C59.4924 37.3912 63.5055 41.0708 69.488 42.2821C73.8073 43.0223 78.0502 42.6481 82.216 41.1595C84 40.2524 85.6054 39.0673 87.032 37.6045C87.4324 40.215 87.4899 42.8345 87.204 45.4629C83.9811 47.9477 80.3691 49.2575 76.368 49.3922C67.7763 50.7551 60.4948 48.0731 54.524 41.3466C52.6458 38.5075 51.3269 35.3892 50.568 31.9913C47.9134 32.068 45.2759 32.3176 42.656 32.7397C42.656 38.4775 42.656 44.2157 42.656 49.9535C38.9866 49.9535 35.3174 49.9535 31.648 49.9535C31.648 49.3297 31.648 48.7062 31.648 48.0824C33.6202 48.0394 35.1682 47.166 36.292 45.4629C36.464 41.4735 36.5215 37.4818 36.464 33.4882C24.0662 35.1628 11.9117 37.7822 0 41.3466C11.8179 36.5735 23.9727 33.2056 36.464 31.2429C36.5215 22.7599 36.464 14.2776 36.292 5.7965C35.9105 4.93031 35.2796 4.36899 34.4 4.11254C33.4822 3.90036 32.5651 3.71326 31.648 3.55122C31.648 3.05229 31.648 2.55331 31.648 2.05438C35.3174 2.05438 38.9866 2.05438 42.656 2.05438C42.656 11.4097 42.656 20.765 42.656 30.1203C45.0678 29.7767 47.4758 29.4025 49.88 28.9976C48.763 19.8571 51.171 12.0612 57.104 5.60939C60.7439 2.75453 64.7573 0.94585 69.144 0.183319ZM115.584 14.4034C117.335 18.7992 118.998 23.2898 120.572 27.875C120.83 28.2997 120.773 28.6739 120.4 28.9976C117.302 28.6174 114.206 28.1807 111.112 27.6879C112.774 23.3246 114.264 18.8962 115.584 14.4034Z" fill="white"/>
</svg>
