<svg width="198" height="52" viewBox="0 0 198 52" fill="none" xmlns="http://www.w3.org/2000/svg">
<path id="Vector 55" d="M57.5755 40.6154H1.5L3.87986 34.1438H59.3604L57.5755 40.6154ZM57.5755 40.6154L56.5343 44.0769H14.143L14.8867 40.9164L57.5755 40.6154ZM3.87986 29.9298L11.9119 2.38792H20.5389L18.3078 29.9298H12.5069L13.2506 22.7057H11.1682L9.3833 29.9298H3.87986ZM11.9119 19.8461L15.333 6.60197L14.143 19.8461H11.9119ZM19.9439 29.9298L25.7449 2.38792C25.7449 2.38792 34.3719 2.38792 34.6693 2.38792C36.1503 2.38792 37.2574 4.79595 37.1979 5.24746C36.9005 7.50498 36.008 13.6756 35.413 14.2776C34.5499 15.151 31.5458 15.4814 31.5458 15.9331C31.5458 16.6856 34.2575 16.7322 34.6693 18.1906C34.9668 19.2441 32.8844 27.5217 32.4382 28.4247C31.9259 29.4616 31.0553 29.9298 29.9096 29.9298C28.5709 29.9298 19.9439 29.9298 19.9439 29.9298ZM25.7449 27.5217C25.4474 27.2207 27.0835 17.2876 27.976 17.1371C28.8278 16.9935 29.6121 17.7684 29.6121 18.6421C29.6121 18.9431 28.4222 25.7157 27.976 26.6187C27.5563 27.468 26.4084 28.1931 25.7449 27.5217ZM27.976 15.0301C27.6785 15.0301 29.3146 6.30097 29.9096 5.24746C30.3192 4.52218 31.6625 5.77502 31.5458 6.60197C31.2483 8.709 30.8021 11.418 29.9096 14.2776C29.666 15.0582 28.8684 15.0301 27.976 15.0301ZM37.7929 29.9298L42.2552 6.60197H38.9828L39.7265 2.38792H51.4771L50.1384 6.60197H47.4611L42.8501 29.9298H37.7929ZM48.5023 28.4247C47.9073 26.6187 50.7334 15.0301 52.5183 6.60197C52.9301 4.65731 53.3789 2.38792 55.3444 2.38792C57.5755 2.38792 59.3604 2.38792 62.9302 2.38792C65.0126 2.38792 65.0126 4.76203 65.0126 6.60197C65.0126 8.10699 61.7403 25.4147 60.2529 28.4247C59.718 29.5072 57.5755 29.9298 57.5755 29.9298H50.7334C50.7334 29.9298 48.8334 29.4299 48.5023 28.4247ZM53.1133 27.0702C52.5183 26.3177 56.0881 5.99997 57.5755 5.24746C58.5107 4.77433 59.3389 4.73367 60.2529 5.24746C61.5915 5.99997 56.5343 26.3177 55.7906 27.0702C55.0102 27.8599 53.7082 27.8227 53.1133 27.0702ZM79.143 14.2776H85.0927C85.0927 14.2776 88.6625 1.33441 87.4725 1.33441C82.5641 1.33441 78.8455 1.33458 72.5984 1.33441C70.4626 1.33435 69.2258 3.14511 68.7311 5.24746C65.0126 21.0501 60.9966 42.8731 60.2529 47.99C59.9756 49.8974 64.1201 51 64.1201 51C64.1201 51 69.1773 51 75.4245 51C77.5188 51 78.4807 50.0004 79.143 47.99C80.1842 44.8294 81.8204 35.3478 81.8204 35.3478H74.8295C74.8295 35.3478 74.0858 40.9164 72.5984 44.8294C72.3035 45.6052 71.9322 46.3548 71.111 46.3344C70.1238 46.31 69.7165 45.0544 69.9211 44.0769C72.5984 31.2843 74.0858 21.2008 77.3581 7.50498C77.5713 6.6126 78.2367 5.95552 79.143 5.99996C80.3106 6.05723 80.8304 7.58002 80.4817 8.709C79.738 11.1172 79.143 14.2776 79.143 14.2776ZM92.0835 1.33441L89.5549 14.2776H94.7609L86.5801 51H96.397L104.132 14.2776H108.148L110.825 1.33441H92.0835ZM113.205 1.33441C113.327 0.582021 124.509 1.33435 129.566 1.33441C131.173 1.33443 132.515 2.89259 132.244 4.49495C130.31 15.9332 127.335 32.0369 124.658 46.3344C124.227 48.6342 123.253 51 120.939 51C114.543 51 111.717 51 107.255 51C105.571 51 104.132 49.6944 104.132 47.99C104.132 43.9264 110.825 15.9333 113.205 1.33441ZM120.047 7.50498C120.596 6.20842 122.873 6.15057 123.617 7.50498C123.947 8.1071 117.518 40.9164 116.18 44.8294C115.8 45.9402 113.433 45.9821 113.205 44.8294C112.759 42.572 119.601 8.5586 120.047 7.50498ZM132.244 27.6722L131.351 31.2843C131.351 31.2843 134.624 31.2843 136.557 31.2843C138.488 31.2843 139.529 29.3759 139.978 27.6722C141.168 23.1573 143.697 7.50498 143.697 7.50498C143.697 7.50498 143.685 5.38847 144.589 5.54857C145.408 5.69354 145.184 7.50498 145.184 7.50498L140.424 31.2843H145.928L150.985 2.68892H139.235C139.235 2.68892 135.814 25.8663 134.624 26.9197C133.891 27.5685 132.244 27.6722 132.244 27.6722ZM154.406 2.68892L149.051 31.2843H154.406L159.166 17.8896L157.381 31.2843H162.438L168.09 2.68892H162.438L157.381 16.6856L159.91 2.68892H154.406ZM171.511 2.68892L165.264 31.2843H173.148L172.255 34.4448H130.608L129.566 39.8629H176.271L179.395 28.7257L178.205 27.6722L183.857 2.68892H178.205L172.255 27.6722L176.271 2.68892H171.511ZM128.079 43.9264L129.566 40.9164H165.264L164.521 43.9264H128.079ZM180.138 30.5318L188.319 2.68892H196.5L194.566 30.5318H188.319L189.807 23.3077H187.427L185.791 30.5318H180.138ZM188.319 20.1471L191.294 7.50498L190.55 20.1471H188.319Z" stroke="white" stroke-width="2"/>
</svg>
