<svg width="258" height="50" viewBox="0 0 258 50" fill="none" xmlns="http://www.w3.org/2000/svg">
<g opacity="0.735">
<path fill-rule="evenodd" clip-rule="evenodd" d="M0 0C8.06913 0 16.1383 0 24.2074 0C24.2074 2.33546 24.2074 4.67092 24.2074 7.00637C21.6593 7.00637 19.1111 7.00637 16.563 7.00637C16.563 21.0191 16.563 35.0318 16.563 49.0446C13.5901 49.0446 10.6173 49.0446 7.64444 49.0446C7.64444 35.0318 7.64444 21.0191 7.64444 7.00637C5.0963 7.00637 2.54815 7.00637 0 7.00637C0 4.67092 0 2.33546 0 0ZM0.955556 0.955414C8.28148 0.955414 15.6074 0.955414 22.9333 0.955414C22.9333 2.54777 22.9333 4.14013 22.9333 5.73248C20.3852 5.73248 17.837 5.73248 15.2889 5.73248C15.2889 19.8514 15.2889 33.9704 15.2889 48.0892C13.1654 48.0892 11.042 48.0892 8.91852 48.0892C8.91852 33.9704 8.91852 19.8514 8.91852 5.73248C6.26421 5.73248 3.60987 5.73248 0.955556 5.73248C0.955556 4.14013 0.955556 2.54777 0.955556 0.955414Z" fill="white"/>
<path fill-rule="evenodd" clip-rule="evenodd" d="M43.637 0H36.3111C29.5342 1.74808 26.0836 6.20669 25.9593 13.3758C25.7469 21.0191 25.7469 28.6624 25.9593 36.3057C26.0486 43.5188 29.4993 48.0834 36.3111 50H43.637C50.2539 48.2634 53.7048 43.9108 53.9889 36.9427C54.2013 28.8747 54.2013 20.8068 53.9889 12.7389C53.5764 5.9135 50.1256 1.66721 43.637 0ZM52.7148 12.4204C51.5799 4.01538 46.749 0.193726 38.2222 0.955414C31.3654 1.81561 27.7025 5.74341 27.2333 12.7389C27.021 20.8068 27.021 28.8747 27.2333 36.9427C27.7595 44.9 32.0064 48.9338 39.9741 49.0446C47.7797 48.9904 52.0265 45.0627 52.7148 37.2611C52.9273 28.9809 52.9273 20.7006 52.7148 12.4204Z" fill="white"/>
<path fill-rule="evenodd" clip-rule="evenodd" d="M57.9704 0C60.837 0 63.7037 0 66.5704 0C66.5172 5.94573 66.5704 11.8905 66.7296 17.8344C69.6339 11.9212 72.4474 5.9764 75.1704 0C78.037 0 80.9037 0 83.7704 0C80.525 7.18471 77.3398 14.4034 74.2148 21.6561C77.7354 30.7137 81.3455 39.7369 85.0444 48.7261C82.1778 49.1506 79.3111 49.1506 76.4444 48.7261C73.737 42.0382 71.0296 35.3503 68.3222 28.6624C67.6654 29.427 67.1345 30.2762 66.7296 31.2102C66.5704 37.1541 66.5172 43.0987 66.5704 49.0446C63.7037 49.0446 60.837 49.0446 57.9704 49.0446C57.9704 32.6965 57.9704 16.3482 57.9704 0ZM58.9259 0.955414C61.0495 0.955414 63.1727 0.955414 65.2963 0.955414C65.2431 8.38717 65.2963 15.8182 65.4556 23.2484C69.0125 15.9236 72.569 8.59873 76.1259 1.27389C78.037 0.849258 79.9482 0.849258 81.8593 1.27389C78.7926 8.08602 75.8195 14.9332 72.9407 21.8153C76.3569 30.5571 79.8606 39.2621 83.4519 47.9299C81.4264 48.1946 79.4089 48.1414 77.4 47.7707C74.4645 40.3965 71.4386 33.0717 68.3222 25.7962C67.3667 27.4947 66.4111 29.1932 65.4556 30.8917C65.2963 36.6232 65.2431 42.3557 65.2963 48.0892C63.1727 48.0892 61.0495 48.0892 58.9259 48.0892C58.9259 32.378 58.9259 16.6667 58.9259 0.955414Z" fill="white"/>
<path fill-rule="evenodd" clip-rule="evenodd" d="M86.9556 0C89.5037 0 92.0518 0 94.6 0C94.5468 9.44857 94.6 18.8966 94.7593 28.344C98.7455 18.8877 102.727 9.43978 106.704 0C108.827 0 110.951 0 113.074 0C113.074 16.3482 113.074 32.6965 113.074 49.0446C110.526 49.0446 107.978 49.0446 105.43 49.0446C105.483 39.4898 105.43 29.9357 105.27 20.3822C101.395 29.8302 97.5199 39.278 93.6444 48.7261C91.425 49.0436 89.1954 49.1497 86.9556 49.0446C86.9556 32.6965 86.9556 16.3482 86.9556 0ZM87.9111 0.955414C89.8222 0.955414 91.7333 0.955414 93.6444 0.955414C93.5912 11.8901 93.6444 22.8243 93.8037 33.758C98.4123 22.8509 102.925 11.9167 107.341 0.955414C108.827 0.955414 110.313 0.955414 111.8 0.955414C111.8 16.6667 111.8 32.378 111.8 48.0892C109.995 48.0892 108.19 48.0892 106.385 48.0892C106.438 37.0484 106.385 26.008 106.226 14.9682C101.713 25.9023 97.2013 36.8366 92.6889 47.7707C91.1103 48.0873 89.5177 48.1933 87.9111 48.0892C87.9111 32.378 87.9111 16.6667 87.9111 0.955414Z" fill="white"/>
<path fill-rule="evenodd" clip-rule="evenodd" d="M135.689 0H128.363C121.847 1.63573 118.396 5.88201 118.011 12.7389C117.799 20.8068 117.799 28.8747 118.011 36.9427C118.264 43.9271 121.715 48.2796 128.363 50H135.689C137.617 49.5691 139.421 48.7729 141.104 47.6115C144.264 44.5271 145.91 40.7586 146.041 36.3057C146.253 28.6624 146.253 21.0191 146.041 13.3758C145.938 6.22449 142.487 1.76589 135.689 0ZM144.767 12.7389C143.806 4.10551 138.975 0.177694 130.274 0.955414C123.709 1.73417 120.046 5.44968 119.285 12.1019C119.073 20.4883 119.073 28.8747 119.285 37.2611C119.96 45.0487 124.207 48.9764 132.026 49.0446C139.782 48.7204 144.03 44.6863 144.767 36.9427C144.979 28.8747 144.979 20.8068 144.767 12.7389Z" fill="white"/>
<path fill-rule="evenodd" clip-rule="evenodd" d="M172.637 0C175.079 0 177.521 0 179.963 0C185.885 1.74233 188.91 5.77631 189.041 12.1019C189.2 14.5412 189.253 16.9828 189.2 19.4268C186.439 19.4268 183.679 19.4268 180.919 19.4268C180.971 16.7707 180.919 14.1168 180.759 11.465C180.795 8.63519 179.415 7.14898 176.619 7.00637C173.903 6.92545 172.311 8.19933 171.841 10.828C171.204 20.276 171.204 29.724 171.841 39.172C172.366 41.6599 173.905 42.9338 176.459 42.9936C179.488 42.8825 180.922 41.2901 180.759 38.2166C180.919 35.4586 180.971 32.6984 180.919 29.9363C183.679 29.9363 186.439 29.9363 189.2 29.9363C189.499 34.4873 189.021 38.9459 187.767 43.3121C186.268 46.8841 183.667 49.1134 179.963 50C177.627 50 175.291 50 172.956 50C169.091 49.1678 166.277 46.9385 164.515 43.3121C163.617 40.8414 163.086 38.2936 162.922 35.6688C162.71 28.5563 162.71 21.4437 162.922 14.3312C162.988 10.6683 163.944 7.27124 165.789 4.14013C167.677 2.05726 169.96 0.677217 172.637 0ZM174.867 0.955414C182.42 0.293844 186.72 3.69086 187.767 11.1465C187.926 13.4796 187.979 15.815 187.926 18.1529C186.015 18.1529 184.104 18.1529 182.193 18.1529C182.245 15.2749 182.086 12.4086 181.715 9.55414C181.022 6.84318 179.27 5.67548 176.459 6.05096C172.877 5.86306 170.913 7.56156 170.567 11.1465C170.354 20.3822 170.354 29.6178 170.567 38.8535C171.46 43.3401 174.167 44.9857 178.689 43.7898C180.38 43.1583 181.389 41.9376 181.715 40.1274C182.091 37.1669 182.251 34.1943 182.193 31.2102C184.104 31.2102 186.015 31.2102 187.926 31.2102C188.228 35.3446 187.75 39.3787 186.493 43.3121C185.464 45.7207 183.712 47.3659 181.237 48.2484C171.099 50.8022 165.418 46.9274 164.196 36.6242C163.984 28.7686 163.984 20.913 164.196 13.0573C164.473 5.97847 168.03 1.9445 174.867 0.955414Z" fill="white"/>
<path fill-rule="evenodd" clip-rule="evenodd" d="M193.978 0C196.738 0 199.499 0 202.259 0C202.259 16.3482 202.259 32.6965 202.259 49.0446C199.499 49.0446 196.738 49.0446 193.978 49.0446C193.978 32.6965 193.978 16.3482 193.978 0ZM194.933 0.955414C196.951 0.955414 198.968 0.955414 200.985 0.955414C200.985 16.6667 200.985 32.378 200.985 48.0892C198.968 48.0892 196.951 48.0892 194.933 48.0892C194.933 32.378 194.933 16.6667 194.933 0.955414Z" fill="white"/>
<path fill-rule="evenodd" clip-rule="evenodd" d="M204.807 0C215.637 0 226.467 0 237.296 0C239.332 6.69169 241.403 13.3796 243.507 20.0637C245.612 13.3798 247.682 6.69191 249.719 0C252.479 0 255.239 0 258 0C258 0.318471 258 0.636943 258 0.955414C254.507 10.8477 251.163 20.8265 247.967 30.8917C247.807 36.9417 247.754 42.9927 247.807 49.0446C244.941 49.0446 242.074 49.0446 239.207 49.0446C239.261 42.9927 239.207 36.9417 239.048 30.8917C235.821 20.8931 232.53 10.9143 229.174 0.955414C229.015 2.96961 228.962 4.98659 229.015 7.00637C226.467 7.00637 223.919 7.00637 221.37 7.00637C221.37 21.0191 221.37 35.0318 221.37 49.0446C218.504 49.0446 215.637 49.0446 212.77 49.0446C212.77 35.0318 212.77 21.0191 212.77 7.00637C210.116 7.00637 207.462 7.00637 204.807 7.00637C204.807 4.67092 204.807 2.33546 204.807 0ZM206.081 0.955414C213.407 0.955414 220.733 0.955414 228.059 0.955414C228.059 2.54777 228.059 4.14013 228.059 5.73248C225.405 5.73248 222.751 5.73248 220.096 5.73248C220.096 19.8514 220.096 33.9704 220.096 48.0892C218.079 48.0892 216.062 48.0892 214.044 48.0892C214.044 33.9704 214.044 19.8514 214.044 5.73248C211.39 5.73248 208.736 5.73248 206.081 5.73248C206.081 4.14013 206.081 2.54777 206.081 0.955414ZM230.607 0.955414C232.519 0.955414 234.43 0.955414 236.341 0.955414C238.568 8.64484 240.957 16.2882 243.507 23.8854C245.992 16.3792 248.381 8.84207 250.674 1.27389C252.573 0.956713 254.485 0.850557 256.407 0.955414C253.203 10.9382 249.965 20.9169 246.693 30.8917C246.533 36.6232 246.48 42.3557 246.533 48.0892C244.516 48.0892 242.499 48.0892 240.481 48.0892C240.535 42.2497 240.481 36.4108 240.322 30.5732C236.986 20.7245 233.747 10.8519 230.607 0.955414Z" fill="white"/>
<path fill-rule="evenodd" clip-rule="evenodd" d="M37.2667 6.05095C39.0746 5.99806 40.8796 6.05115 42.6815 6.21019C45.1369 7.24296 46.3578 9.1007 46.3444 11.7834C46.5569 20.4883 46.5569 29.1932 46.3444 37.8981C45.7087 43.1318 42.7888 45.0959 37.5852 43.7898C35.9693 43.342 34.8545 42.3338 34.2407 40.7643C33.9598 39.7169 33.7477 38.6551 33.6037 37.5796C33.3913 29.1932 33.3913 20.8068 33.6037 12.4204C33.6069 9.54226 34.8278 7.41914 37.2667 6.05095ZM38.8593 7.00637C36.2369 7.45662 34.9096 9.04898 34.8778 11.7834C34.6653 20.4883 34.6653 29.1932 34.8778 37.8981C34.9603 39.636 35.6505 41.0691 36.9482 42.1975C39.2166 43.2143 41.4463 43.1083 43.637 41.879C44.4872 40.8166 44.9649 39.5959 45.0704 38.2166C45.2828 29.2994 45.2828 20.3822 45.0704 11.465C44.5369 7.92768 42.4665 6.44147 38.8593 7.00637Z" fill="white"/>
<path fill-rule="evenodd" clip-rule="evenodd" d="M129.319 6.05095C131.126 5.99806 132.931 6.05115 134.733 6.21019C137.24 7.34226 138.461 9.30618 138.396 12.1019C138.609 20.5945 138.609 29.087 138.396 37.5796C137.95 43.0369 135.03 45.107 129.637 43.7898C127.015 42.7503 125.688 40.7866 125.656 37.8981C125.443 29.1932 125.443 20.4883 125.656 11.7834C125.681 9.07245 126.902 7.16162 129.319 6.05095ZM130.911 7.00637C128.432 7.41659 127.105 8.9028 126.93 11.465C126.717 20.3822 126.717 29.2994 126.93 38.2166C127.061 39.0866 127.274 39.936 127.567 40.7643C128.644 42.2583 130.13 43.0013 132.026 42.9936C135.207 42.786 136.905 41.0873 137.122 37.8981C137.335 29.1932 137.335 20.4883 137.122 11.7834C136.677 8.18105 134.606 6.58869 130.911 7.00637Z" fill="white"/>
</g>
</svg>
