<svg width="25" height="25" viewBox="0 0 25 25" fill="none" xmlns="http://www.w3.org/2000/svg">
<g id="ph:phone-thin">
<path id="Vector" d="M21.5606 15.833L16.9492 13.7696C16.7705 13.6922 16.5752 13.6606 16.3812 13.6777C16.1872 13.6947 16.0004 13.7599 15.8379 13.8672C15.8249 13.8754 15.8125 13.8846 15.8008 13.8946L13.3789 15.959C13.325 15.9919 13.2638 16.0109 13.2008 16.0145C13.1378 16.0181 13.0749 16.0061 13.0176 15.9795C11.4317 15.2139 9.79005 13.585 9.02443 12.0176C8.99734 11.9608 8.98477 11.8981 8.98784 11.8352C8.99091 11.7723 9.00952 11.7112 9.042 11.6572L11.1123 9.19533C11.1221 9.18362 11.1309 9.17092 11.1397 9.15823C11.2467 8.99592 11.3116 8.80954 11.3287 8.61588C11.3457 8.42222 11.3143 8.22735 11.2373 8.04885L9.16993 3.44533C9.07013 3.21218 8.89737 3.01769 8.67761 2.89108C8.45785 2.76447 8.20295 2.71258 7.95118 2.74319C6.72225 2.90522 5.59432 3.50907 4.77807 4.44195C3.96182 5.37484 3.51307 6.57295 3.51564 7.81252C3.51564 15.3516 9.64845 21.4844 17.1875 21.4844C18.4271 21.487 19.6252 21.0382 20.5581 20.222C21.491 19.4057 22.0948 18.2778 22.2568 17.0489C22.2872 16.7982 22.2359 16.5445 22.1104 16.3254C21.9849 16.1064 21.7921 15.9337 21.5606 15.833ZM21.4844 16.9512C21.3465 17.992 20.8342 18.9469 20.0434 19.6374C19.2526 20.3279 18.2374 20.7068 17.1875 20.7031C10.0801 20.7031 4.29689 14.9199 4.29689 7.81252C4.29325 6.76267 4.67211 5.74742 5.36263 4.95661C6.05316 4.16579 7.00807 3.65355 8.04884 3.51565C8.06445 3.51468 8.0801 3.51468 8.09571 3.51565C8.17278 3.5163 8.24793 3.53974 8.3117 3.58301C8.37547 3.62628 8.42502 3.68745 8.45411 3.75881L10.5156 8.36233C10.5397 8.41859 10.5502 8.47972 10.5463 8.54078C10.5424 8.60185 10.5242 8.66114 10.4932 8.71389L8.42384 11.1748C8.41407 11.1875 8.40431 11.1992 8.39552 11.2129C8.28527 11.3815 8.22035 11.5757 8.207 11.7767C8.19366 11.9777 8.23235 12.1787 8.31935 12.3604C9.16798 14.0977 10.918 15.835 12.6748 16.6836C12.8577 16.77 13.0599 16.8076 13.2617 16.7928C13.4635 16.7779 13.6579 16.711 13.8262 16.5987L13.8623 16.5713L16.2871 14.5088C16.339 14.4771 16.3976 14.4582 16.4583 14.4536C16.5189 14.449 16.5797 14.4589 16.6358 14.4824L21.2461 16.5489C21.3239 16.5812 21.3892 16.6379 21.4321 16.7104C21.475 16.7829 21.4934 16.8674 21.4844 16.9512Z" fill="white"/>
</g>
</svg>
