<svg width="25" height="25" viewBox="0 0 25 25" fill="none" xmlns="http://www.w3.org/2000/svg">
<g id="&#209;&#130;&#208;&#181;&#208;&#187;&#208;&#181;&#208;&#179;&#209;&#128;&#208;&#176;&#208;&#188;">
<path id="Vector" d="M23.0043 2.70509C22.91 2.62371 22.7954 2.56961 22.6727 2.54861C22.55 2.52761 22.4239 2.54053 22.308 2.58595L2.51695 10.3311C2.27623 10.4253 2.07256 10.595 1.93654 10.8148C1.80052 11.0346 1.73948 11.2926 1.7626 11.5501C1.78571 11.8075 1.89173 12.0506 2.06473 12.2426C2.23773 12.4347 2.46838 12.5654 2.72203 12.6152L8.00719 13.6533V19.5313C8.0073 19.8038 8.08883 20.07 8.24133 20.2958C8.39384 20.5217 8.61035 20.6968 8.86307 20.7987C9.1158 20.9006 9.39322 20.9247 9.65971 20.8678C9.92621 20.8109 10.1696 20.6757 10.3587 20.4795L12.9603 17.7813L17.0209 21.3408C17.2688 21.5602 17.5883 21.6814 17.9193 21.6817C18.0639 21.6813 18.2075 21.6586 18.3451 21.6143C18.5707 21.5429 18.7736 21.4136 18.9336 21.2394C19.0937 21.0651 19.2052 20.8519 19.2572 20.6211L23.224 3.37599C23.2519 3.25475 23.2461 3.12821 23.2074 3.00998C23.1687 2.89176 23.0985 2.78634 23.0043 2.70509ZM2.93394 11.4619C2.9302 11.4518 2.9302 11.4408 2.93394 11.4307C2.93835 11.4273 2.94331 11.4246 2.94859 11.4229L18.5453 5.3174L8.45738 12.544L2.94859 11.4658L2.93394 11.4619ZM9.515 19.6651C9.48808 19.693 9.45346 19.7123 9.41554 19.7204C9.37763 19.7286 9.33814 19.7253 9.3021 19.711C9.26607 19.6966 9.23512 19.6719 9.21321 19.6399C9.19129 19.6079 9.17941 19.57 9.17906 19.5313V14.4639L12.0785 17.0029L9.515 19.6651ZM18.1156 20.3565C18.1084 20.3895 18.0924 20.42 18.0694 20.4447C18.0464 20.4694 18.0171 20.4875 17.9847 20.4971C17.9517 20.5087 17.9161 20.5112 17.8817 20.5043C17.8474 20.4974 17.8155 20.4815 17.7894 20.458L9.53453 13.2168L21.7767 4.44337L18.1156 20.3565Z" fill="white"/>
</g>
</svg>
