<svg width="25" height="25" viewBox="0 0 25 25" fill="none" xmlns="http://www.w3.org/2000/svg">
<g id="whatsapp">
<path id="Vector" d="M18.1454 14.4941L15.0204 12.9316C14.9589 12.901 14.8904 12.8871 14.8218 12.8914C14.7532 12.8957 14.687 12.918 14.6297 12.9561L13.0047 14.04C12.1115 13.6117 11.3911 12.8913 10.9628 11.998L12.0467 10.373C12.0848 10.3158 12.1071 10.2496 12.1114 10.181C12.1157 10.1124 12.1018 10.0439 12.0711 9.98242L10.5086 6.85742C10.4762 6.79219 10.4262 6.73733 10.3643 6.69902C10.3023 6.66071 10.2309 6.64048 10.1581 6.64063C9.22566 6.64063 8.33145 7.01102 7.67214 7.67033C7.01284 8.32964 6.64244 9.22385 6.64244 10.1563C6.64477 12.3311 7.50977 14.4163 9.04765 15.9542C10.5855 17.4921 12.6707 18.3571 14.8456 18.3594C15.778 18.3594 16.6722 17.989 17.3315 17.3297C17.9908 16.6704 18.3612 15.7762 18.3612 14.8438C18.3612 14.7712 18.3411 14.7 18.303 14.6383C18.2648 14.5765 18.2103 14.5266 18.1454 14.4941ZM14.8456 17.5781C12.8778 17.5761 10.9912 16.7935 9.59979 15.402C8.20837 14.0106 7.42576 12.124 7.42369 10.1563C7.42357 9.47188 7.68009 8.81235 8.14259 8.3079C8.60508 7.80346 9.23993 7.49079 9.92174 7.43164L11.2694 10.1279L10.1952 11.7432C10.1594 11.7965 10.1373 11.8578 10.1308 11.9216C10.1243 11.9855 10.1337 12.05 10.1581 12.1094C10.6771 13.3432 11.6586 14.3248 12.8924 14.8438C12.9519 14.8685 13.0165 14.8781 13.0806 14.8718C13.1446 14.8655 13.2061 14.8434 13.2596 14.8076L14.8749 13.7334L17.5711 15.0811C17.5118 15.7629 17.1988 16.3976 16.6942 16.8599C16.1896 17.3222 15.5299 17.5785 14.8456 17.5781ZM12.5018 2.73438C10.8017 2.73406 9.13096 3.17759 7.65486 4.02108C6.17875 4.86458 4.94842 6.07883 4.08557 7.54371C3.22273 9.00858 2.75725 10.6733 2.7352 12.3733C2.71314 14.0733 3.13527 15.7496 3.95982 17.2363L2.79771 20.7217C2.72885 20.9282 2.71886 21.1497 2.76885 21.3616C2.81885 21.5734 2.92685 21.7672 3.08076 21.9211C3.23467 22.075 3.4284 22.183 3.64024 22.233C3.85208 22.283 4.07366 22.273 4.28014 22.2041L7.76549 21.042C9.06925 21.7644 10.5211 22.1788 12.0097 22.2534C13.4984 22.328 14.9844 22.0608 16.3538 21.4724C17.7233 20.884 18.9399 19.9899 19.9104 18.8586C20.8809 17.7274 21.5796 16.3889 21.9529 14.9459C22.3262 13.5029 22.3643 11.9936 22.0641 10.5336C21.764 9.07359 21.1336 7.70167 20.2214 6.52294C19.3091 5.3442 18.1391 4.38994 16.801 3.73325C15.463 3.07656 13.9923 2.73488 12.5018 2.73438ZM12.5018 21.4844C10.9222 21.4849 9.37037 21.0689 8.00279 20.2783C7.94336 20.2441 7.87605 20.2259 7.80748 20.2256C7.76529 20.2256 7.72339 20.2325 7.68346 20.2461L4.03306 21.4629C3.96424 21.4858 3.89038 21.4892 3.81977 21.4725C3.74915 21.4559 3.68458 21.4198 3.63327 21.3685C3.58197 21.3172 3.54597 21.2527 3.5293 21.1821C3.51264 21.1114 3.51597 21.0376 3.53892 20.9688L4.75572 17.3184C4.77327 17.2659 4.77948 17.2103 4.77392 17.1552C4.76836 17.1002 4.75118 17.0469 4.72349 16.999C3.73297 15.2869 3.33517 13.2957 3.5918 11.3344C3.84844 9.37303 4.74516 7.55122 6.14286 6.15156C7.54057 4.75189 9.36111 3.8526 11.3221 3.59321C13.283 3.33382 15.2748 3.72882 16.9883 4.71694C18.7019 5.70505 20.0414 7.23105 20.7992 9.05819C21.557 10.8853 21.6906 12.9115 21.1793 14.8223C20.668 16.7331 19.5404 18.4218 17.9715 19.6263C16.4025 20.8309 14.4799 21.484 12.5018 21.4844Z" fill="white"/>
</g>
</svg>
