<svg width="60" height="60" viewBox="0 0 60 60" fill="none" xmlns="http://www.w3.org/2000/svg">
<g id="iconamoon:delivery-thin">
<path id="Vector" d="M5 7.5V6.25C4.66848 6.25 4.35054 6.3817 4.11612 6.61612C3.8817 6.85054 3.75 7.16848 3.75 7.5H5ZM32.5 7.5H33.75C33.75 7.16848 33.6183 6.85054 33.3839 6.61612C33.1495 6.3817 32.8315 6.25 32.5 6.25V7.5ZM32.5 22.5V21.25C32.1685 21.25 31.8505 21.3817 31.6161 21.6161C31.3817 21.8505 31.25 22.1685 31.25 22.5H32.5ZM5 8.75H32.5V6.25H5V8.75ZM31.25 7.5V47.5H33.75V7.5H31.25ZM6.25 42.5V7.5H3.75V42.5H6.25ZM32.5 23.75H45V21.25H32.5V23.75ZM53.75 32.5V42.5H56.25V32.5H53.75ZM33.75 47.5V22.5H31.25V47.5H33.75ZM47.65 50.15C46.9469 50.8522 45.9938 51.2467 45 51.2467C44.0062 51.2467 43.0531 50.8522 42.35 50.15L40.58 51.92C41.1604 52.5005 41.8495 52.9611 42.6078 53.2753C43.3662 53.5894 44.1791 53.7512 45 53.7512C45.8209 53.7512 46.6338 53.5894 47.3922 53.2753C48.1505 52.9611 48.8396 52.5005 49.42 51.92L47.6525 50.1525L47.65 50.15ZM42.35 44.85C43.0531 44.1477 44.0062 43.7533 45 43.7533C45.9938 43.7533 46.9469 44.1477 47.65 44.85L49.42 43.08C48.8396 42.4995 48.1505 42.0389 47.3922 41.7247C46.6338 41.4105 45.8209 41.2488 45 41.2488C44.1791 41.2488 43.3662 41.4105 42.6078 41.7247C41.8495 42.0389 41.1604 42.4995 40.58 43.08L42.3475 44.8475L42.35 44.85ZM17.65 50.15C16.9469 50.8522 15.9938 51.2467 15 51.2467C14.0062 51.2467 13.0531 50.8522 12.35 50.15L10.58 51.92C11.1604 52.5005 11.8495 52.9611 12.6078 53.2753C13.3662 53.5894 14.1791 53.7512 15 53.7512C15.8209 53.7512 16.6338 53.5894 17.3922 53.2753C18.1505 52.9611 18.8396 52.5005 19.42 51.92L17.6525 50.1525L17.65 50.15ZM12.35 44.85C13.0531 44.1477 14.0062 43.7533 15 43.7533C15.9938 43.7533 16.9469 44.1477 17.65 44.85L19.42 43.08C18.8396 42.4995 18.1505 42.0389 17.3922 41.7247C16.6338 41.4105 15.8209 41.2488 15 41.2488C14.1791 41.2488 13.3662 41.4105 12.6078 41.7247C11.8495 42.0389 11.1604 42.4995 10.58 43.08L12.3475 44.8475L12.35 44.85ZM47.65 44.85C48.385 45.58 48.75 46.5375 48.75 47.5H51.25C51.25 45.9025 50.64 44.3 49.42 43.08L47.6525 44.8475L47.65 44.85ZM48.75 47.5C48.75 48.4625 48.385 49.42 47.65 50.15L49.42 51.92C50.001 51.34 50.4617 50.651 50.7758 49.8925C51.0898 49.134 51.251 48.3209 51.25 47.5H48.75ZM40 46.25H32.5V48.75H40V46.25ZM42.35 50.15C42.001 49.8026 41.7242 49.3896 41.5354 48.9348C41.3466 48.48 41.2496 47.9924 41.25 47.5H38.75C38.75 49.0975 39.36 50.7 40.58 51.92L42.3475 50.1525L42.35 50.15ZM41.25 47.5C41.25 46.5375 41.615 45.58 42.35 44.85L40.58 43.08C39.999 43.66 39.5383 44.349 39.2242 45.1075C38.9102 45.866 38.749 46.6791 38.75 47.5H41.25ZM12.35 50.15C12.001 49.8026 11.7242 49.3896 11.5354 48.9348C11.3466 48.48 11.2496 47.9924 11.25 47.5H8.75C8.75 49.0975 9.36 50.7 10.58 51.92L12.3475 50.1525L12.35 50.15ZM11.25 47.5C11.25 46.5375 11.615 45.58 12.35 44.85L10.58 43.08C9.999 43.66 9.53827 44.349 9.22423 45.1075C8.91019 45.866 8.74903 46.6791 8.75 47.5H11.25ZM32.5 46.25H20V48.75H32.5V46.25ZM17.65 44.85C18.385 45.58 18.75 46.5375 18.75 47.5H21.25C21.25 45.9025 20.64 44.3 19.42 43.08L17.6525 44.8475L17.65 44.85ZM18.75 47.5C18.75 48.4625 18.385 49.42 17.65 50.15L19.42 51.92C20.001 51.34 20.4617 50.651 20.7758 49.8925C21.0898 49.134 21.251 48.3209 21.25 47.5H18.75ZM53.75 42.5C53.75 43.4946 53.3549 44.4484 52.6516 45.1516C51.9484 45.8549 50.9946 46.25 50 46.25V48.75C51.6576 48.75 53.2473 48.0915 54.4194 46.9194C55.5915 45.7473 56.25 44.1576 56.25 42.5H53.75ZM45 23.75C47.3206 23.75 49.5462 24.6719 51.1872 26.3128C52.8281 27.9538 53.75 30.1794 53.75 32.5H56.25C56.25 29.5163 55.0647 26.6548 52.9549 24.545C50.8452 22.4353 47.9837 21.25 45 21.25V23.75ZM3.75 42.5C3.75 44.1576 4.40848 45.7473 5.58058 46.9194C6.75269 48.0915 8.3424 48.75 10 48.75V46.25C9.00544 46.25 8.05161 45.8549 7.34835 45.1516C6.64509 44.4484 6.25 43.4946 6.25 42.5H3.75Z" fill="#183475"/>
</g>
</svg>
