<svg width="60" height="60" viewBox="0 0 60 60" fill="none" xmlns="http://www.w3.org/2000/svg">
<g id="material-symbols-light:e911-emergency-outline">
<path id="Vector" d="M14.23 47.5004V45.0004H17.895L22.5925 29.1404C22.8292 28.2487 23.3075 27.5446 24.0275 27.0279C24.7458 26.5096 25.5508 26.2504 26.4425 26.2504H33.5575C34.4492 26.2504 35.2542 26.5087 35.9725 27.0254C36.6925 27.5437 37.1708 28.2487 37.4075 29.1404L42.1075 45.0004H45.77V47.5004H14.23ZM20.5475 45.0004H39.4525L35 29.8554C34.9033 29.5037 34.7192 29.2312 34.4475 29.0379C34.1742 28.8462 33.8617 28.7504 33.51 28.7504H26.49C26.1383 28.7504 25.8258 28.8462 25.5525 29.0379C25.2808 29.2312 25.0967 29.5037 25 29.8554L20.55 45.0004H20.5475ZM28.75 19.7129V9.71289H31.25V19.7129H28.75ZM42.375 25.3704L40.5925 23.5879L47.6875 16.5529L49.4075 18.2754L42.375 25.3704ZM46.25 37.2129V34.7129H56.25V37.2129H46.25ZM17.625 25.3704L10.5925 18.2754L12.3125 16.5529L19.4075 23.5879L17.625 25.3704ZM3.75 37.2129V34.7129H13.75V37.2129H3.75Z" fill="#183475"/>
</g>
</svg>
