<svg width="60" height="60" viewBox="0 0 60 60" fill="none" xmlns="http://www.w3.org/2000/svg">
<g id="iconamoon:delivery-thin">
<path id="Vector" d="M55 7.5V6.25C55.3315 6.25 55.6495 6.3817 55.8839 6.61612C56.1183 6.85054 56.25 7.16848 56.25 7.5H55ZM27.5 7.5H26.25C26.25 7.16848 26.3817 6.85054 26.6161 6.61612C26.8505 6.3817 27.1685 6.25 27.5 6.25V7.5ZM27.5 22.5V21.25C27.8315 21.25 28.1495 21.3817 28.3839 21.6161C28.6183 21.8505 28.75 22.1685 28.75 22.5H27.5ZM55 8.75H27.5V6.25H55V8.75ZM28.75 7.5V47.5H26.25V7.5H28.75ZM53.75 42.5V7.5H56.25V42.5H53.75ZM27.5 23.75H15V21.25H27.5V23.75ZM6.25 32.5V42.5H3.75V32.5H6.25ZM26.25 47.5V22.5H28.75V47.5H26.25ZM12.35 50.15C13.0531 50.8522 14.0062 51.2467 15 51.2467C15.9938 51.2467 16.9469 50.8522 17.65 50.15L19.42 51.92C18.8396 52.5005 18.1505 52.9611 17.3922 53.2753C16.6338 53.5895 15.8209 53.7512 15 53.7512C14.1791 53.7512 13.3662 53.5895 12.6078 53.2753C11.8495 52.9611 11.1604 52.5005 10.58 51.92L12.3475 50.1525L12.35 50.15ZM17.65 44.85C16.9469 44.1478 15.9938 43.7533 15 43.7533C14.0062 43.7533 13.0531 44.1478 12.35 44.85L10.58 43.08C11.1604 42.4995 11.8495 42.0389 12.6078 41.7247C13.3662 41.4105 14.1791 41.2488 15 41.2488C15.8209 41.2488 16.6338 41.4105 17.3922 41.7247C18.1505 42.0389 18.8396 42.4995 19.42 43.08L17.6525 44.8475L17.65 44.85ZM42.35 50.15C43.0531 50.8522 44.0062 51.2467 45 51.2467C45.9938 51.2467 46.9469 50.8522 47.65 50.15L49.42 51.92C48.8396 52.5005 48.1505 52.9611 47.3922 53.2753C46.6338 53.5895 45.8209 53.7512 45 53.7512C44.1791 53.7512 43.3662 53.5895 42.6078 53.2753C41.8495 52.9611 41.1604 52.5005 40.58 51.92L42.3475 50.1525L42.35 50.15ZM47.65 44.85C46.9469 44.1478 45.9938 43.7533 45 43.7533C44.0062 43.7533 43.0531 44.1478 42.35 44.85L40.58 43.08C41.1604 42.4995 41.8495 42.0389 42.6078 41.7247C43.3662 41.4105 44.1791 41.2488 45 41.2488C45.8209 41.2488 46.6338 41.4105 47.3922 41.7247C48.1505 42.0389 48.8396 42.4995 49.42 43.08L47.6525 44.8475L47.65 44.85ZM12.35 44.85C11.615 45.58 11.25 46.5375 11.25 47.5H8.75C8.75 45.9025 9.36 44.3 10.58 43.08L12.3475 44.8475L12.35 44.85ZM11.25 47.5C11.25 48.4625 11.615 49.42 12.35 50.15L10.58 51.92C9.999 51.34 9.53827 50.651 9.22423 49.8925C8.91019 49.134 8.74903 48.3209 8.75 47.5H11.25ZM20 46.25H27.5V48.75H20V46.25ZM17.65 50.15C17.999 49.8026 18.2758 49.3896 18.4646 48.9348C18.6534 48.48 18.7504 47.9924 18.75 47.5H21.25C21.25 49.0975 20.64 50.7 19.42 51.92L17.6525 50.1525L17.65 50.15ZM18.75 47.5C18.75 46.5375 18.385 45.58 17.65 44.85L19.42 43.08C20.001 43.66 20.4617 44.349 20.7758 45.1075C21.0898 45.866 21.251 46.6791 21.25 47.5H18.75ZM47.65 50.15C47.999 49.8026 48.2758 49.3896 48.4646 48.9348C48.6534 48.48 48.7504 47.9924 48.75 47.5H51.25C51.25 49.0975 50.64 50.7 49.42 51.92L47.6525 50.1525L47.65 50.15ZM48.75 47.5C48.75 46.5375 48.385 45.58 47.65 44.85L49.42 43.08C50.001 43.66 50.4617 44.349 50.7758 45.1075C51.0898 45.866 51.251 46.6791 51.25 47.5H48.75ZM27.5 46.25H40V48.75H27.5V46.25ZM42.35 44.85C41.615 45.58 41.25 46.5375 41.25 47.5H38.75C38.75 45.9025 39.36 44.3 40.58 43.08L42.3475 44.8475L42.35 44.85ZM41.25 47.5C41.25 48.4625 41.615 49.42 42.35 50.15L40.58 51.92C39.999 51.34 39.5383 50.651 39.2242 49.8925C38.9102 49.134 38.749 48.3209 38.75 47.5H41.25ZM6.25 42.5C6.25 43.4946 6.64509 44.4484 7.34835 45.1516C8.05161 45.8549 9.00544 46.25 10 46.25V48.75C8.3424 48.75 6.75269 48.0915 5.58058 46.9194C4.40848 45.7473 3.75 44.1576 3.75 42.5H6.25ZM15 23.75C12.6794 23.75 10.4538 24.6719 8.81281 26.3128C7.17187 27.9538 6.25 30.1794 6.25 32.5H3.75C3.75 29.5163 4.93526 26.6548 7.04505 24.545C9.15483 22.4353 12.0163 21.25 15 21.25V23.75ZM56.25 42.5C56.25 44.1576 55.5915 45.7473 54.4194 46.9194C53.2473 48.0915 51.6576 48.75 50 48.75V46.25C50.9946 46.25 51.9484 45.8549 52.6517 45.1516C53.3549 44.4484 53.75 43.4946 53.75 42.5H56.25Z" fill="#183475"/>
</g>
</svg>
