<svg width="60" height="60" viewBox="0 0 60 60" fill="none" xmlns="http://www.w3.org/2000/svg">
<g id="material-symbols-light:water-pump-outline">
<path id="Vector" d="M8.75 42.5H21.885C20.695 41.76 19.6217 40.8608 18.665 39.8025C17.7083 38.7458 16.9367 37.5616 16.35 36.25H8.75V42.5ZM30 42.5C33.4583 42.5 36.4067 41.2808 38.845 38.8424C41.2833 36.4041 42.5017 33.4566 42.5 30C42.5 26.5416 41.2808 23.5933 38.8425 21.155C36.4042 18.7166 33.4567 17.4983 30 17.5C26.5417 17.5 23.5933 18.7191 21.155 21.1575C18.7167 23.5958 17.4983 26.5433 17.5 30C17.5 33.4583 18.7192 36.4066 21.1575 38.845C23.5958 41.2833 26.5433 42.5016 30 42.5ZM43.65 23.75H51.25V17.5H38.115C39.305 18.24 40.3783 19.1391 41.335 20.1975C42.2917 21.2541 43.0633 22.4383 43.65 23.75ZM6.25 46.925V31.8249H8.75V33.75H15.525C15.345 33.1416 15.2125 32.5266 15.1275 31.905C15.0425 31.285 15 30.65 15 30C15 25.8216 16.455 22.2766 19.365 19.365C22.275 16.4533 25.82 14.9983 30 15H51.25V13.075H53.75V28.175H51.25V26.25H44.475C44.655 26.8583 44.7883 27.4733 44.875 28.095C44.9583 28.715 45 29.35 45 30C45 34.1783 43.545 37.7233 40.635 40.635C37.725 43.5466 34.18 45.0016 30 45H8.75V46.925H6.25ZM30 35.53C28.945 35.53 28.0567 35.1683 27.335 34.445C26.6117 33.7216 26.25 32.8333 26.25 31.78C26.25 31.11 26.4 30.4266 26.7 29.73C27 29.0316 27.5358 28.0958 28.3075 26.9225L29.9525 24.4725L31.645 26.9225C32.4683 28.1591 33.025 29.1091 33.315 29.7725C33.605 30.4325 33.75 31.1016 33.75 31.78C33.75 32.8333 33.3883 33.7216 32.665 34.445C31.9433 35.1683 31.055 35.53 30 35.53Z" fill="white"/>
</g>
</svg>
