<svg width="80" height="80" viewBox="0 0 80 80" fill="none" xmlns="http://www.w3.org/2000/svg">
<g id="et:gears">
<g id="Vector">
<path d="M11.1525 49.2085C11.4458 49.2785 11.8441 49.6401 11.9591 49.9701L12.5423 51.3766C12.674 51.6465 12.649 52.1815 12.4923 52.4381L10.1643 56.2443C9.66605 57.0608 9.76937 58.2173 10.4393 58.9672L12.4107 60.937C13.0973 61.5469 14.3088 61.6569 15.0987 61.1786L18.9048 58.8506C19.1431 58.7039 19.6547 58.6523 20.013 58.8206L21.4178 59.4005C21.7011 59.4988 22.0627 59.8954 22.1327 60.1887L23.1776 64.5282C23.3992 65.448 24.2774 66.2046 25.2207 66.2913C25.2207 66.2913 25.7989 66.3446 26.6655 66.3446C27.532 66.3446 28.1119 66.2913 28.1119 66.2913C28.5894 66.2349 29.039 66.0369 29.4029 65.7226C29.7667 65.4084 30.0281 64.9924 30.1533 64.5282L31.1999 60.1887C31.2698 59.8971 31.6298 59.4988 31.9598 59.3839L33.3662 58.8006C33.6145 58.6789 34.1895 58.7039 34.4278 58.8506L38.2339 61.1786C38.5689 61.3836 38.9688 61.4919 39.3938 61.4919C39.9687 61.4919 40.5253 61.2903 40.9569 60.9053L42.9266 58.9339C43.2389 58.5653 43.4297 58.1093 43.473 57.6282C43.5162 57.147 43.4098 56.6643 43.1683 56.2459L40.8402 52.4398C40.6836 52.1831 40.6586 51.6482 40.8103 51.3316L41.3902 49.9268C41.4885 49.6435 41.8851 49.2819 42.1784 49.2119L46.5178 48.167C46.982 48.0413 47.398 47.7795 47.7122 47.4154C48.0264 47.0513 48.2245 46.6015 48.2809 46.1239C48.2809 46.1239 48.3343 45.5457 48.3343 44.6791C48.3343 43.8126 48.2809 43.2327 48.2809 43.2327C48.2243 42.7551 48.0261 42.3054 47.7119 41.9414C47.3978 41.5773 46.9819 41.3155 46.5178 41.1896L42.1801 40.1464C41.8868 40.0764 41.4885 39.7148 41.3735 39.3848L40.7903 37.9784C40.6586 37.7084 40.6836 37.1735 40.8402 36.9168L43.1683 33.1107C43.6665 32.2941 43.5632 31.1376 42.8933 30.3877L40.9219 28.418C40.2337 27.8064 39.0205 27.6964 38.2339 28.1763L34.4278 30.5043C34.1895 30.6493 33.6762 30.7043 33.3196 30.5343L31.9148 29.9544C31.6315 29.8561 31.2715 29.4595 31.2015 29.1662L30.155 24.8268C30.0293 24.3626 29.7675 23.9466 29.4034 23.6324C29.0393 23.3182 28.5895 23.1201 28.1119 23.0637C28.1086 23.0653 27.5303 23.012 26.6638 23.012C25.7972 23.012 25.2173 23.0653 25.2173 23.0653C24.7398 23.122 24.2901 23.3201 23.9261 23.6343C23.562 23.9485 23.3002 24.3643 23.1743 24.8284L22.1311 29.1645C22.0611 29.4578 21.6995 29.8561 21.3695 29.9711L19.963 30.5543C19.713 30.676 19.1398 30.6493 18.9015 30.5043L15.097 28.1763C14.3088 27.6964 13.1223 27.7797 12.374 28.4496L10.4043 30.421C10.092 30.7896 9.90121 31.2456 9.85796 31.7268C9.8147 32.2079 9.92112 32.6906 10.1626 33.109L12.4907 36.9152C12.6473 37.1718 12.6723 37.7067 12.5207 38.0233L11.9407 39.4282C11.8424 39.7115 11.4458 40.0731 11.1525 40.1431L6.81309 41.1879C6.34889 41.3137 5.93292 41.5754 5.61871 41.9395C5.30451 42.3036 5.10644 42.7534 5.04999 43.231C5.05333 43.231 5 43.8092 5 44.6758C5 45.5424 5.05333 46.1223 5.05333 46.1223C5.10999 46.5998 5.30814 47.0495 5.62231 47.4135C5.93648 47.7776 6.35233 48.0394 6.81643 48.1653L11.1525 49.2085ZM6.66645 44.6758C6.66645 43.9126 6.71144 43.3976 6.71311 43.381C6.73966 43.2513 6.79891 43.1306 6.88524 43.0302C6.97157 42.9299 7.08212 42.8533 7.20637 42.8077L11.5458 41.7629C12.3874 41.5595 13.2356 40.7896 13.4989 40.0181L14.0388 38.7066C14.4188 37.9284 14.3654 36.7852 13.9138 36.0453L11.5858 32.2408C11.4741 32.0558 11.5058 31.6892 11.6158 31.5642L13.5172 29.6611C13.6689 29.5261 14.0555 29.4928 14.2288 29.5978L18.0349 31.9258C18.7565 32.3674 19.993 32.3974 20.6479 32.0725L21.9611 31.5292C22.7793 31.2476 23.5492 30.3994 23.7525 29.5561L24.7957 25.2184C24.8409 25.0937 24.9174 24.9828 25.0178 24.8961C25.1181 24.8095 25.239 24.75 25.369 24.7234C25.3856 24.7234 25.9006 24.6785 26.6638 24.6785C27.427 24.6785 27.942 24.7234 27.9586 24.7251C28.0883 24.7517 28.209 24.8109 28.3094 24.8972C28.4097 24.9836 28.4863 25.0941 28.5319 25.2184L29.5767 29.5561C29.78 30.3977 30.5483 31.2476 31.3215 31.5109L32.633 32.0508C33.3946 32.4241 34.5744 32.3658 35.2943 31.9258L39.0988 29.5978C39.2721 29.4928 39.6821 29.5478 39.7754 29.6278L41.6785 31.5292C41.8218 31.6909 41.8534 32.0558 41.7418 32.2408L39.4138 36.0469C38.9622 36.7852 38.9088 37.93 39.2671 38.6599L39.8104 39.9731C40.092 40.7913 40.9402 41.5612 41.7835 41.7645L46.1212 42.8077C46.2459 42.8529 46.3568 42.9294 46.4435 43.0298C46.5301 43.1301 46.5896 43.2511 46.6161 43.381C46.6161 43.3976 46.6611 43.9126 46.6611 44.6758C46.6611 45.439 46.6161 45.954 46.6145 45.9706C46.5879 46.1003 46.5287 46.221 46.4423 46.3214C46.356 46.4217 46.2455 46.4983 46.1212 46.5439L41.7818 47.5887C40.9402 47.7921 40.092 48.562 39.8287 49.3335L39.2888 50.645C38.9088 51.4232 38.9622 52.5664 39.4138 53.3063L41.7418 57.1108C41.8534 57.2958 41.8218 57.6624 41.7118 57.7874L39.8104 59.6905C39.6899 59.7805 39.5424 59.8269 39.3921 59.8221C39.2906 59.8254 39.19 59.8019 39.1005 59.7538L35.2943 57.4258C34.5744 56.9858 33.3379 56.9542 32.6813 57.2791L31.3682 57.8224C30.5499 58.104 29.78 58.9539 29.5784 59.7955L28.5335 64.1332C28.4883 64.2579 28.4119 64.3688 28.3115 64.4555C28.2111 64.5421 28.0902 64.6016 27.9603 64.6282C27.942 64.6282 27.427 64.6731 26.6638 64.6731C25.9006 64.6731 25.3856 64.6282 25.369 64.6265C25.2393 64.5999 25.1186 64.5407 25.0182 64.4544C24.9179 64.368 24.8413 64.2575 24.7957 64.1332L23.7508 59.7938C23.5475 58.9522 22.7776 58.104 22.0061 57.8407L20.6946 57.3008C20.3217 57.1274 19.9143 57.0408 19.5031 57.0475C18.9548 57.0475 18.4332 57.1825 18.0333 57.4274L14.2288 59.7555C14.0555 59.8605 13.6439 59.8038 13.5522 59.7255L11.6491 57.8224C11.5058 57.6607 11.4741 57.2958 11.5858 57.1108L13.9138 53.3047C14.3654 52.5664 14.4188 51.4216 14.0605 50.6917L13.5172 49.3785C13.2356 48.5603 12.3874 47.7904 11.5441 47.5871L7.20637 46.5439C7.08172 46.4987 6.97076 46.4222 6.8841 46.3218C6.79745 46.2215 6.738 46.1005 6.71144 45.9706C6.71144 45.954 6.66645 45.439 6.66645 44.6758Z" fill="white"/>
<path d="M26.6638 53.8413C31.7181 53.8413 35.8292 49.7301 35.8292 44.6758C35.8292 39.6215 31.7181 35.5103 26.6638 35.5103C21.6095 35.5103 17.4983 39.6215 17.4983 44.6758C17.4983 49.7301 21.6095 53.8413 26.6638 53.8413ZM26.6638 37.1768C30.7982 37.1768 34.1628 40.5413 34.1628 44.6758C34.1628 48.8103 30.7982 52.1748 26.6638 52.1748C22.5293 52.1748 19.1648 48.8103 19.1648 44.6758C19.1648 40.5413 22.5293 37.1768 26.6638 37.1768ZM50.7889 21.8688C50.677 21.9944 50.524 22.076 50.3573 22.0988L47.2561 22.0688C46.8733 22.079 46.5023 22.2025 46.1899 22.4238C45.8774 22.6452 45.6378 22.9543 45.5013 23.312C45.5013 23.312 45.3646 23.7002 45.2147 24.2952C45.0647 24.8901 45.0014 25.2967 45.0014 25.2967C44.8847 26.0483 45.303 26.8798 45.9746 27.2314L48.7092 28.6646C48.8558 28.7757 48.9547 28.9383 48.9858 29.1195L49.1408 30.1777C49.1507 30.3449 49.1011 30.5102 49.0008 30.6443L46.7978 32.804C46.2462 33.344 46.1012 34.2672 46.4812 34.9921L47.4794 36.6585C47.901 37.2784 48.8142 37.5951 49.5308 37.3718L52.5704 36.4419C52.7353 36.4419 52.9003 36.5052 52.9936 36.5802L53.8519 37.2135C53.9768 37.3259 54.0582 37.4787 54.0818 37.6451L54.0518 40.7313C54.0452 41.4912 54.5784 42.2528 55.295 42.5028C55.295 42.5028 55.6833 42.6394 56.2782 42.7894C56.8731 42.9394 57.2797 43.0027 57.2797 43.0027C57.3231 43.0094 57.4964 43.0227 57.5397 43.0227C57.8814 43.0184 58.216 42.9244 58.5099 42.7501C58.8039 42.5758 59.0468 42.3273 59.2145 42.0295L60.6476 39.2948C60.7587 39.1483 60.9213 39.0494 61.1026 39.0182L62.2074 38.8582C62.3741 38.8582 62.5707 38.9449 62.6257 39.0016L64.7854 41.2046C65.3103 41.7412 66.1952 41.9328 66.9734 41.5212L68.6382 40.523C69.2748 40.0897 69.5831 39.2065 69.3531 38.4716L68.4333 35.527C68.4087 35.344 68.4552 35.1585 68.5632 35.0088L69.1965 34.1505C69.3084 34.0249 69.4614 33.9434 69.6281 33.9206L72.7294 33.9506C73.1121 33.9404 73.4832 33.8168 73.7956 33.5955C74.108 33.3742 74.3476 33.0651 74.4841 32.7074C74.4841 32.7074 74.6208 32.3191 74.7708 31.7242C74.9207 31.1293 74.9841 30.7227 74.9841 30.7227C75.0335 30.3399 74.9673 29.951 74.7938 29.6062C74.6204 29.2614 74.3477 28.9764 74.0108 28.7879L71.2762 27.3548C71.1296 27.2437 71.0307 27.0811 70.9996 26.8998L70.8463 25.845C70.8364 25.6778 70.886 25.5125 70.9863 25.3784L73.1893 23.2186C73.7409 22.6787 73.8859 21.7555 73.5059 21.0306L72.5077 19.3642C72.0861 18.7459 71.1746 18.4259 70.4563 18.6493L67.4151 19.5791C67.2629 19.5789 67.1147 19.5305 66.9918 19.4408L66.1336 18.8076C66.0087 18.6951 65.9273 18.5423 65.9036 18.376L65.9336 15.2897C65.9272 14.904 65.8053 14.5291 65.5837 14.2133C65.3621 13.8976 65.051 13.6555 64.6904 13.5183C64.6904 13.5183 64.3021 13.3816 63.7072 13.2316C63.1123 13.0817 62.7057 13.0183 62.7057 13.0183C62.6192 13.0097 62.5325 13.0036 62.4457 13C62.104 13.0043 61.7694 13.0983 61.4755 13.2726C61.1815 13.4469 60.9386 13.6954 60.7709 13.9932L59.3378 16.7278C59.2267 16.8744 59.0641 16.9733 58.8829 17.0045L57.778 17.1628C57.6271 17.1595 57.4809 17.1094 57.3597 17.0195L55.2 14.8164C54.9177 14.5356 54.5525 14.3531 54.1584 14.2961C53.7643 14.239 53.3623 14.3105 53.012 14.4998L51.3455 15.4963C50.7089 15.9296 50.4006 16.8128 50.6306 17.5477L51.5505 20.4923C51.5751 20.6754 51.5286 20.8608 51.4205 21.0106L50.7889 21.8688ZM52.1554 22.822L52.727 22.0455C53.1736 21.5172 53.3469 20.6557 53.1403 19.9974L52.2221 17.0545C52.2137 17.0078 52.2504 16.9028 52.2421 16.9011L53.8219 15.9546L54.0102 15.9829L56.1716 18.186C56.5548 18.5759 57.1864 18.8292 57.7797 18.8292C57.8938 18.831 58.0078 18.8204 58.1196 18.7976L59.0778 18.6559C59.4377 18.6123 59.7824 18.4849 60.0842 18.2841C60.3861 18.0832 60.6367 17.8145 60.8159 17.4994L62.2474 14.7664C62.2989 14.7086 62.3703 14.6723 62.4474 14.6648C62.4657 14.6664 62.8057 14.7231 63.3023 14.8464C63.7972 14.9714 64.1238 15.0831 64.1388 15.0897C64.1905 15.1114 64.2655 15.2197 64.2688 15.273L64.2388 18.3593C64.2321 19.0492 64.6471 19.8241 65.1837 20.174L65.9586 20.7456C66.4735 21.1806 67.3567 21.3639 68.0066 21.1589L70.9629 20.239C71.0329 20.239 71.1112 20.2824 71.1012 20.2607L72.0478 21.8405C72.0661 21.8838 72.0478 21.9938 72.0194 22.0288L69.8164 24.1902C69.3248 24.6751 69.0698 25.515 69.2048 26.1383L69.3448 27.0965C69.4048 27.783 69.8914 28.5146 70.503 28.8346L73.236 30.266C73.2932 30.318 73.3294 30.3891 73.3376 30.466C73.2888 30.7533 73.2282 31.0385 73.156 31.3209C73.0869 31.6031 73.0057 31.8822 72.9127 32.1575C72.891 32.2091 72.7827 32.2841 72.7294 32.2874L69.6264 32.2574C68.9415 32.2574 68.175 32.6724 67.8283 33.2023L67.2584 33.9772C67.0334 34.2621 66.8788 34.596 66.807 34.9518C66.7351 35.3077 66.7482 35.6754 66.8451 36.0253L67.7633 38.9682C67.7717 39.0132 67.735 39.1199 67.7434 39.1215L66.1636 40.0681L65.9753 40.0397L63.8139 37.8367C63.4306 37.4468 62.799 37.1935 62.2057 37.1935C62.0916 37.1917 61.9776 37.2023 61.8658 37.2251L60.9076 37.3668C60.5477 37.4104 60.203 37.5378 59.9012 37.7386C59.5994 37.9394 59.3488 38.2082 59.1695 38.5233L57.738 41.2563C57.6865 41.314 57.6151 41.3503 57.538 41.3579C57.2507 41.3091 56.9655 41.2485 56.6831 41.1763C56.4009 41.1072 56.1218 41.026 55.8466 40.933C55.7949 40.9113 55.7199 40.803 55.7166 40.7497L55.7466 37.6634C55.7533 36.9735 55.3383 36.1986 54.8017 35.8486L54.0268 35.277C53.7417 35.0519 53.4075 34.8972 53.0514 34.8254C52.6952 34.7536 52.3272 34.7667 51.9771 34.8638L49.0208 35.7836C48.9492 35.7836 48.8708 35.7453 48.8825 35.762L47.936 34.1822C47.9176 34.1389 47.936 34.0289 47.9643 33.9939L50.1673 31.8325C50.6589 31.3476 50.9139 30.5077 50.7789 29.8844L50.6389 28.9279C50.5952 28.5678 50.4677 28.223 50.2665 27.9211C50.0654 27.6193 49.7963 27.3688 49.4808 27.1898L46.7478 25.7583C46.6905 25.7064 46.6543 25.6352 46.6461 25.5583C46.6478 25.54 46.7045 25.2 46.8278 24.7034C46.9528 24.2085 47.0644 23.8819 47.0711 23.8669C47.0928 23.8152 47.2011 23.7402 47.2544 23.7369L50.3573 23.7669C51.0422 23.7669 51.8088 23.352 52.1554 22.822Z" fill="white"/>
<path d="M59.9927 33.0107C62.749 33.0107 64.992 30.7676 64.992 28.0113C64.992 25.255 62.749 23.012 59.9927 23.012C57.2364 23.012 54.9934 25.255 54.9934 28.0113C54.9934 30.7676 57.2364 33.0107 59.9927 33.0107ZM59.9927 24.6785C61.8308 24.6785 63.3256 26.1733 63.3256 28.0113C63.3256 29.8494 61.8308 31.3442 59.9927 31.3442C58.1546 31.3442 56.6598 29.8494 56.6598 28.0113C56.6598 26.1733 58.1546 24.6785 59.9927 24.6785Z" fill="white"/>
</g>
</g>
</svg>
