<svg width="60" height="60" viewBox="0 0 60 60" fill="none" xmlns="http://www.w3.org/2000/svg">
<g id="icons8:services">
<path id="Vector" d="M40.3111 4.6875V7.32375C38.7739 7.58774 37.314 8.18832 36.0361 9.0825L34.1011 7.26375L31.523 10.02L33.398 11.7769C32.5402 13.0269 31.9603 14.4463 31.6973 15.9394H29.0611V19.6894H31.6973C31.9711 21.2456 32.5861 22.6631 33.4561 23.9081L31.463 25.8394L34.163 28.5394L36.0942 26.5444C37.3392 27.4144 38.7567 28.0294 40.313 28.3031V30.9375H44.063V28.3013C45.5559 28.0389 46.9753 27.4597 48.2255 26.6025L49.9805 28.4775L52.7367 25.8975L50.918 23.9662C51.7992 22.71 52.3992 21.2569 52.6767 19.6875H55.3111V15.9375H52.6748C52.405 14.4193 51.8045 12.9791 50.9161 11.7188L52.6748 9.96L50.0367 7.32375L48.2798 9.0825C47.0195 8.19406 45.5793 7.59363 44.0611 7.32375V4.6875H40.3111ZM42.1861 10.8994C43.0957 10.8934 43.9974 11.0681 44.839 11.4134C45.6805 11.7587 46.4451 12.2676 47.0884 12.9107C47.7317 13.5539 48.2408 14.3183 48.5864 15.1598C48.9319 16.0012 49.1068 16.9029 49.1011 17.8125C49.1011 21.6656 46.0392 24.7275 42.1861 24.7275C38.333 24.7275 35.2711 21.6656 35.2711 17.8125C35.2711 13.9594 38.333 10.8975 42.1861 10.8975V10.8994ZM17.8673 21.9713L14.4136 23.3775L15.7598 26.7712C13.9678 27.8437 12.4603 29.3319 11.3648 31.11L8.02734 29.76L6.62109 33.2194L9.95859 34.5656C9.69519 35.5799 9.5579 36.6228 9.54984 37.6706C9.54984 38.7394 9.70922 39.7819 9.95859 40.7756L6.62109 42.1256L8.02734 45.5812L11.3648 44.2313C12.4503 46.0326 13.9589 47.5419 15.7598 48.6281L14.4098 51.9656L17.8692 53.3719L19.2192 50.0344C20.2333 50.2985 21.2763 50.4358 22.3242 50.4431C23.393 50.4431 24.4392 50.2837 25.4292 50.0344L26.7792 53.3719L30.2348 51.9656L28.8848 48.6281C30.6642 47.5343 32.1528 46.0264 33.2236 44.2331L36.6173 45.5794L38.0236 42.1237L34.6298 40.7738C34.8736 39.78 35.0386 38.7356 35.0386 37.6688C35.0386 36.6 34.8755 35.5538 34.6261 34.5619L38.0255 33.2156L36.6192 29.7563L33.2255 31.1063C32.1485 29.3327 30.6603 27.8445 28.8867 26.7675L30.2367 23.3737L26.7773 21.9675L25.433 25.3612C24.4178 25.0995 23.3744 24.9629 22.3261 24.9544C21.2573 24.9544 20.2148 25.1156 19.2211 25.3631L17.8711 21.9694L17.8673 21.9713ZM22.3223 28.7063C27.3155 28.7063 31.2848 32.6812 31.2848 37.6725C31.2886 42.6656 27.3155 46.695 22.3223 46.695C21.1371 46.6965 19.9632 46.4641 18.8678 46.0112C17.7725 45.5583 16.7773 44.8938 15.9392 44.0557C15.1011 43.2176 14.4365 42.2223 13.9836 41.127C13.5307 40.0317 13.2984 38.8578 13.2998 37.6725C13.2998 32.6794 17.3311 28.7063 22.3223 28.7063Z" fill="#183475"/>
</g>
</svg>
