<svg width="60" height="60" viewBox="0 0 60 60" fill="none" xmlns="http://www.w3.org/2000/svg">
<g id="fluent-mdl2:c-r-m-services" clip-path="url(#clip0_203_350)">
<path id="Vector" d="M34.7168 34.541C32.998 33.0762 31.0938 31.9531 29.0039 31.1719C26.9141 30.3906 24.7461 30 22.5 30C20.7812 30 19.1211 30.2246 17.5195 30.6738C15.918 31.123 14.4238 31.748 13.0371 32.5488C11.6504 33.3496 10.3906 34.3262 9.25781 35.4785C8.125 36.6309 7.14844 37.9004 6.32812 39.2871C5.50781 40.6738 4.87305 42.168 4.42383 43.7695C3.97461 45.3711 3.75 47.0312 3.75 48.75H0C0 46.4062 0.341797 44.1504 1.02539 41.9824C1.70898 39.8145 2.69531 37.8125 3.98438 35.9766C5.27344 34.1406 6.79688 32.5098 8.55469 31.084C10.3125 29.6582 12.3047 28.5352 14.5312 27.7148C12.3242 26.2695 10.6055 24.4531 9.375 22.2656C8.14453 20.0781 7.51953 17.6562 7.5 15C7.5 12.9297 7.89062 10.9863 8.67188 9.16992C9.45312 7.35352 10.5176 5.76172 11.8652 4.39453C13.2129 3.02734 14.8047 1.95312 16.6406 1.17188C18.4766 0.390625 20.4297 0 22.5 0C24.5703 0 26.5137 0.390625 28.3301 1.17188C30.1465 1.95312 31.7383 3.01758 33.1055 4.36523C34.4727 5.71289 35.5469 7.30469 36.3281 9.14062C37.1094 10.9766 37.5 12.9297 37.5 15C37.5 16.2891 37.3438 17.5488 37.0312 18.7793C36.7188 20.0098 36.25 21.1719 35.625 22.2656C35 23.3594 34.2676 24.3652 33.4277 25.2832C32.5879 26.2012 31.6016 27.0117 30.4688 27.7148C31.7383 28.2031 32.9492 28.7988 34.1016 29.502C35.2539 30.2051 36.3379 30.9961 37.3535 31.875L34.7168 34.541ZM11.25 15C11.25 16.5625 11.543 18.0176 12.1289 19.3652C12.7148 20.7129 13.5156 21.9043 14.5312 22.9395C15.5469 23.9746 16.7383 24.7852 18.1055 25.3711C19.4727 25.957 20.9375 26.25 22.5 26.25C24.043 26.25 25.498 25.957 26.8652 25.3711C28.2324 24.7852 29.4238 23.9844 30.4395 22.9688C31.4551 21.9531 32.2656 20.7617 32.8711 19.3945C33.4766 18.0273 33.7695 16.5625 33.75 15C33.75 13.457 33.457 12.002 32.8711 10.6348C32.2852 9.26758 31.4844 8.07617 30.4688 7.06055C29.4531 6.04492 28.252 5.23438 26.8652 4.62891C25.4785 4.02344 24.0234 3.73047 22.5 3.75C20.9375 3.75 19.4824 4.04297 18.1348 4.62891C16.7871 5.21484 15.5957 6.01562 14.5605 7.03125C13.5254 8.04688 12.7148 9.24805 12.1289 10.6348C11.543 12.0215 11.25 13.4766 11.25 15ZM50.625 22.5C51.9141 22.5 53.125 22.7441 54.2578 23.2324C55.3906 23.7207 56.377 24.3945 57.2168 25.2539C58.0566 26.1133 58.7305 27.1094 59.2383 28.2422C59.7461 29.375 60 30.5859 60 31.875C60 33.1641 59.7559 34.375 59.2676 35.5078C58.7793 36.6406 58.1055 37.6367 57.2461 38.4961C56.3867 39.3555 55.3906 40.0293 54.2578 40.5176C53.125 41.0059 51.9141 41.25 50.625 41.25C50.1758 41.25 49.7363 41.2207 49.3066 41.1621L32.1094 58.3594C31.582 58.8867 30.9766 59.2871 30.293 59.5605C29.6094 59.834 28.8867 59.9805 28.125 60C27.3438 60 26.6113 59.8535 25.9277 59.5605C25.2441 59.2676 24.6484 58.8672 24.1406 58.3594C23.6328 57.8516 23.2324 57.2559 22.9395 56.5723C22.6465 55.8887 22.5 55.1562 22.5 54.375C22.5 53.6328 22.6367 52.9199 22.9102 52.2363C23.1836 51.5527 23.5938 50.9375 24.1406 50.3906L41.3379 33.1934C41.2793 32.7637 41.25 32.3242 41.25 31.875C41.25 30.5859 41.4941 29.375 41.9824 28.2422C42.4707 27.1094 43.1348 26.123 43.9746 25.2832C44.8145 24.4434 45.8105 23.7695 46.9629 23.2617C48.1152 22.7539 49.3359 22.5 50.625 22.5ZM50.625 37.5C51.4062 37.5 52.1387 37.3535 52.8223 37.0605C53.5059 36.7676 54.1016 36.3672 54.6094 35.8594C55.1172 35.3516 55.5176 34.7559 55.8105 34.0723C56.1035 33.3887 56.25 32.6562 56.25 31.875C56.25 31.0742 56.0645 30.2734 55.6934 29.4727L51.416 33.75H48.75V31.084L53.0273 26.8066C52.2266 26.4355 51.4258 26.25 50.625 26.25C49.8438 26.25 49.1113 26.3965 48.4277 26.6895C47.7441 26.9824 47.1484 27.3828 46.6406 27.8906C46.1328 28.3984 45.7324 28.9941 45.4395 29.6777C45.1465 30.3613 45 31.0938 45 31.875C45 32.6758 45.1855 33.4766 45.5566 34.2773L26.8066 53.0566C26.4355 53.4277 26.25 53.8672 26.25 54.375C26.25 54.8828 26.4355 55.3223 26.8066 55.6934C27.1777 56.0645 27.6172 56.25 28.125 56.25C28.6328 56.25 29.0723 56.0645 29.4434 55.6934L48.2227 36.9434C49.0234 37.3145 49.8242 37.5 50.625 37.5Z" fill="#183475"/>
</g>
<defs>
<clipPath id="clip0_203_350">
<rect width="60" height="60" fill="white"/>
</clipPath>
</defs>
</svg>
