<svg width="60" height="60" viewBox="0 0 60 60" fill="none" xmlns="http://www.w3.org/2000/svg">
<g id="carbon:cloud-monitoring">
<path id="Vector" d="M52.5 30V41.25H7.5V11.25H20.625V7.5H7.5C6.50544 7.5 5.55161 7.89509 4.84835 8.59835C4.14509 9.30161 3.75 10.2554 3.75 11.25V41.25C3.75 42.2446 4.14509 43.1984 4.84835 43.9016C5.55161 44.6049 6.50544 45 7.5 45H22.5V52.5H15V56.25H45V52.5H37.5V45H52.5C53.4946 45 54.4484 44.6049 55.1516 43.9016C55.8549 43.1984 56.25 42.2446 56.25 41.25V30H52.5ZM33.75 52.5H26.25V45H33.75V52.5Z" fill="#183475"/>
<path id="Vector_2" d="M33.75 33.7502H33.7312C33.3272 33.746 32.9354 33.6114 32.6141 33.3664C32.2928 33.1215 32.0592 32.7793 31.9481 32.3908L28.5863 20.6252H20.625V16.8752H30C30.4075 16.875 30.8041 17.0075 31.1295 17.2528C31.455 17.4981 31.6917 17.8428 31.8038 18.2346L33.8175 25.2846L39.4594 6.94708C39.5811 6.56655 39.8196 6.23403 40.141 5.99674C40.4625 5.75946 40.8505 5.62946 41.25 5.62521C41.6451 5.61927 42.0315 5.74082 42.352 5.97184C42.6726 6.20286 42.9101 6.53104 43.0294 6.90771L46.35 16.8752H56.25V20.6252H45C44.6063 20.6253 44.2226 20.5015 43.9032 20.2713C43.5838 20.0411 43.345 19.7162 43.2206 19.3427L41.3213 13.6427L35.5425 32.4265C35.4246 32.8098 35.1869 33.1452 34.8642 33.3835C34.5416 33.6218 34.1511 33.7503 33.75 33.7502Z" fill="#183475"/>
</g>
</svg>
