<svg width="258" height="50" viewBox="0 0 258 50" fill="none" xmlns="http://www.w3.org/2000/svg">
<path fill-rule="evenodd" clip-rule="evenodd" d="M239.495 49V31.5793L229 0H237.006L243.523 20.6517L249.935 0H258L247.566 31.5785V49H239.495ZM246.66 31.4314L256.745 0.910104H250.601L243.53 23.6845L236.343 0.910104H230.257L240.4 31.4314V48.0899H246.66V31.4314Z" fill="white"/>
<path fill-rule="evenodd" clip-rule="evenodd" d="M212.937 49V6.71293H205V0H229V6.71293H221.295V49H212.937ZM220.389 5.80283H228.095V0.910104H205.905V5.80283H213.842V48.0899H220.389V5.80283Z" fill="white"/>
<path fill-rule="evenodd" clip-rule="evenodd" d="M194 49V0H202V49H194ZM194.879 48.0899H201.121V0.910104H194.879V48.0899Z" fill="white"/>
<path fill-rule="evenodd" clip-rule="evenodd" d="M168.173 47.7152L168.17 47.7124C166.214 46.1888 164.85 44.1391 164.073 41.6023L164.071 41.5958L164.069 41.5892C163.353 39.1201 163 36.3874 163 33.399V16.7177C163 13.4657 163.351 10.595 164.069 8.11915L164.071 8.11259L164.073 8.10606C164.851 5.56548 166.221 3.56157 168.198 2.14976C170.24 0.679477 173.01 0 176.402 0C179.403 0 181.885 0.559722 183.763 1.77322C185.657 2.97314 187.004 4.69162 187.796 6.89063C188.608 9.0423 189 11.5871 189 14.5013V19.1455H181.069V14.9096C181.069 13.1914 180.975 11.7016 180.792 10.4344L180.79 10.4199L180.788 10.4053C180.653 9.19678 180.259 8.36743 179.685 7.81295C179.171 7.31613 178.177 6.95538 176.459 6.95538C174.726 6.95538 173.663 7.34521 173.062 7.92811L173.054 7.93577L173.046 7.94323C172.39 8.54991 171.906 9.47222 171.663 10.8076C171.444 12.1832 171.332 13.8204 171.332 15.7262V34.4488C171.332 36.7806 171.521 38.5721 171.872 39.8581C172.214 41.0766 172.745 41.8306 173.392 42.2594C174.077 42.7135 175.071 42.9863 176.459 42.9863C178.115 42.9863 179.084 42.6164 179.604 42.0941C180.205 41.4478 180.62 40.5348 180.791 39.2812C180.975 37.9336 181.069 36.3441 181.069 34.5071V30.0962H189V34.5071C189 37.4564 188.647 40.0989 187.926 42.4223L187.924 42.4267C187.183 44.7725 185.891 46.6502 184.042 48.0176L184.036 48.0216L184.031 48.0256C182.14 49.3802 179.561 50 176.402 50C173 50 170.222 49.2776 168.177 47.718L168.173 47.7152ZM180.245 42.7311C179.48 43.5088 178.218 43.8976 176.459 43.8976C174.967 43.8976 173.782 43.606 172.902 43.0228C172.023 42.4395 171.392 41.4674 171.009 40.1064C170.627 38.7066 170.436 36.8207 170.436 34.4488V15.7262C170.436 13.782 170.55 12.0905 170.78 10.6518C171.048 9.1742 171.602 8.04657 172.443 7.26889C173.285 6.45232 174.623 6.04404 176.459 6.04404C178.256 6.04404 179.537 6.41343 180.302 7.15223C181.067 7.89103 181.526 8.9409 181.679 10.3018C181.87 11.6239 181.966 13.1598 181.966 14.9096V18.2342H188.104V14.5013C188.104 11.6628 187.721 9.23253 186.956 7.21056C186.23 5.18859 185.006 3.63323 183.285 2.54447C181.602 1.45572 179.308 0.911344 176.402 0.911344C173.113 0.911344 170.55 1.57237 168.715 2.89443C166.917 4.1776 165.655 6.00515 164.929 8.37708C164.24 10.749 163.896 13.5292 163.896 16.7177V33.399C163.896 36.3153 164.24 38.9594 164.929 41.3313C165.655 43.7032 166.917 45.5891 168.715 46.9889C170.55 48.3887 173.113 49.0887 176.402 49.0887C179.461 49.0887 181.832 48.486 183.515 47.2806C185.197 46.0363 186.383 44.3254 187.071 42.1479C187.76 39.9315 188.104 37.3846 188.104 34.5071V31.0076H181.966V34.5071C181.966 36.3736 181.87 38.0067 181.679 39.4065C181.488 40.8064 181.01 41.9146 180.245 42.7311Z" fill="white"/>
<path fill-rule="evenodd" clip-rule="evenodd" d="M119.293 42.2201L119.292 42.2156C118.423 39.7645 118 36.9368 118 33.7489V15.8428C118 12.6567 118.423 9.88068 119.297 7.53709L119.298 7.533L119.3 7.52893C120.23 5.10715 121.729 3.23009 123.804 1.94784C125.929 0.620504 128.698 0 132.03 0C135.361 0 138.115 0.620392 140.205 1.95389C142.271 3.27216 143.75 5.14435 144.642 7.53034C145.557 9.87693 146 12.6556 146 15.8428V33.8072C146 36.9587 145.556 39.7519 144.645 42.1688C143.758 44.6261 142.287 46.5743 140.227 47.9732L140.222 47.9769L140.217 47.9805C138.124 49.3584 135.366 50 132.03 50C128.692 50 125.918 49.3579 123.791 47.9853C121.681 46.6241 120.182 44.6881 119.293 42.2201ZM136.979 10.2281L136.978 10.2249C136.704 9.10877 136.196 8.33793 135.496 7.82679L135.486 7.81933L135.476 7.81159C134.8 7.28897 133.7 6.95538 132.03 6.95538C130.363 6.95538 129.232 7.2874 128.509 7.82298L128.504 7.8268C127.804 8.33793 127.296 9.10877 127.022 10.2249L127.021 10.2281L127.02 10.2312C126.729 11.3825 126.576 12.801 126.576 14.5013V35.2071C126.576 36.9044 126.729 38.3668 127.023 39.6036C127.296 40.7126 127.805 41.5365 128.526 42.1312C129.25 42.6595 130.376 42.9863 132.03 42.9863C133.692 42.9863 134.79 42.6558 135.466 42.1373C136.191 41.5421 136.703 40.7164 136.977 39.6036C137.271 38.3668 137.424 36.9044 137.424 35.2071V14.5013C137.424 12.801 137.271 11.3825 136.98 10.2312L136.979 10.2281ZM137.875 39.8148C137.56 41.098 136.95 42.109 136.044 42.8478C135.139 43.5477 133.801 43.8976 132.03 43.8976C130.258 43.8976 128.9 43.5477 127.956 42.8478C127.05 42.109 126.44 41.098 126.125 39.8148C125.811 38.4928 125.653 36.9568 125.653 35.2071V14.5013C125.653 12.7515 125.811 11.2545 126.125 10.0102C126.44 8.72704 127.05 7.75494 127.956 7.09391C128.9 6.39399 130.258 6.04404 132.03 6.04404C133.801 6.04404 135.139 6.39399 136.044 7.09391C136.95 7.75494 137.56 8.72704 137.875 10.0102C138.189 11.2545 138.347 12.7515 138.347 14.5013V35.2071C138.347 36.9568 138.189 38.4928 137.875 39.8148ZM124.295 47.2222C126.224 48.4665 128.802 49.0887 132.03 49.0887C135.257 49.0887 137.816 48.4665 139.705 47.2222C141.594 45.9391 142.952 44.1504 143.779 41.8562C144.645 39.5621 145.077 36.8791 145.077 33.8072V15.8428C145.077 12.7321 144.645 10.0685 143.779 7.85215C142.952 5.63575 141.594 3.92486 139.705 2.71945C137.816 1.51405 135.257 0.911344 132.03 0.911344C128.802 0.911344 126.224 1.51405 124.295 2.71945C122.406 3.88597 121.028 5.59687 120.162 7.85215C119.336 10.0685 118.923 12.7321 118.923 15.8428V33.7489C118.923 36.8596 119.336 39.5815 120.162 41.9146C120.989 44.2087 122.367 45.9779 124.295 47.2222Z" fill="white"/>
<path fill-rule="evenodd" clip-rule="evenodd" d="M87 49V0H94.596V29.0935L106.808 0H113V49H105.462V19.4845L93.371 49H87ZM106.366 14.8893V48.0899H112.096V0.910104H107.408L93.6917 33.5865V0.910104H87.9043V48.0899H92.7657L106.366 14.8893Z" fill="white"/>
<path fill-rule="evenodd" clip-rule="evenodd" d="M58 49V0H66.3056V19.2123L75.5528 0H83.5501L73.9275 21.7199L85 49H76.7199L68.2771 28.0611L66.3056 31.6663V49H58ZM65.4059 31.4314L68.4 25.9562L77.3245 48.0899H83.6581L72.9486 21.7042L82.161 0.910104H76.1154L65.4059 23.1603V0.910104H58.8996V48.0899H65.4059V31.4314Z" fill="white"/>
<path fill-rule="evenodd" clip-rule="evenodd" d="M27.2933 42.2201L27.2916 42.2156C26.4232 39.7645 26 36.9368 26 33.7489V15.8428C26 12.6567 26.4227 9.88068 27.2967 7.53709L27.2983 7.533L27.2998 7.52893C28.2296 5.10727 29.7284 3.23028 31.804 1.94804C33.9291 0.620564 36.6974 0 40.0295 0C43.3611 0 46.1152 0.620392 48.2053 1.95389C50.2715 3.2722 51.7505 5.14445 52.6418 7.53055C53.5574 9.87709 54 12.6557 54 15.8428V33.8072C54 36.9584 53.5565 39.7514 52.6454 42.1681C51.7586 44.6258 50.2873 46.5742 48.2274 47.9732L48.222 47.9769L48.2165 47.9805C46.1243 49.3584 43.3657 50 40.0295 50C36.6919 50 33.9183 49.3579 31.7908 47.9853C29.681 46.6241 28.1824 44.6881 27.2933 42.2201ZM51.7786 41.8562C52.6445 39.5621 53.0775 36.8791 53.0775 33.8072V15.8428C53.0775 12.7321 52.6445 10.0685 51.7786 7.85215C50.952 5.63575 49.5941 3.92486 47.7048 2.71945C45.8155 1.51405 43.2571 0.911344 40.0295 0.911344C36.802 0.911344 34.2239 1.51405 32.2952 2.71945C30.4059 3.88597 29.0283 5.59687 28.1624 7.85215C27.3358 10.0685 26.9225 12.7321 26.9225 15.8428V33.7489C26.9225 36.8596 27.3358 39.5815 28.1624 41.9146C28.9889 44.2087 30.3665 45.9779 32.2952 47.2222C34.2239 48.4665 36.802 49.0887 40.0295 49.0887C43.2571 49.0887 45.8155 48.4665 47.7048 47.2222C49.5941 45.9391 50.952 44.1504 51.7786 41.8562ZM44.9788 10.2281L44.978 10.2249C44.7041 9.10877 44.196 8.33793 43.4959 7.82679L43.4857 7.81933L43.4757 7.81159C42.7998 7.28897 41.7 6.95538 40.0295 6.95538C38.363 6.95538 37.2321 7.2874 36.5092 7.82298L36.5041 7.8268C35.804 8.33793 35.2959 9.10877 35.022 10.2249L35.0212 10.2281L35.0204 10.2312C34.7291 11.3825 34.5756 12.801 34.5756 14.5013V35.2071C34.5756 36.9042 34.7285 38.3664 35.0227 39.6031C35.2955 40.7124 35.8051 41.5364 36.5263 42.1312C37.2498 42.6595 38.3761 42.9863 40.0295 42.9863C41.6923 42.9863 42.7896 42.6558 43.4663 42.1373C44.1915 41.5419 44.7037 40.716 44.9774 39.6027C45.2715 38.3661 45.4244 36.904 45.4244 35.2071V14.5013C45.4244 12.801 45.2709 11.3825 44.9796 10.2312L44.9788 10.2281ZM45.8745 39.8148C45.5597 41.098 44.9496 42.109 44.0443 42.8478C43.139 43.5477 41.8007 43.8976 40.0295 43.8976C38.2583 43.8976 36.9004 43.5477 35.9557 42.8478C35.0504 42.109 34.4403 41.098 34.1255 39.8148C33.8106 38.4928 33.6531 36.9568 33.6531 35.2071V14.5013C33.6531 12.7515 33.8106 11.2545 34.1255 10.0102C34.4403 8.72704 35.0504 7.75494 35.9557 7.09391C36.9004 6.39399 38.2583 6.04404 40.0295 6.04404C41.8007 6.04404 43.139 6.39399 44.0443 7.09391C44.9496 7.75494 45.5597 8.72704 45.8745 10.0102C46.1894 11.2545 46.3469 12.7515 46.3469 14.5013V35.2071C46.3469 36.9568 46.1894 38.4928 45.8745 39.8148Z" fill="white"/>
<path fill-rule="evenodd" clip-rule="evenodd" d="M7.93724 49V6.71293H0V0H24V6.71293H16.2945V49H7.93724ZM15.3893 5.80283H23.0947V0.910104H0.90525V5.80283H8.84249V48.0899H15.3893V5.80283Z" fill="white"/>
</svg>
