<svg width="779" height="646" viewBox="0 0 779 646" fill="none" xmlns="http://www.w3.org/2000/svg">
<path d="M104.932 104.848H779V0C519.335 0 259.665 0 0 0C0 145.408 0 290.816 0 436.223H140.815L208.806 300.347L276.15 436.223C331.412 436.223 386.678 436.223 441.944 436.223H441.988V281.603C467.773 333.13 493.558 384.657 519.347 436.223H596.705C622.49 384.657 648.275 333.13 674.064 281.603C674.064 368.106 674.064 454.569 674.064 541.032H0.00399537V645.88C259.669 645.92 519.331 645.96 778.996 646C778.996 500.592 778.996 355.184 778.996 209.777H613.202L545.858 345.653L477.867 209.777C430.928 209.777 383.992 209.777 337.052 209.777H337.012V364.397C311.223 312.87 285.438 261.343 259.653 209.777H182.295L104.932 364.397C104.932 277.894 104.932 191.351 104.932 104.848Z" fill="white" fill-opacity="0.03"/>
</svg>
