<svg width="98" height="37" viewBox="0 0 98 37" fill="none" xmlns="http://www.w3.org/2000/svg">
<g id="&#208;&#187;&#208;&#190;&#208;&#179;&#208;&#190;">
<g id="Vector">
<path d="M36.8204 15.4237L39.421 19.9984H34.2193L36.8204 15.4237ZM41.0743 22.9285L42.2449 24.9823H48.4314L41.0561 12.0148H34.4795L27.1042 24.9823H31.3768L32.5474 22.9285H41.0743Z" fill="white"/>
<path d="M61.7775 17.8712H56.2964V15.0145H61.9258C62.762 15.0145 63.2818 15.609 63.2818 16.4429C63.2818 17.2767 62.6141 17.8712 61.7775 17.8712ZM69.301 16.4429C69.301 13.9606 67.6097 12.0148 65.1028 12.0148H50.2776V24.9823H56.2964V20.8709H59.9566L63.1154 24.9823H69.1528L65.8821 20.7396C67.8513 20.2609 69.301 18.5545 69.301 16.4429Z" fill="white"/>
<path d="M88.489 12.0148L84.6257 19.7976L80.7236 12.0148H72.6418V24.9823H78.661V16.1263L83.1008 24.9823H87.5406L91.9804 16.1263C91.9804 21.0831 91.9804 26.0362 91.9781 30.9892L0 30.993V37C32.6668 37 65.3328 37 98 37C98 28.669 98 20.3419 98 12.0148C94.8295 12.0148 91.6591 12.0148 88.489 12.0148Z" fill="white"/>
<path d="M6.02168 0C4.01445 0 2.00723 0 0 0C0 8.32873 0 16.6575 0 24.9822H8.08139L11.9826 17.2043L15.8468 24.9822C19.0174 24.9822 22.188 24.9822 25.3586 24.9822V12.0151C23.3522 12.0151 21.3457 12.0151 19.3393 12.0151V20.871L14.8996 12.0151H10.4594L6.01933 20.871C6.02012 15.9139 6.02089 10.9607 6.02168 6.00359C36.6812 6.00359 67.3408 6.00359 98 6.00359V0C67.3408 0 36.6812 0 6.02168 0Z" fill="white"/>
</g>
</g>
</svg>
