<svg width="218" height="50" viewBox="0 0 218 50" fill="none" xmlns="http://www.w3.org/2000/svg">
<g id="Group">
<g id="Vector">
<path d="M18.5249 0.745366C17.5605 0.948412 16.0124 1.45603 15.0987 1.8875C13.0684 2.87735 10.1244 5.08547 9.00771 6.43064C8.57626 6.96364 7.96716 7.6743 7.68799 8.00425C7.00276 8.79105 5.20083 12.5982 4.79477 14.1718C4.31256 15.9484 4.33794 21.5576 4.82015 23.4611C5.50538 26.0753 7.33268 29.2987 9.21074 31.2276C11.6725 33.7657 12.2562 34.1971 14.8957 35.4662C23.3723 39.5271 33.8793 36.6845 38.8029 28.9433C40.3256 26.5576 41.0108 24.9332 41.3915 22.852C42.9397 14.0195 39.615 6.76059 32.0012 2.39511C28.7019 0.51694 23.1947 -0.16834 18.5249 0.745366ZM25.758 1.07532C28.0928 1.32912 32.0266 2.95349 33.9554 4.47633C36.0873 6.15146 36.1634 6.25298 37.3055 7.69968C41.2646 12.8266 42.2544 19.654 39.8434 25.3393C38.2445 29.0956 36.1888 31.6845 33.2956 33.5626C23.5246 39.9078 10.4797 35.9484 6.36828 25.39C4.61711 20.9484 4.49022 17.522 5.93683 13.2834C7.84027 7.64892 11.1903 4.2479 17.1798 1.83674C19.2355 0.999173 22.3825 0.719985 25.758 1.07532Z" fill="#183475"/>
<path d="M20.809 9.57785C19.0325 10.0093 17.9919 10.6185 16.4184 12.1159C14.8703 13.5626 14.4389 14.2733 13.9313 16.253C12.5354 21.6591 15.6571 26.8114 20.9867 27.9281C22.5348 28.2581 23.1439 28.2581 24.7428 27.9789C26.9508 27.6235 27.5091 27.3951 29.2603 25.9992C30.2247 25.2124 30.783 24.5017 31.5698 22.9027C32.5342 20.9992 32.6103 20.6946 32.6103 18.7657C32.6103 16.9383 32.5088 16.4814 31.7474 14.9332C30.377 12.0398 28.1944 10.2631 25.2758 9.57785C23.55 9.17176 22.4841 9.17176 20.809 9.57785ZM27.0777 10.9484C30.0724 12.4205 31.849 15.3393 31.849 18.7403C31.849 22.2428 30.2247 24.9078 27.0523 26.5322C25.3519 27.4205 25.0473 27.4966 23.0932 27.4966C21.1643 27.4966 20.8344 27.4205 19.1594 26.5575C17.129 25.5169 15.9362 24.2987 14.9464 22.2428C14.3627 21.0499 14.2866 20.6946 14.3881 18.4357C14.4642 15.9484 14.4642 15.9484 15.6571 14.121C17.5351 11.253 19.9715 9.95856 23.3469 10.0601C25.0727 10.1108 25.6564 10.2378 27.0777 10.9484Z" fill="#183475"/>
<path d="M100.779 17.522C100.728 17.5728 100.297 17.6743 99.8144 17.7251C99.3576 17.7758 98.6977 17.8773 98.3424 17.9789C97.9871 18.055 97.581 18.1565 97.4034 18.2073C97.2257 18.2327 96.9973 18.3342 96.9212 18.4357C96.8196 18.5372 96.5151 18.6134 96.2359 18.6134C95.3984 18.6134 91.9468 20.6692 90.5256 22.0144C86.1858 26.1007 84.6884 33.4357 86.9725 39.6794C87.607 41.4306 88.2415 42.4713 89.6881 44.0956C92.023 46.786 96.0583 48.9687 99.6367 49.5017C101.413 49.7809 106.54 49.654 107.225 49.3494C107.301 49.2987 107.58 49.2479 107.86 49.2225C108.9 49.0956 111.007 48.2581 112.174 47.522C113.976 46.3799 115.6 44.9586 115.6 44.5017C115.6 43.9433 110.981 39.4256 110.423 39.4256C110.144 39.4256 109.585 39.7048 109.154 40.0093C107.631 41.1768 105.652 41.7098 102.936 41.7098C100.297 41.7098 99.3576 41.456 97.581 40.2885C96.4643 39.5525 95.2208 37.8773 95.0939 36.9636C95.0431 36.456 95.0939 36.3545 95.5253 36.5068C95.7791 36.5829 96.3882 36.7098 96.845 36.786C97.3272 36.8621 98.0632 36.989 98.4693 37.0398C100.068 37.319 107.098 37.1921 107.098 36.8875C107.098 36.8621 107.428 36.786 107.834 36.7352C109.687 36.5322 113.138 34.5271 114.458 32.9281C116.945 29.9078 117.021 24.8317 114.61 21.9636C113.443 20.5423 110.702 18.6134 109.89 18.6134C109.585 18.6134 109.255 18.5372 109.154 18.4357C109.002 18.2581 108.646 18.1565 107.606 18.0042C107.327 17.9535 107.047 17.8773 106.971 17.852C106.565 17.6235 100.982 17.319 100.779 17.522ZM107.225 18.8418C113.341 19.9586 116.768 24.6286 115.194 29.6794C114.839 30.8723 114.433 31.4814 113.189 32.6997C111.438 34.451 110.042 35.187 107.124 35.923C105.398 36.3545 104.586 36.4306 101.54 36.3037C99.1038 36.2022 97.3526 35.9992 96.0837 35.6438C94.1295 35.1109 93.7741 35.1362 93.7741 35.7707C93.7741 36.5829 95.0939 39.324 95.8806 40.1362C98.6977 43.0804 105.22 43.5119 109.484 41.0246L110.601 40.39L112.656 42.4459L114.712 44.5271L113.951 45.1616C112.326 46.5068 110.905 47.2936 108.926 47.9789C107.047 48.6134 106.514 48.6895 103.291 48.6895C100.246 48.6895 99.4591 48.6134 97.7587 48.0804C96.6674 47.7504 95.7283 47.3697 95.6522 47.2428C95.5761 47.1413 95.3223 47.0398 95.0685 47.0398C94.4848 47.0398 91.5662 44.9332 90.4241 43.6388C89.4343 42.5728 88.0385 40.2124 87.4801 38.6895C87.0233 37.4459 86.8203 32.4966 87.1248 30.3139C87.607 26.9129 89.815 23.4865 92.962 21.2022C94.2563 20.2885 97.0734 19.1718 99.2307 18.7149C101.007 18.3596 104.839 18.4103 107.225 18.8418Z" fill="#183475"/>
<path d="M101.007 24.3748C99.9667 24.6032 98.1901 25.3393 97.3018 25.8723C95.4999 26.989 93.698 29.8063 94.1041 30.8469C94.2817 31.3799 98.317 32.0652 101.033 32.0652C103.824 32.0652 105.804 31.5322 106.895 30.4916C108.063 29.3748 108.393 28.4611 108.012 27.2682C107.403 25.187 103.875 23.7149 101.007 24.3748ZM104.611 25.5677C105.652 25.7961 106.692 26.4814 106.87 27.0398C107.377 28.6134 106.895 29.7809 105.398 30.4916C104.408 30.9738 103.926 30.9992 100.627 30.923C96.5659 30.8469 96.1598 30.7961 95.4492 30.39C94.967 30.1108 94.9923 30.0601 95.6014 28.9941C96.7689 27.0144 98.4439 25.8469 100.398 25.6185C100.804 25.5677 101.21 25.4916 101.261 25.4408C101.388 25.2885 103.875 25.39 104.611 25.5677Z" fill="#183475"/>
<path d="M193.92 17.522C193.895 17.5728 193.464 17.6489 192.981 17.6997C192.499 17.7758 191.789 18.0042 191.357 18.2073C190.951 18.4357 190.418 18.6134 190.19 18.6134C189.987 18.6134 188.997 19.1718 188.032 19.8824C181.104 24.7301 178.871 33.5372 182.627 41.1515C184.835 45.6185 189.225 48.9687 193.616 49.5017C195.494 49.7555 198.742 49.654 199.225 49.3748C199.377 49.2733 199.758 49.1718 200.087 49.121C200.976 48.9941 202.575 48.1312 204.123 46.9636L205.468 45.9484L206.585 47.2174C207.219 47.9281 208.107 48.6388 208.539 48.8164C208.996 48.9941 209.605 49.2225 209.884 49.324C211.457 49.9332 215.848 49.6286 217.421 48.7911C217.828 48.5626 217.878 48.1819 217.878 45.1109V41.6591L216.254 41.8367C214.807 41.989 214.579 41.9636 214.097 41.4814C213.564 40.9484 213.564 40.7961 213.564 29.7809C213.564 19.0195 213.538 18.6134 213.082 18.3596C212.371 17.9789 205.62 18.0296 205.239 18.4103C205.062 18.588 204.935 19.0956 204.935 19.5525C204.935 20.5931 204.757 20.5931 203.564 19.654C203.031 19.2225 202.194 18.7657 201.686 18.588C201.179 18.4357 200.646 18.2327 200.494 18.1312C200.367 18.055 200.062 17.9535 199.859 17.9027C199.656 17.8773 199.199 17.7758 198.844 17.6997C198.184 17.5728 194.022 17.4205 193.92 17.522ZM200.367 19.0956C201.839 19.6286 203.793 20.8723 204.605 21.8621C204.757 22.0398 205.113 22.1667 205.366 22.1159C205.722 22.0398 205.849 21.7606 205.899 20.5677L205.975 19.121H212.549V29.5779C212.549 35.8723 212.65 40.4408 212.802 40.9738C213.158 42.2428 214.097 42.8266 215.797 42.8012H217.117V47.9789L216.127 48.2581C211.99 49.5017 208.006 48.4103 206.661 45.6438C206.356 45.0093 205.975 44.5017 205.823 44.5017C205.671 44.5017 204.935 45.0855 204.174 45.7707C203.209 46.6845 202.194 47.2936 200.747 47.852C198.92 48.588 198.438 48.6642 196.052 48.6642C192.245 48.6642 190.063 47.9027 187.195 45.4916C185.799 44.3494 185.114 43.5372 183.997 41.7352C183.87 41.5068 183.566 41.0499 183.337 40.6946C182.601 39.5779 181.84 35.923 181.84 33.588C181.84 26.6083 186.078 20.6438 192.347 18.8418C194.504 18.2073 198.133 18.3342 200.367 19.0956Z" fill="#183475"/>
<path d="M193.946 25.4154C192.144 26.0499 190.469 27.6489 189.454 29.6794C188.641 31.253 188.565 31.5829 188.591 33.5626C188.591 35.5169 188.692 35.923 189.428 37.3951C190.367 39.2733 192.347 41.2784 193.717 41.7606C194.276 41.9636 195.798 42.0905 197.448 42.0905C200.773 42.0652 201.636 41.7606 203.539 39.8063C205.544 37.7758 205.95 36.6845 205.95 33.588C205.95 30.39 205.519 29.324 203.438 27.2428C202.372 26.1768 201.661 25.72 200.595 25.39C198.768 24.8317 195.57 24.8317 193.946 25.4154ZM200.037 26.1007C201.712 26.6083 203.463 28.1565 204.326 29.9078C204.884 31.0753 204.986 31.6337 204.986 33.2834C204.96 36.0753 204.859 36.4814 203.818 38.0296C200.976 42.319 194.25 42.5982 191.256 38.588C189.758 36.5829 189.327 34.6032 189.784 31.6845C190.418 27.319 195.265 24.6794 200.037 26.1007Z" fill="#183475"/>
<path d="M56.8982 18.4103C56.5429 18.6895 56.4668 19.7048 56.3399 26.1007C56.1368 36.2276 55.9084 38.5372 55.0963 40.1616C54.4618 41.3799 53.9035 41.6845 52.1523 41.7606L50.5027 41.8367L50.4265 45.3393C50.3504 48.8164 50.3504 48.8164 50.9849 49.0449C51.3148 49.1718 52.7614 49.2479 54.208 49.2225C56.5683 49.1464 56.9997 49.0702 58.3702 48.3596C62.7608 46.1515 64.3851 41.7352 64.7657 30.9738L64.918 26.4814H73.4708V37.522C73.4708 48.1565 73.4962 48.5626 73.953 48.8164C74.6636 49.1971 81.6683 49.1464 82.049 48.7657C82.2774 48.5372 82.3535 44.8317 82.3535 33.6895C82.3535 20.5931 82.3028 18.8672 81.9474 18.5119C81.5921 18.1565 80.1201 18.1058 69.4355 18.1058C60.1467 18.1058 57.2281 18.1819 56.8982 18.4103ZM81.3383 47.8012H74.486V25.72H69.3086C64.8165 25.72 64.1059 25.7707 63.979 26.1261C63.9029 26.3545 63.8267 28.4865 63.8267 30.8723C63.8267 38.6642 62.5578 43.7657 60.0452 46.2022C58.5225 47.6743 54.7156 48.7657 52.4061 48.3596L51.264 48.1565L51.1118 42.7251H52.2792C54.7917 42.7251 55.7054 41.7098 56.619 38.055C56.949 36.6591 57.4312 27.3951 57.4566 21.0753L57.4819 19.121H81.3383V47.8012Z" fill="#183475"/>
<path d="M120.473 18.4103C120.245 18.6388 120.168 22.3951 120.168 33.7403C120.168 47.1921 120.219 48.7657 120.575 48.918C120.803 48.9941 122.605 49.0702 124.584 49.0702C127.782 49.0702 128.264 49.0195 128.62 48.6134C129 48.2073 129.051 47.4205 129.051 42.7758V37.3951H141.233V42.7504C141.233 45.9484 141.335 48.2834 141.487 48.588C141.741 49.0195 142.071 49.0702 145.446 49.0702C147.502 49.0702 149.355 48.9433 149.634 48.8164C150.091 48.5626 150.116 48.1058 150.116 33.588C150.116 19.0702 150.091 18.6134 149.634 18.3596C149.355 18.2327 147.553 18.1058 145.573 18.1058C142.68 18.1058 141.969 18.1819 141.639 18.5119C141.284 18.8418 141.233 19.7048 141.233 24.0956V29.2733H129.051V24.121C129.051 19.4256 129 18.918 128.594 18.5372C128.188 18.1819 127.503 18.1058 124.458 18.1058C121.92 18.1058 120.676 18.2073 120.473 18.4103ZM127.833 24.5017L127.909 29.9078L134.863 29.9839C139.761 30.0347 141.918 29.9586 142.147 29.7555C142.426 29.5271 142.502 28.3596 142.502 24.2987V19.121H149.101V47.8012H142.502V42.3444C142.502 37.2174 142.477 36.8875 142.02 36.6337C141.284 36.253 128.493 36.2784 128.087 36.6845C127.858 36.9129 127.782 38.5372 127.782 42.3951V47.8012H121.184V19.121H127.782L127.833 24.5017Z" fill="#183475"/>
<path d="M153.035 18.5119C152.705 18.8418 152.654 19.5017 152.705 22.6235L152.781 26.3545L157.552 26.4306L162.298 26.4814V37.4713C162.298 45.6692 162.374 48.5372 162.602 48.7657C163.034 49.1971 170.191 49.1971 170.622 48.7657C170.851 48.5372 170.927 45.6692 170.927 37.4713V26.4814L175.698 26.4306L180.444 26.3545L180.52 22.5474C180.571 19.1971 180.546 18.7149 180.139 18.4357C179.81 18.1819 176.713 18.1058 166.587 18.1058C154.887 18.1058 153.415 18.1565 153.035 18.5119ZM179.556 25.72L174.937 25.7707L170.292 25.8469L170.216 36.8114L170.165 47.8012H163.313L163.262 36.8114L163.186 25.8469L158.44 25.7707L153.669 25.72V19.121H179.556V25.72Z" fill="#183475"/>
<path d="M0.125 34.3494C0.125 34.857 1.64775 37.6489 1.92692 37.6489C2.05382 37.6489 2.12995 37.7504 2.02844 37.8773C1.85078 38.2073 4.54098 41.5576 6.19062 43.0296C8.0433 44.7048 10.5305 46.3037 13.0176 47.4205C16.3931 48.918 17.7635 49.2225 20.9359 49.1718C22.1795 49.1464 22.6109 49.1971 22.2049 49.324C21.7227 49.4763 21.9257 49.5271 22.9663 49.5271C24.1083 49.5271 24.2098 49.4763 23.6007 49.324C23.0678 49.1971 23.4231 49.1464 24.7428 49.1464C27.4584 49.1718 28.4989 48.9687 30.7577 47.9281C34.3869 46.253 37.5593 43.3596 39.5642 39.857C39.9449 39.1971 40.1733 38.5372 40.0972 38.4103C39.8688 38.0296 37.2547 38.1058 35.7827 38.5119C34.0316 38.9941 31.2145 40.1109 30.377 40.6185C27.9152 42.1667 25.1489 44.8824 23.9053 46.9636L23.1185 48.2581L22.4079 47.1413C22.0272 46.5068 21.6973 45.923 21.6973 45.8469C21.6973 45.4662 19.4386 42.6997 17.7889 41.0753C15.8855 39.1971 14.1089 37.9281 11.7994 36.7606C9.84522 35.7707 7.25655 34.8317 6.216 34.7301C5.7338 34.654 4.64249 34.5017 3.80498 34.3494C1.85078 34.0195 0.125 34.0195 0.125 34.3494ZM7.99254 35.9992C12.2309 37.4713 14.9718 39.2225 18.1188 42.4713C20.3522 44.7809 22.5856 48.2581 22.1034 48.7403C21.8242 49.0449 18.195 48.385 15.5809 47.5728C10.4543 45.9992 5.96221 42.6743 2.99285 38.2834C1.9523 36.7352 1.14017 35.2631 1.14017 34.9586C1.14017 34.857 2.0792 34.857 3.24664 34.9332C4.71863 35.0347 6.11448 35.3393 7.99254 35.9992ZM38.9551 39.2479C38.9551 39.7301 37.5847 41.7352 36.2649 43.2073C33.9554 45.7961 29.108 48.2327 25.428 48.6895C23.55 48.918 23.55 48.6388 25.3519 46.2022C26.9254 44.0956 28.4482 42.7251 30.9607 41.253C33.8032 39.6032 38.9551 38.3088 38.9551 39.2479Z" fill="#183475"/>
</g>
</g>
</svg>
