<svg width="500" height="110" viewBox="0 0 500 110" fill="none" xmlns="http://www.w3.org/2000/svg">
<path d="M230.259 14.5794C230.246 14.6269 230.239 21.3696 230.252 29.5655C230.272 45.998 230.239 44.6603 230.678 46.677C231.597 50.9346 233.774 54.7846 237.25 58.3224C239.68 60.7941 242.483 62.8719 245.925 64.7596C247.376 65.5608 249.726 66.6405 250.012 66.6405C250.219 66.6405 251.73 65.9547 253.168 65.2145C256.111 63.6935 258.468 62.1317 260.958 60.0607C261.943 59.2391 264.054 57.1273 264.799 56.2174C267.536 52.863 269.054 49.5358 269.626 45.6245C269.739 44.8572 269.746 43.8998 269.746 29.6674V14.525L250.019 14.5047C234.087 14.4911 230.286 14.5047 230.259 14.5794ZM267.715 30.5026C267.715 45.2103 267.722 45.0134 267.416 46.5073C266.058 53.1618 260.532 59.1712 251.63 63.6596L250.026 64.4744L249.2 64.0941C247.389 63.2589 245.299 62.0638 243.548 60.862C241.537 59.4835 239.986 58.1798 238.455 56.5841C235.046 53.0192 233.035 49.1283 232.423 44.8912C232.303 44.0288 232.296 43.4924 232.296 30.2921V16.5961H267.715V30.5026Z" fill="white"/>
<path d="M234.061 44.4023L234.207 45.1492C234.287 45.5566 234.46 46.2764 234.587 46.7449C235.878 51.5593 239.447 56.0341 244.879 59.6601C246.837 60.9706 249.786 62.5527 250.086 62.4577C250.172 62.4305 250.692 62.1861 251.237 61.9009C255.059 59.9588 258.335 57.5754 260.865 54.9137C263.608 52.021 265.145 49.2438 265.805 45.9776C265.944 45.2918 265.944 45.1968 265.964 31.8199L265.984 18.3615H234.027L234.061 44.4023ZM238.674 35.5885C238.681 43.927 238.668 50.7512 238.641 50.7512C238.581 50.7512 238.574 50.7376 237.982 49.6987C237.29 48.4765 236.644 46.7925 236.351 45.4208C236.018 43.8998 236.025 44.2054 236.025 31.9693C236.025 25.6543 236.045 20.4665 236.071 20.4394C236.098 20.419 236.69 20.4054 237.383 20.4122L238.654 20.4326L238.674 35.5885ZM263.954 20.4869C263.974 20.5344 263.98 21.4647 263.974 22.5511L263.954 24.5339L263.454 23.8413C262.809 22.945 261.544 21.6548 260.658 20.9826C260.272 20.6906 259.946 20.4394 259.932 20.4258C259.919 20.4122 260.811 20.3986 261.916 20.3986C263.468 20.3986 263.934 20.419 263.954 20.4869ZM253.541 20.6091C257.442 21.0097 260.811 23.366 262.582 26.9173C263.947 29.6538 264.193 32.7909 263.275 35.7107C261.943 39.9343 258.348 43.0307 254.067 43.6554C253.501 43.7368 252.456 43.7572 248.528 43.7572H243.681V53.0939L244.833 54.0852L245.978 55.0766L245.998 50.6018L246.011 46.1338H248.674V52.8222C248.674 56.5026 248.654 59.5107 248.628 59.5107C248.554 59.5107 247.23 58.7298 246.457 58.2409C244.833 57.1952 243.381 56.0612 241.937 54.7167L241.018 53.8612V41.0343L247.23 41.0411C253.301 41.0547 253.448 41.0479 254.12 40.9121C257.662 40.1652 260.285 37.4898 261.038 33.8434C261.197 33.0489 261.197 31.3242 261.038 30.5026C260.339 26.9445 257.842 24.3234 254.333 23.4339C253.787 23.2981 253.581 23.2913 248.728 23.2709L243.681 23.2438V36.0163H248.228C251.91 36.0163 252.855 35.9959 253.215 35.9144C254.606 35.6157 255.738 34.4953 256.098 33.0625C256.59 31.0865 255.359 28.9748 253.401 28.4451C253.115 28.3636 252.549 28.3433 250.858 28.3433H248.674V33.436H246.011V25.6204L249.759 25.6475C253.408 25.6679 253.514 25.6747 254.034 25.8241C256.231 26.4556 257.882 28.0649 258.548 30.2174C259.686 33.8909 257.449 37.7478 253.701 38.5694C253.301 38.6577 252.336 38.6713 247.23 38.6645C243.921 38.6645 241.171 38.6441 241.118 38.6238C241.031 38.5898 241.018 37.5373 241.018 29.5587V20.5344H246.937C250.612 20.5344 253.115 20.5616 253.541 20.6091ZM263.967 42.2294C263.934 44.4498 263.874 45.0134 263.554 46.2492C263.215 47.5666 262.509 49.1962 261.777 50.3574L261.424 50.921L261.404 46.8536L261.391 42.7862L262.176 41.9646C262.609 41.5096 263.188 40.8374 263.461 40.4707C263.887 39.8867 263.954 39.8188 263.98 39.9614C263.994 40.0497 263.987 41.0683 263.967 42.2294ZM258.994 49.2234V53.9359L258.281 54.5945C256.95 55.8236 255.219 57.1545 253.661 58.1458C252.835 58.6687 251.397 59.5107 251.324 59.5107C251.297 59.5107 251.271 56.5026 251.271 52.8222V46.1338H252.296C252.855 46.1338 253.454 46.1134 253.628 46.0931L253.934 46.0455L253.947 50.5747L253.967 55.1038L255.132 54.0988L256.297 53.0871L256.364 45.577L256.996 45.3461C257.343 45.2171 257.902 44.9795 258.228 44.8165C258.561 44.6467 258.867 44.5109 258.914 44.5109C258.974 44.5041 258.994 45.4887 258.994 49.2234Z" fill="white"/>
<path d="M172.51 72.1746C170.2 72.5616 168.409 73.9876 167.596 76.0858C167.237 77.0093 167.15 77.5525 167.15 78.863C167.157 79.8815 167.177 80.1396 167.31 80.6556C167.623 81.8915 168.062 82.7199 168.821 83.5483C169.96 84.7773 171.518 85.4767 173.315 85.565C175.446 85.6737 177.43 84.8317 178.741 83.2631C179.194 82.7199 179.787 81.5248 179.973 80.7643C180.193 79.8612 180.226 78.1772 180.033 77.2333C179.787 75.9907 179.301 75.0197 178.502 74.1573C177.63 73.2135 176.651 72.6295 175.386 72.3036C174.567 72.0863 173.335 72.032 172.51 72.1746ZM175.106 73.7024C175.958 73.9536 176.598 74.3407 177.243 74.9925C177.729 75.4882 177.869 75.6784 178.122 76.2148C178.568 77.1722 178.661 77.6204 178.661 78.8291C178.661 80.0445 178.568 80.4927 178.116 81.4433C177.863 81.9797 177.716 82.1835 177.243 82.6656C176.338 83.589 175.293 84.0576 173.968 84.1391C171.771 84.2749 169.813 83.0526 169.014 81.0563C168.648 80.1328 168.535 78.5982 168.755 77.5185C169.161 75.495 170.612 74.0283 172.643 73.5937C173.262 73.4647 174.467 73.5123 175.106 73.7024Z" fill="white"/>
<path d="M172.41 74.0419C171.777 74.2116 171.491 74.3407 170.965 74.6938C169.853 75.4475 169.208 76.6086 169.034 78.1636C168.682 81.3347 170.632 83.7452 173.575 83.7588C175.439 83.7656 176.964 82.8761 177.756 81.3279C178.142 80.5674 178.302 79.8408 178.302 78.829C178.302 77.7833 178.182 77.2197 177.796 76.4185C177.357 75.5222 176.717 74.8703 175.839 74.4221C175.492 74.2524 175 74.0623 174.74 74.0079C174.081 73.8653 172.989 73.8857 172.41 74.0419ZM174.434 75.4067C175.552 75.6648 176.518 76.7037 176.764 77.8988C176.871 78.408 176.851 79.3587 176.737 79.8747C176.438 81.1513 175.419 82.1223 174.148 82.326C173.022 82.5094 171.851 82.0341 171.165 81.1242C170.799 80.6285 170.599 80.1192 170.506 79.4198C170.2 77.1586 171.571 75.3456 173.608 75.3388C173.901 75.3388 174.274 75.366 174.434 75.4067Z" fill="white"/>
<path d="M213.954 72.1406C212.276 72.4122 210.738 73.2746 209.793 74.49C207.949 76.8531 207.949 80.805 209.786 83.1612C210.652 84.2681 211.784 84.9878 213.302 85.3885C213.794 85.5243 214.054 85.5446 214.953 85.5446C215.852 85.5446 216.111 85.5243 216.604 85.3885C218.588 84.8656 220.006 83.7316 220.812 82.0341C221.724 80.1056 221.724 77.5525 220.812 75.624C219.986 73.8925 218.415 72.677 216.418 72.2357C215.845 72.1067 214.5 72.0591 213.954 72.1406ZM215.938 73.5937C218.002 74.0011 219.467 75.4746 219.88 77.566C220.039 78.3469 219.986 79.8408 219.786 80.5266C219.101 82.8625 217.057 84.2952 214.633 84.139C213.828 84.0847 213.355 83.9557 212.589 83.5687C212.063 83.3106 211.864 83.1545 211.384 82.6656C210.905 82.1767 210.758 81.9797 210.505 81.4433C210.059 80.513 209.966 80.0513 209.966 78.829C209.966 77.6068 210.059 77.145 210.505 76.2148C211.051 75.0672 212.183 74.0962 213.408 73.7363C214.26 73.4851 215.126 73.4376 215.938 73.5937Z" fill="white"/>
<path d="M213.794 74.0079C213.561 74.0623 213.089 74.2456 212.749 74.4154C211.364 75.1012 210.506 76.4457 210.326 78.2111C210.159 79.868 210.639 81.4162 211.624 82.4279C213.022 83.8471 215.286 84.173 217.183 83.2292C217.849 82.9032 218.715 82.0341 219.067 81.3279C219.474 80.5266 219.6 79.9359 219.6 78.829C219.6 77.2062 219.247 76.2759 218.255 75.2641C217.603 74.6055 217.03 74.2728 216.151 74.0419C215.532 73.8789 214.454 73.8653 213.794 74.0079ZM215.818 75.4339C217.456 75.8753 218.422 77.5932 218.102 79.5217C217.902 80.7032 217.323 81.5384 216.371 82.0137C214.527 82.9304 212.41 81.939 211.897 79.9087C211.751 79.3247 211.757 78.2655 211.917 77.6951C212.217 76.5747 213.122 75.658 214.167 75.4067C214.573 75.3117 215.392 75.3253 215.818 75.4339Z" fill="white"/>
<path d="M237.103 78.4963C235.099 82.9168 234.227 84.9199 234.227 85.0829V85.3138H237.423L237.802 84.4989L238.175 83.6841L240.705 83.6977L243.228 83.7181L243.581 84.4989L243.927 85.2798L245.538 85.3002L247.143 85.3138V85.0761C247.143 84.9064 246.337 83.0594 244.267 78.4895L241.384 72.1406H239.973L237.103 78.4963ZM243.095 78.9988C244.367 81.7828 245.412 84.0847 245.412 84.1119C245.412 84.1458 245.319 84.1594 245.199 84.1458C244.999 84.1255 244.973 84.0847 244.586 83.2224L244.187 82.326H237.216L236.79 83.2427C236.377 84.1323 236.357 84.1594 236.158 84.1594C235.985 84.1594 235.951 84.1391 235.985 84.044C236.011 83.9829 237.05 81.6742 238.302 78.9173C240.033 75.1012 240.598 73.9061 240.678 73.9197C240.745 73.9332 241.61 75.7463 243.095 78.9988Z" fill="white"/>
<path d="M239.034 78.2926C238.142 80.255 237.423 81.8779 237.443 81.8915C237.456 81.9051 238.934 81.9119 240.732 81.9051L243.994 81.8847L242.356 78.3062C241.457 76.3302 240.705 74.7209 240.685 74.7209C240.665 74.7209 239.919 76.3302 239.034 78.2926ZM241.364 79.2229L242.01 80.6624L241.344 80.6828C240.985 80.6896 240.385 80.6896 240.026 80.6828L239.367 80.6624L239.999 79.2161C240.352 78.4284 240.652 77.7766 240.678 77.7766C240.698 77.7766 241.011 78.4284 241.364 79.2229Z" fill="white"/>
<path d="M155 85.3138H158.329V80.3569L158.762 80.3433C159.707 80.3161 159.427 80.0038 160.985 82.8014L162.37 85.2798L164.174 85.3002L165.985 85.3138V85.0286C165.985 84.7638 165.812 84.4514 164.288 81.9322C163.355 80.3908 162.59 79.1074 162.59 79.0803C162.59 79.0531 162.69 78.9716 162.81 78.897C163.149 78.6932 163.935 77.8445 164.181 77.4099C164.74 76.4457 164.987 75.2234 164.987 73.4036V72.2764H161.658V73.1524C161.658 74.6123 161.498 75.4679 161.112 76.0926C160.699 76.7648 159.967 77.1383 158.921 77.213L158.329 77.2537V72.2764H155V85.3138ZM156.864 78.6797L158.149 78.6389C159.134 78.6118 159.547 78.571 159.94 78.4624C161.225 78.1229 162.097 77.4303 162.583 76.3981C162.923 75.6716 163.049 75.1283 163.102 74.2252C163.142 73.4851 163.162 73.4376 163.415 73.5394C163.542 73.5869 163.555 73.8993 163.449 74.7209C163.315 75.8413 162.863 76.887 162.23 77.5593C161.904 77.9124 161.312 78.3401 160.932 78.4963C160.779 78.5574 160.659 78.6118 160.659 78.6253C160.659 78.6389 161.458 79.9698 163.802 83.8674L163.935 84.0915H163.708C163.489 84.0847 163.475 84.0644 161.897 81.4229L160.306 78.7544L159.9 78.8426C159.68 78.8969 158.901 78.9581 158.182 78.9784L156.864 79.0192V84.0915H156.465V73.4987H156.864V78.6797Z" fill="white"/>
<path d="M182.676 72.3172C182.649 72.3443 182.629 75.2777 182.629 78.8426V85.3138H185.892V81.9865H187.317C189.347 81.9865 190.093 81.81 191.032 81.1038C192.183 80.2414 192.816 78.8426 192.816 77.1654C192.816 76.2012 192.669 75.5493 192.277 74.7209C191.897 73.9332 191.138 73.1524 190.419 72.7993C189.467 72.3307 189.407 72.324 185.892 72.2968C184.154 72.2764 182.703 72.29 182.676 72.3172ZM189.187 73.7363C190.845 74.1777 191.777 76.1061 191.285 78.0753C190.938 79.4538 190.04 80.3908 188.828 80.6285C188.628 80.6624 187.576 80.6964 186.484 80.6964H184.494V84.1594H184.094V73.6345H186.444C188.342 73.6345 188.868 73.6548 189.187 73.7363Z" fill="white"/>
<path d="M184.494 80.2958L186.711 80.2754C189.294 80.2482 189.387 80.2279 190.086 79.5624C190.732 78.9581 191.018 78.2043 191.018 77.1111C191.018 76.0926 190.699 75.2642 190.073 74.6734C189.374 74.0283 189.134 73.974 186.578 73.974H184.494V80.2958ZM188.721 75.3932C189.327 75.6716 189.66 76.3778 189.607 77.2605C189.554 78.0618 189.247 78.6253 188.721 78.8698C188.495 78.9784 188.275 78.9988 187.177 78.9988H185.892V75.2642H187.177C188.269 75.2642 188.495 75.2845 188.721 75.3932Z" fill="white"/>
<path d="M195.346 85.3138H198.675V75.4H202.603V85.3138H205.932V72.2764H195.346V85.3138ZM204.467 84.1594H204.067V74.0419H197.143V84.1594H196.811V73.6345H204.467V84.1594Z" fill="white"/>
<path d="M223.974 85.3138H227.236V82.0001L228.887 81.973C230.445 81.9458 230.558 81.9322 231.064 81.7625C231.797 81.518 232.369 81.1513 232.855 80.6285C233.827 79.576 234.32 77.892 234.094 76.3845C233.794 74.3882 232.622 72.9622 230.851 72.4665C230.359 72.324 230.159 72.3172 227.156 72.29L223.974 72.2628V85.3138ZM230.465 73.7363C231.524 74.0215 232.289 74.8432 232.596 76.0179C232.722 76.5 232.722 77.5728 232.596 78.0821C232.263 79.4062 231.344 80.3704 230.179 80.6217C229.966 80.6692 229.034 80.6964 227.802 80.6964H225.772V84.1594H225.372V73.6345H227.722C229.62 73.6345 230.146 73.6548 230.465 73.7363Z" fill="white"/>
<path d="M225.772 80.2889H227.802C229.953 80.2889 230.305 80.255 230.851 79.9698C231.93 79.4198 232.562 77.8648 232.276 76.4592C232.05 75.3456 231.55 74.6258 230.712 74.2252L230.266 74.0079L225.772 73.9672V80.2889ZM230.239 75.5018C231.264 76.2351 231.104 78.4216 229.986 78.9037C229.826 78.9716 229.42 78.9988 228.501 78.9988H227.236V75.2573L229.953 75.2981L230.239 75.5018Z" fill="white"/>
<path d="M248.807 85.3138H257.795V86.8076H260.458V82.4618H259.193V72.2764H255.865V82.2581H252.136V72.2764H248.807V85.3138ZM250.672 83.6162H257.329V73.4987H257.729V83.6162H259.327V85.5854H258.927V83.9557H250.272V73.4987H250.672V83.6162Z" fill="white"/>
<path d="M262.502 72.3172C262.476 72.3443 262.456 75.2777 262.456 78.8426V85.3138H263.075L263.687 85.307L266.85 82.1563C268.587 80.418 270.032 78.9988 270.065 78.9988C270.092 78.9988 270.112 80.418 270.112 82.1563V85.3138H273.441V72.2764H272.236L269.06 75.4475L265.884 78.6253L265.818 72.3104L264.18 72.29C263.281 72.2832 262.529 72.2968 262.502 72.3172ZM264.333 77.8241L264.353 82.1495L267.995 78.5031C270.884 75.6104 271.67 74.8567 271.803 74.8567H271.976V84.0915H271.577L271.563 79.7933L271.543 75.5018L268.494 78.5574C265.006 82.0476 264.227 82.8014 264.087 82.8014C264 82.8014 263.987 82.2174 263.987 78.15V73.4987H264.32L264.333 77.8241Z" fill="white"/>
<path d="M279.979 72.3511C278.9 72.4937 278.075 72.8943 277.369 73.6277C276.49 74.524 276.104 75.529 276.104 76.8938C276.104 78.279 276.49 79.2636 277.402 80.1939L277.935 80.7371L276.69 82.8014C275.731 84.3903 275.438 84.9199 275.438 85.0897V85.3138L277.282 85.3002L279.127 85.2798L281.27 81.5452L282.961 81.5044V85.3138H286.224V72.2764L283.314 72.2832C281.71 72.29 280.212 72.3172 279.979 72.3511ZM284.826 84.1594H284.493L284.479 82.1699L284.459 80.1871L282.396 80.1667L280.332 80.1532L279.167 82.1359C278.048 84.0304 277.988 84.1255 277.782 84.1458C277.662 84.1594 277.569 84.1526 277.569 84.1391C277.569 84.1187 277.955 83.4668 278.428 82.6791C279.433 81.0155 279.926 80.1532 279.892 80.126C279.879 80.1192 279.719 80.0513 279.533 79.9834C278.78 79.705 278.221 79.1821 277.875 78.4284C276.963 76.4864 277.835 74.2524 279.706 73.7431C279.985 73.6616 280.585 73.6413 282.449 73.6413L284.826 73.6345V84.1594Z" fill="white"/>
<path d="M279.832 74.0826C279.087 74.2863 278.514 74.7956 278.148 75.5901C277.942 76.0247 277.935 76.079 277.935 76.8938C277.935 77.7086 277.942 77.763 278.148 78.1975C278.547 79.0667 279.253 79.6031 280.165 79.7525C280.405 79.7865 281.47 79.8068 282.529 79.8001L284.459 79.7797L284.479 76.8734L284.493 73.974L282.349 73.9808C280.678 73.9808 280.119 74.0079 279.832 74.0826ZM282.961 78.5371L281.65 78.5099C280.398 78.4895 280.318 78.4827 280.052 78.3266C278.987 77.7019 279.087 75.7734 280.212 75.366C280.392 75.2981 280.831 75.2709 281.716 75.2641H282.961V78.5371Z" fill="white"/>
<path d="M324.772 72.4054C323.447 72.6974 322.482 73.2338 321.543 74.2048C320.618 75.1555 320.152 76.0246 319.872 77.3352C319.712 78.0821 319.712 79.7118 319.872 80.4587C320.398 82.8896 322.016 84.6144 324.413 85.2934C325.018 85.4699 325.165 85.4835 326.27 85.4835C327.588 85.4767 328.094 85.3885 329.06 84.9675C330.638 84.2816 331.783 82.8693 332.195 81.097C332.362 80.3568 332.515 80.4247 330.711 80.4247H329.126L328.94 80.8729C328.574 81.7285 327.801 82.3057 326.809 82.4618C325.132 82.7334 323.62 81.6402 323.208 79.8679C322.994 78.9377 323.141 77.6543 323.554 76.8734C324.16 75.7394 325.438 75.1147 326.776 75.3184C327.768 75.4678 328.434 75.916 328.847 76.724L329.066 77.1654H332.242L332.202 76.8598C332.089 76.1061 331.65 75.1079 331.13 74.4357C330.478 73.5869 329.259 72.806 328.068 72.4733C327.302 72.2628 325.578 72.2221 324.772 72.4054ZM327.535 73.7363C328.321 73.9468 329.086 74.3814 329.626 74.9314C329.885 75.203 330.431 75.95 330.431 76.0382C330.431 76.0654 330.345 76.079 330.245 76.079C330.092 76.079 330.005 76.0111 329.799 75.6987C329.033 74.5715 327.795 73.9604 326.27 73.9672C324.053 73.974 322.295 75.3864 321.743 77.6068C321.583 78.2519 321.576 79.542 321.736 80.1871C322.076 81.5655 322.948 82.6859 324.153 83.3038C324.912 83.6909 325.345 83.7859 326.337 83.7792C327.089 83.7792 327.275 83.752 327.741 83.5958C328.034 83.494 328.454 83.297 328.674 83.1544C329.113 82.8625 329.679 82.2649 329.938 81.81C330.085 81.5587 330.145 81.5112 330.311 81.5112C330.558 81.5112 330.544 81.5587 330.125 82.197C329.606 82.9983 328.833 83.5958 327.901 83.915C325.684 84.6755 323.301 83.8538 322.062 81.905C320.964 80.1735 320.964 77.6204 322.062 75.8888C323.028 74.3678 324.692 73.5122 326.503 73.6005C326.849 73.6209 327.315 73.682 327.535 73.7363Z" fill="white"/>
<path d="M295.744 85.3817H299.007V82.0544H300.525C301.823 82.0544 302.122 82.034 302.562 81.9186C303.427 81.6945 303.9 81.4229 304.533 80.7711C305.178 80.1124 305.498 79.542 305.738 78.6185C305.937 77.8716 305.937 76.6018 305.744 75.8549C305.398 74.5444 304.539 73.4308 303.467 72.8943C302.535 72.4326 302.382 72.4122 298.86 72.4122H295.744V85.3817ZM302.089 73.8042C303.547 74.1166 304.459 75.4067 304.466 77.1382C304.466 78.6253 303.767 79.8951 302.615 80.4723L302.109 80.7303L297.542 80.7711V84.2273H297.142V73.7024H299.393C301.084 73.7024 301.75 73.7295 302.089 73.8042Z" fill="white"/>
<path d="M297.542 80.3636L299.792 80.3433C301.956 80.3229 302.049 80.3161 302.415 80.1667C303.6 79.6778 304.306 78.1432 304.047 76.6086C303.814 75.2234 302.988 74.3135 301.796 74.1098C301.563 74.0758 300.511 74.0419 299.459 74.0419H297.542V80.3636ZM301.81 75.4678C302.722 75.9432 302.968 77.5049 302.302 78.5371C301.996 79.0124 301.79 79.0667 300.305 79.0667H299.007V75.4067L299.326 75.3796C299.939 75.3185 301.643 75.3796 301.81 75.4678Z" fill="white"/>
<path d="M306.863 72.6634C306.863 72.8672 307.262 73.6548 308.92 76.724C310.052 78.8155 311.017 80.6081 311.057 80.7032C311.13 80.8729 311.057 81.0495 310.132 82.9983C309.579 84.1594 309.126 85.1712 309.126 85.2459C309.126 85.3749 309.18 85.3817 310.911 85.3817H312.688L315.704 79.1414C318.014 74.361 318.713 72.8468 318.713 72.6567V72.4122L316.936 72.4258L315.158 72.4462L314.06 74.7684C313.454 76.045 312.941 77.1043 312.921 77.1247C312.901 77.1383 312.355 76.0858 311.703 74.782L310.511 72.4122H306.863V72.6634ZM311.183 76.9617C312.149 78.829 312.954 80.3704 312.981 80.384C313.001 80.3976 313.747 78.8766 314.632 77.0024L316.25 73.6005L316.716 73.5598L315.631 75.8209C315.032 77.0636 313.887 79.4605 313.088 81.1513L311.623 84.2205L311.41 84.2273H311.197L311.989 82.5569L312.788 80.8933L311.217 77.858C310.351 76.1876 309.499 74.5376 309.313 74.1913L308.986 73.5666H309.439L311.183 76.9617Z" fill="white"/>
<path d="M334.825 85.3817H337.974C341.556 85.3817 341.683 85.3681 342.648 84.8792C344.805 83.7927 345.617 81.0495 344.499 78.6593C344.166 77.9531 343.38 77.1518 342.681 76.8055C341.816 76.3709 341.569 76.3302 339.738 76.2963L338.087 76.2691V72.4122H334.825V85.3817ZM336.623 77.5728H338.687C340.877 77.5728 341.203 77.6068 341.816 77.8988C342.268 78.1093 342.934 78.7815 343.167 79.2364C343.567 80.0513 343.673 81.1581 343.42 81.9797C343.094 83.0458 342.248 83.8131 341.157 84.0236C340.957 84.0576 339.792 84.0915 338.513 84.0915H336.223V73.5666H336.623V77.5728Z" fill="white"/>
<path d="M336.623 83.752H338.64C340.85 83.752 341.33 83.6909 341.862 83.3717C342.821 82.8013 343.36 81.5451 343.161 80.3433C342.954 79.1074 342.169 78.2654 341.023 78.0481C340.83 78.0142 339.758 77.9802 338.647 77.9802H336.623V83.752ZM341.137 79.5013C341.536 79.7797 341.776 80.3093 341.776 80.8933C341.769 81.3822 341.656 81.681 341.356 82.0069C341.003 82.3939 340.897 82.4211 339.439 82.4483L338.087 82.4754V79.2636L340.864 79.3044L341.137 79.5013Z" fill="white"/>
<path d="M263.381 91.5337C262.629 91.7645 262.303 92.7356 262.749 93.4078C262.935 93.6998 263.261 93.9171 263.588 93.9714L263.847 94.0189L263.521 94.6912C263.335 95.0578 263.188 95.3906 263.188 95.4313C263.188 95.472 263.355 95.4992 263.561 95.4992H263.927L264.506 94.2905C265.019 93.2177 265.079 93.0479 265.079 92.7152C265.072 92.0973 264.746 91.6627 264.153 91.4997C263.821 91.4115 263.761 91.4115 263.381 91.5337ZM264.14 92.2399C264.347 92.4096 264.413 92.6609 264.32 92.9596C264.233 93.2177 264.087 93.3263 263.821 93.3263C263.727 93.3263 263.588 93.2992 263.521 93.2584C263.361 93.1701 263.235 92.7831 263.295 92.5522C263.348 92.3349 263.621 92.1041 263.821 92.1041C263.9 92.1041 264.047 92.1652 264.14 92.2399Z" fill="white"/>
<path d="M266.723 91.4929C266.291 91.6016 265.898 92.0362 265.811 92.4979C265.698 93.1158 266.131 93.7881 266.743 93.9442C266.91 93.985 267.05 94.0461 267.05 94.08C267.05 94.114 266.896 94.4467 266.717 94.8202L266.384 95.4992H267.183L267.722 94.3584C268.201 93.3671 268.268 93.1701 268.295 92.7831C268.315 92.4164 268.295 92.2942 268.168 92.0701C267.908 91.6219 267.263 91.3571 266.723 91.4929ZM267.416 92.2738C267.542 92.396 267.582 92.5115 267.582 92.7491C267.582 93.143 267.416 93.3263 267.063 93.3263C266.763 93.3263 266.603 93.1837 266.544 92.8646C266.43 92.2806 267.03 91.8732 267.416 92.2738Z" fill="white"/>
<path d="M270.145 91.459C270.112 91.4726 269.999 91.4997 269.899 91.5201C269.653 91.5744 269.247 91.9479 269.14 92.2195C269.007 92.5386 269.027 92.9664 269.187 93.3127C269.346 93.6455 269.599 93.8356 270.032 93.9442C270.185 93.985 270.312 94.0325 270.312 94.0461C270.312 94.0665 270.165 94.3788 269.979 94.7523C269.799 95.1257 269.646 95.4449 269.646 95.4653C269.646 95.4856 269.819 95.4992 270.032 95.4992H270.418L270.998 94.2905C271.497 93.2652 271.577 93.0411 271.577 92.7559C271.577 92.2806 271.364 91.8732 271.024 91.6695C270.765 91.5133 270.292 91.4047 270.145 91.459ZM270.678 92.2738C270.804 92.396 270.844 92.5115 270.844 92.722C270.844 93.109 270.651 93.3263 270.305 93.3263C269.859 93.3263 269.646 92.8374 269.879 92.3757C270.039 92.0565 270.418 92.0022 270.678 92.2738Z" fill="white"/>
<path d="M229.313 91.5676C228.994 91.6627 228.608 92.0905 228.508 92.4571C228.455 92.6541 228.435 93.0683 228.448 93.6387C228.461 94.3652 228.495 94.5621 228.608 94.7862C228.821 95.2004 229.2 95.4381 229.706 95.4788C230.079 95.506 230.172 95.4924 230.499 95.3159C230.785 95.1597 230.891 95.051 231.031 94.7862C231.178 94.4942 231.198 94.3516 231.218 93.6183C231.244 92.6812 231.158 92.2738 230.858 91.9411C230.499 91.554 229.879 91.4047 229.313 91.5676ZM230.179 92.2466C230.405 92.3689 230.499 92.722 230.499 93.4961C230.499 94.5486 230.352 94.8202 229.779 94.8202C229.46 94.8202 229.267 94.63 229.174 94.209C229.02 93.5368 229.127 92.6065 229.38 92.3213C229.54 92.1584 229.939 92.1176 230.179 92.2466Z" fill="white"/>
<path d="M232.975 91.6695C232.716 91.7985 232.582 91.9275 232.443 92.1584C232.269 92.4707 232.263 92.5115 232.263 93.4961C232.263 94.4807 232.269 94.5214 232.443 94.8338C232.909 95.6282 234.054 95.7165 234.673 95.0035C234.846 94.7998 235.066 94.2905 235.006 94.2362C234.999 94.2294 234.839 94.2023 234.653 94.1751C234.32 94.1344 234.307 94.1344 234.267 94.3109C234.194 94.6029 233.934 94.8202 233.661 94.8202C233.095 94.8202 232.962 94.5622 232.962 93.4961C232.962 92.43 233.095 92.172 233.661 92.172C233.934 92.172 234.194 92.3893 234.267 92.6812C234.307 92.8578 234.32 92.8578 234.653 92.817C234.839 92.7899 234.999 92.7627 235.006 92.7559C235.066 92.7016 234.846 92.1923 234.673 91.9886C234.234 91.4794 233.588 91.3571 232.975 91.6695Z" fill="white"/>
<path d="M240.725 91.5948C240.079 91.8257 239.853 92.3214 239.853 93.4961C239.853 94.6368 240.046 95.0918 240.652 95.3702C241.397 95.7165 242.289 95.343 242.562 94.5689C242.702 94.1683 242.682 92.7627 242.529 92.3621C242.263 91.6491 241.477 91.3164 240.725 91.5948ZM241.67 92.3214C241.89 92.5658 241.95 92.817 241.95 93.4961C241.95 94.4603 241.757 94.8202 241.251 94.8202C240.745 94.8202 240.552 94.4603 240.552 93.4961C240.552 92.5319 240.745 92.172 241.251 92.172C241.45 92.172 241.564 92.2127 241.67 92.3214Z" fill="white"/>
<path d="M260.046 91.7102L259.593 91.9207V92.6473L259.926 92.5115C260.112 92.4368 260.279 92.3757 260.292 92.3757C260.312 92.3757 260.325 93.0751 260.325 93.9374V95.4992H261.058V91.4929L260.778 91.4997C260.612 91.4997 260.299 91.5948 260.046 91.7102Z" fill="white"/>
<path d="M236.091 95.4313H236.75L236.79 93.7677L238.022 93.7269V95.4313H238.754V91.5608H238.022V93.1226H236.757V91.5608H236.091V95.4313Z" fill="white"/>
<path d="M243.747 95.4449L244.699 95.4177C245.825 95.3906 246.018 95.3159 246.271 94.7998C246.49 94.3516 246.424 93.9306 246.098 93.6115C245.865 93.3942 245.865 93.3806 245.991 93.2923C246.357 93.0343 246.364 92.3078 246.018 91.9411C245.725 91.6355 245.432 91.5608 244.52 91.5608H243.747V95.4449ZM245.438 92.3485C245.498 92.4028 245.545 92.559 245.545 92.6812C245.545 93.0004 245.352 93.1226 244.866 93.1226H244.48V92.2399H244.906C245.205 92.2399 245.365 92.2738 245.438 92.3485ZM245.245 93.8016C245.545 93.8695 245.678 94.0189 245.678 94.2905C245.678 94.6232 245.478 94.7523 244.946 94.7523H244.48V93.7337H244.733C244.866 93.7337 245.099 93.7677 245.245 93.8016Z" fill="white"/>
<path d="M247.749 93.4553C247.416 94.4942 247.143 95.3702 247.143 95.3906C247.143 95.4109 247.303 95.4313 247.502 95.4313H247.862L247.982 95.0375L248.108 94.6504H249.36L249.466 95.0239L249.58 95.3973L249.966 95.4177C250.312 95.4381 250.345 95.4245 250.312 95.3159C250.292 95.248 250.006 94.3856 249.686 93.3942L249.094 91.5948L248.361 91.554L247.749 93.4553ZM248.96 93.2991C249.06 93.6387 249.14 93.9374 249.14 93.9578C249.14 93.985 248.947 94.0053 248.714 94.0053H248.288L248.494 93.2924C248.608 92.8985 248.721 92.5997 248.741 92.6337C248.767 92.6609 248.867 92.9596 248.96 93.2991Z" fill="white"/>
<path d="M251.204 95.4313H251.937V93.7269L253.168 93.7677L253.208 95.4313H253.867V91.5608H253.202V93.1226H251.937V91.5608H251.204V95.4313Z" fill="white"/>
<path d="M255.432 93.4078C255.112 94.4263 254.833 95.3023 254.813 95.343C254.793 95.4109 254.886 95.4313 255.152 95.4313H255.518L255.652 95.0375L255.778 94.6504H257.016L257.15 95.0375L257.276 95.4313H257.636C257.835 95.4313 257.995 95.4109 257.995 95.3838C257.995 95.3566 257.715 94.4807 257.383 93.4485L256.763 91.5608H256.024L255.432 93.4078ZM256.644 93.3263L256.85 94.0053H256.424C256.171 94.0053 255.998 93.9782 255.998 93.9306C255.998 93.7948 256.357 92.6473 256.397 92.6473C256.424 92.6473 256.53 92.9528 256.644 93.3263Z" fill="white"/>
<path d="M208.794 93.6658H222.642V93.3263H208.794V93.6658Z" fill="white"/>
<path d="M276.863 93.4282C276.843 93.4825 276.843 93.5572 276.87 93.5979C276.896 93.6455 279.08 93.6658 283.834 93.6658H290.751V93.3263H283.827C277.828 93.3263 276.896 93.3399 276.863 93.4282Z" fill="white"/>
</svg>
