<svg width="200" height="200" viewBox="0 0 200 200" fill="none" xmlns="http://www.w3.org/2000/svg">
<g id="mdi:home-energy-outline">
<path id="Vector" d="M124.997 75H133.331V62.5H166.664V75H174.997C179.581 75 183.331 78.75 183.331 83.3333V175C183.331 179.583 179.581 183.333 174.997 183.333H124.997C120.414 183.333 116.664 179.583 116.664 175V83.3333C116.664 78.75 120.414 75 124.997 75ZM133.331 91.6667V116.667H166.664V91.6667H133.331ZM99.9974 47.4167L58.3307 84.9167V150H99.9974V166.667H41.6641V100H16.6641L99.9974 25L123.164 45.8333H116.664V59.75L114.664 60.5833L99.9974 47.4167Z" fill="white" fill-opacity="0.5"/>
</g>
</svg>
