<svg width="200" height="201" viewBox="0 0 200 201" fill="none" xmlns="http://www.w3.org/2000/svg">
<g id="eva:power-outline">
<path id="Vector" d="M99.9974 109.173C102.208 109.173 104.327 108.295 105.89 106.732C107.453 105.169 108.331 103.05 108.331 100.84V17.5062C108.331 15.296 107.453 13.1764 105.89 11.6136C104.327 10.0508 102.208 9.17285 99.9974 9.17285C97.7873 9.17285 95.6676 10.0508 94.1048 11.6136C92.542 13.1764 91.6641 15.296 91.6641 17.5062V100.84C91.6641 103.05 92.542 105.169 94.1048 106.732C95.6676 108.295 97.7873 109.173 99.9974 109.173Z" fill="white" fill-opacity="0.5"/>
<path id="Vector_2" d="M138.247 26.7563C136.28 25.7396 133.99 25.546 131.88 26.218C129.771 26.89 128.014 28.3726 126.997 30.3396C125.981 32.3067 125.787 34.597 126.459 36.7068C127.131 38.8165 128.614 40.573 130.581 41.5896C143.86 48.4452 154.45 59.5635 160.652 73.1598C166.854 86.7561 168.308 102.042 164.78 116.564C161.253 131.085 152.949 144.001 141.2 153.237C129.452 162.473 114.941 167.494 99.9975 167.494C85.0534 167.494 70.5427 162.473 58.7946 153.237C47.0464 144.001 38.7421 131.085 35.2147 116.564C31.6872 102.042 33.1411 86.7561 39.3431 73.1598C45.5451 59.5635 56.1354 48.4452 69.4141 41.5896C70.3881 41.0862 71.2534 40.3959 71.9606 39.5581C72.6677 38.7203 73.203 37.7514 73.5357 36.7068C73.8685 35.6621 73.9922 34.5621 73.8998 33.4697C73.8075 32.3772 73.5009 31.3136 72.9975 30.3396C72.4941 29.3657 71.8037 28.5004 70.9659 27.7932C70.1281 27.086 69.1592 26.5508 68.1146 26.218C67.0699 25.8853 65.97 25.7615 64.8775 25.8539C63.785 25.9463 62.7214 26.2529 61.7475 26.7563C45.1532 35.3295 31.9203 49.229 24.1722 66.2242C16.4242 83.2194 14.6103 102.325 19.0217 120.474C23.4331 138.624 33.814 154.766 48.4985 166.308C63.1829 177.851 81.3194 184.126 99.9975 184.126C118.675 184.126 136.812 177.851 151.496 166.308C166.181 154.766 176.562 138.624 180.973 120.474C185.385 102.325 183.571 83.2194 175.823 66.2242C168.075 49.229 154.842 35.3295 138.247 26.7563Z" fill="white" fill-opacity="0.5"/>
</g>
</svg>
