<svg width="200" height="200" viewBox="0 0 200 200" fill="none" xmlns="http://www.w3.org/2000/svg">
<g id="ph:fan-light">
<path id="Vector" d="M180.516 105.875C178.662 98.9352 175.184 92.536 170.37 87.205C165.555 81.874 159.543 77.7639 152.828 75.2137C146.113 72.6635 138.887 71.7463 131.748 72.5376C124.609 73.329 117.76 75.8063 111.766 79.7653C111.227 79.4449 110.665 79.1403 110.094 78.8668L123.266 26.2731C123.505 25.321 123.439 24.318 123.077 23.4055C122.716 22.4931 122.077 21.7171 121.251 21.1871C116.069 17.8811 110.268 15.664 104.202 14.6707C98.1361 13.6774 91.9314 13.9287 85.9655 15.4093C79.9997 16.8898 74.3975 19.5687 69.4997 23.283C64.602 26.9972 60.5111 31.6691 57.4761 37.0143C54.4411 42.3596 52.5253 48.2665 51.8454 54.3756C51.1655 60.4847 51.7356 66.6682 53.5211 72.55C55.3067 78.4318 58.2702 83.8888 62.2315 88.589C66.1927 93.2891 71.0689 97.1342 76.5632 99.8903V99.9996C76.5632 100.601 76.5632 101.203 76.6413 101.797L24.5085 116.687C23.5613 116.953 22.7219 117.511 22.1091 118.281C21.4964 119.05 21.1414 119.993 21.0945 120.976C20.8646 127.094 21.8767 133.194 24.0696 138.91C26.2625 144.625 29.5909 149.837 33.8537 154.231C38.1165 158.624 43.2254 162.109 48.872 164.473C54.5186 166.838 60.5858 168.034 66.7074 167.989C72.8289 167.944 78.8779 166.659 84.4892 164.212C90.1005 161.765 95.1578 158.206 99.3557 153.75C103.554 149.294 106.805 144.034 108.914 138.287C111.023 132.54 111.945 126.426 111.626 120.312C112.173 120 112.712 119.664 113.235 119.304L152.196 157.031C152.904 157.713 153.808 158.156 154.781 158.296C155.754 158.436 156.746 158.267 157.618 157.812C166.784 153.057 174.051 145.313 178.216 135.863C182.38 126.414 183.192 115.825 180.516 105.851V105.875ZM85.9382 99.9996C85.9382 97.2183 86.763 94.4995 88.3082 92.1869C89.8534 89.8744 92.0496 88.0719 94.6192 87.0076C97.1888 85.9432 100.016 85.6647 102.744 86.2073C105.472 86.7499 107.978 88.0893 109.944 90.0559C111.911 92.0226 113.25 94.5283 113.793 97.2562C114.336 99.984 114.057 102.812 112.993 105.381C111.928 107.951 110.126 110.147 107.813 111.692C105.501 113.237 102.782 114.062 100.001 114.062C96.2711 114.062 92.6942 112.581 90.057 109.943C87.4198 107.306 85.9382 103.729 85.9382 99.9996ZM60.9382 59.3746C60.9363 53.2102 62.5201 47.1489 65.5373 41.7733C68.5546 36.3978 72.9039 31.8887 78.1672 28.6796C83.4305 25.4705 89.4307 23.6692 95.5912 23.4489C101.752 23.2285 107.865 24.5966 113.344 27.4215L101.032 76.5621H100.001C95.4917 76.5643 91.079 77.8671 87.2919 80.3143C83.5047 82.7615 80.5038 86.2491 78.6491 90.359C73.2457 87.1937 68.7668 82.6669 65.6591 77.2302C62.5514 71.7935 60.9236 65.6369 60.9382 59.3746ZM84.3757 154.14C79.0374 157.231 72.9933 158.896 66.8251 158.975C60.6569 159.054 54.5724 157.543 49.157 154.589C43.7417 151.635 39.1779 147.337 35.905 142.108C32.632 136.879 30.7601 130.896 30.4695 124.734L79.2116 110.812C81.1901 114.617 84.1747 117.806 87.8403 120.032C91.5059 122.258 95.7121 123.436 100.001 123.437C100.783 123.438 101.566 123.399 102.344 123.32C102.303 129.579 100.623 135.719 97.47 141.126C94.3173 146.534 89.8026 151.021 84.3757 154.14ZM167.891 135.578C165.022 140.545 161.003 144.751 156.173 147.843L119.743 112.593C122.269 108.647 123.551 104.033 123.421 99.3488C123.292 94.665 121.757 90.1283 119.016 86.3278C125.876 82.4432 133.823 80.922 141.632 81.9985C149.442 83.075 156.681 86.6895 162.233 92.2851C167.786 97.8807 171.345 105.147 172.362 112.964C173.379 120.782 171.797 128.717 167.86 135.547L167.891 135.578Z" fill="white" fill-opacity="0.5"/>
</g>
</svg>
