<svg width="200" height="200" viewBox="0 0 200 200" fill="none" xmlns="http://www.w3.org/2000/svg">
<g id="eos-icons:performance">
<path id="Vector" d="M124.999 183.391H41.6658V166.725H124.999V183.391ZM183.332 33.3332L143.874 82.9582L142.041 85.2082L95.1241 145.125C93.5756 146.673 91.7373 147.902 89.714 148.74C87.6908 149.578 85.5223 150.009 83.3324 150.009C81.1425 150.009 78.974 149.578 76.9508 148.74C74.9276 147.902 73.0893 146.673 71.5408 145.125C69.9923 143.576 68.7639 141.738 67.9259 139.715C67.0878 137.692 66.6565 135.523 66.6565 133.333C66.6565 131.143 67.0878 128.975 67.9259 126.952C68.7639 124.928 69.9923 123.09 71.5408 121.542L183.332 33.3332ZM22.0408 60.2832C10.0035 79.5627 5.67417 102.67 9.91575 125H16.6658V116.667C16.575 100.258 21.4877 84.2117 30.7491 70.6665L22.0408 60.2832ZM99.9991 16.6665C87.2542 16.6647 74.65 19.3308 62.9975 24.4933C51.345 29.6558 40.9021 37.2003 32.3408 46.6415L41.8741 57.9998C53.1868 47.5976 67.9646 41.7756 83.3324 41.6665C98.7831 41.7742 113.636 47.6534 124.974 58.1498L154.557 34.7998C138.804 23.027 119.665 16.6659 99.9991 16.6665ZM156.916 93.3332L154.974 95.7248L148.907 103.475C149.616 107.837 149.981 112.247 149.999 116.667V125H190.082C194.037 104.145 190.548 82.5633 180.224 64.0165L156.916 93.3332Z" fill="white" fill-opacity="0.5"/>
</g>
</svg>
