<svg width="200" height="200" viewBox="0 0 200 200" fill="none" xmlns="http://www.w3.org/2000/svg">
<g id="ant-design:control-outlined">
<path id="Vector" d="M171.875 21.875H28.125C24.668 21.875 21.875 24.668 21.875 28.125V171.875C21.875 175.332 24.668 178.125 28.125 178.125H171.875C175.332 178.125 178.125 175.332 178.125 171.875V28.125C178.125 24.668 175.332 21.875 171.875 21.875ZM164.062 164.062H35.9375V35.9375H164.062V164.062ZM66.4062 133.398V148.438C66.4062 149.297 67.1094 150 67.9688 150H77.3438C78.2031 150 78.9062 149.297 78.9062 148.438V133.398C76.9336 134.043 74.8438 134.375 72.6562 134.375C70.4688 134.375 68.3789 134.023 66.4062 133.398ZM78.9062 94.7266V51.5625C78.9062 50.7031 78.2031 50 77.3438 50H67.9688C67.1094 50 66.4062 50.7031 66.4062 51.5625V94.7266C68.3789 94.082 70.4688 93.75 72.6562 93.75C74.8438 93.75 76.9336 94.1016 78.9062 94.7266ZM66.4062 133.398C68.3789 134.043 70.4688 134.375 72.6562 134.375C74.8438 134.375 76.9336 134.023 78.9062 133.398C87.0703 130.762 92.9688 123.105 92.9688 114.062C92.9688 105.02 87.0703 97.3633 78.9062 94.7266C76.9336 94.082 74.8438 93.75 72.6562 93.75C70.4688 93.75 68.3789 94.1016 66.4062 94.7266C58.2422 97.3633 52.3438 105.02 52.3438 114.062C52.3438 123.105 58.2422 130.762 66.4062 133.398ZM66.4258 110.801C66.4844 110.684 66.5625 110.566 66.6211 110.449V110.43L66.8555 110.078C66.875 110.039 66.8945 110.02 66.9141 109.98C66.9727 109.883 67.0508 109.805 67.1094 109.707C67.1289 109.688 67.1484 109.648 67.168 109.629C67.2656 109.512 67.3437 109.414 67.4414 109.316L67.5 109.258L67.7344 109.023L67.8125 108.945C67.9102 108.848 68.0078 108.77 68.125 108.672C68.2422 108.574 68.3398 108.496 68.457 108.418C68.4961 108.398 68.5156 108.379 68.5547 108.359C68.6523 108.301 68.7305 108.223 68.8281 108.164C68.8477 108.145 68.8867 108.125 68.9062 108.105C69.0234 108.027 69.1406 107.969 69.2773 107.891C69.2969 107.871 69.3359 107.871 69.3555 107.852C69.4531 107.793 69.5508 107.754 69.668 107.695L69.7852 107.637C69.9219 107.578 70.0391 107.52 70.1758 107.48C70.3125 107.422 70.4492 107.383 70.5859 107.344C70.625 107.324 70.6641 107.324 70.7031 107.305C70.8203 107.266 70.918 107.246 71.0352 107.227C71.0742 107.227 71.0938 107.207 71.1328 107.207C71.2695 107.168 71.4258 107.148 71.5625 107.129C71.6016 107.129 71.6211 107.129 71.6602 107.109C71.7773 107.09 71.8945 107.09 72.0117 107.07H72.1289C72.2852 107.07 72.4219 107.051 72.5781 107.051C72.7344 107.051 72.8711 107.051 73.0273 107.07H73.1445C73.2617 107.07 73.3789 107.09 73.4961 107.109C73.5352 107.109 73.5547 107.109 73.5937 107.129C73.7305 107.148 73.8867 107.168 74.0234 107.207C74.0625 107.207 74.082 107.227 74.1211 107.227C74.2383 107.246 74.3555 107.285 74.4531 107.305C74.4922 107.324 74.5312 107.324 74.5703 107.344C74.707 107.383 74.8438 107.422 74.9805 107.48C75.1172 107.52 75.2344 107.578 75.3711 107.637L75.4883 107.695C75.5859 107.734 75.7031 107.793 75.8008 107.852C75.8203 107.871 75.8594 107.871 75.8789 107.891C75.9961 107.949 76.1328 108.027 76.25 108.105C76.2695 108.125 76.3086 108.145 76.3281 108.164C76.4258 108.223 76.5234 108.281 76.6016 108.359C76.6406 108.379 76.6602 108.398 76.6992 108.418C76.8164 108.496 76.9336 108.594 77.0312 108.672C77.1289 108.75 77.2461 108.848 77.3438 108.945L77.4219 109.023L77.6562 109.258L77.7148 109.316C77.8125 109.414 77.9102 109.531 77.9883 109.629C78.0078 109.648 78.0273 109.688 78.0469 109.707C78.125 109.785 78.1836 109.883 78.2422 109.98C78.2617 110.02 78.2812 110.039 78.3008 110.078L78.5352 110.43C78.5352 110.43 78.5352 110.449 78.5547 110.449C79.2059 111.542 79.55 112.79 79.5508 114.062C79.5508 115.234 79.2578 116.348 78.75 117.324C78.6914 117.441 78.6133 117.559 78.5547 117.676C78.5547 117.676 78.5547 117.695 78.5352 117.695L78.3008 118.047C78.2812 118.086 78.2617 118.105 78.2422 118.145C78.1836 118.242 78.1055 118.32 78.0469 118.418C78.0273 118.438 78.0078 118.477 77.9883 118.496C77.8906 118.613 77.8125 118.711 77.7148 118.809L77.6562 118.867L77.4219 119.102L77.3438 119.18C77.2461 119.277 77.1484 119.355 77.0312 119.453C76.9141 119.551 76.8164 119.629 76.6992 119.707C76.6602 119.727 76.6406 119.746 76.6016 119.766C76.5039 119.824 76.4258 119.902 76.3281 119.961C76.3086 119.98 76.2695 120 76.25 120.02C76.1328 120.098 76.0156 120.156 75.8789 120.234C75.8594 120.254 75.8203 120.254 75.8008 120.273C75.7031 120.332 75.6055 120.371 75.4883 120.43L75.3711 120.488C75.2344 120.547 75.1172 120.605 74.9805 120.645C74.8438 120.703 74.707 120.742 74.5703 120.781C74.5312 120.801 74.4922 120.801 74.4531 120.82C74.3359 120.859 74.2383 120.879 74.1211 120.898C74.082 120.898 74.0625 120.918 74.0234 120.918C73.8867 120.957 73.7305 120.977 73.5937 120.996C73.5547 120.996 73.5352 120.996 73.4961 121.016C73.3789 121.035 73.2617 121.035 73.1445 121.055H73.0273C72.8711 121.055 72.7344 121.074 72.5781 121.074C72.4219 121.074 72.2852 121.074 72.1289 121.055H72.0117C71.8945 121.055 71.7773 121.035 71.6602 121.016C71.6211 121.016 71.6016 121.016 71.5625 120.996C71.4258 120.977 71.2695 120.957 71.1328 120.918C71.0938 120.918 71.0742 120.898 71.0352 120.898C70.918 120.879 70.8008 120.84 70.7031 120.82C70.6641 120.801 70.625 120.801 70.5859 120.781C70.4492 120.742 70.3125 120.703 70.1758 120.645C70.0391 120.605 69.9219 120.547 69.7852 120.488L69.668 120.43C69.5703 120.391 69.4531 120.332 69.3555 120.273C69.3359 120.254 69.2969 120.254 69.2773 120.234C69.1602 120.176 69.0234 120.098 68.9062 120.02C68.8867 120 68.8477 119.98 68.8281 119.961C68.7305 119.902 68.6328 119.844 68.5547 119.766C68.5156 119.746 68.4961 119.727 68.457 119.707C68.3398 119.629 68.2227 119.531 68.125 119.453C68.0273 119.375 67.9102 119.277 67.8125 119.18L67.7344 119.102L67.5 118.867L67.4414 118.809C67.3437 118.711 67.2461 118.594 67.168 118.496C67.1484 118.477 67.1289 118.438 67.1094 118.418C67.0312 118.34 66.9727 118.242 66.9141 118.145C66.8945 118.105 66.875 118.086 66.8555 118.047L66.6211 117.695V117.676C66.543 117.559 66.4844 117.441 66.4258 117.324C65.918 116.348 65.625 115.234 65.625 114.062C65.625 112.891 65.918 111.777 66.4258 110.801ZM121.094 105.273V148.438C121.094 149.297 121.797 150 122.656 150H132.031C132.891 150 133.594 149.297 133.594 148.438V105.273C131.621 105.918 129.531 106.25 127.344 106.25C125.156 106.25 123.066 105.898 121.094 105.273ZM133.594 66.6016V51.5625C133.594 50.7031 132.891 50 132.031 50H122.656C121.797 50 121.094 50.7031 121.094 51.5625V66.6016C123.066 65.957 125.156 65.625 127.344 65.625C129.531 65.625 131.621 65.9766 133.594 66.6016ZM121.094 105.273C123.066 105.918 125.156 106.25 127.344 106.25C129.531 106.25 131.621 105.898 133.594 105.273C141.758 102.637 147.656 94.9805 147.656 85.9375C147.656 76.8945 141.758 69.2383 133.594 66.6016C131.621 65.957 129.531 65.625 127.344 65.625C125.156 65.625 123.066 65.9766 121.094 66.6016C112.93 69.2383 107.031 76.8945 107.031 85.9375C107.031 94.9805 112.93 102.637 121.094 105.273ZM121.113 82.6758C121.172 82.5586 121.25 82.4414 121.309 82.3242V82.3047L121.543 81.9531C121.562 81.9141 121.582 81.8945 121.602 81.8555C121.66 81.7578 121.738 81.6797 121.797 81.582C121.816 81.5625 121.836 81.5234 121.855 81.5039C121.953 81.3867 122.031 81.2891 122.129 81.1914L122.187 81.1328L122.422 80.8984L122.5 80.8203C122.598 80.7227 122.695 80.6445 122.812 80.5469C122.93 80.4492 123.027 80.3711 123.145 80.293C123.184 80.2734 123.203 80.2539 123.242 80.2344C123.34 80.1758 123.418 80.0977 123.516 80.0391C123.535 80.0195 123.574 80 123.594 79.9805C123.711 79.9023 123.828 79.8438 123.965 79.7656C123.984 79.7461 124.023 79.7461 124.043 79.7266C124.141 79.668 124.238 79.6289 124.355 79.5703L124.473 79.5117C124.609 79.4531 124.727 79.3945 124.863 79.3555C125 79.2969 125.137 79.2578 125.273 79.2188C125.313 79.1992 125.352 79.1992 125.391 79.1797C125.508 79.1406 125.605 79.1211 125.723 79.1016C125.762 79.1016 125.781 79.082 125.82 79.082C125.957 79.043 126.113 79.0234 126.25 79.0039C126.289 79.0039 126.309 79.0039 126.348 78.9844C126.465 78.9648 126.582 78.9648 126.699 78.9453H126.816C126.973 78.9453 127.109 78.9258 127.266 78.9258C127.422 78.9258 127.559 78.9258 127.715 78.9453H127.832C127.949 78.9453 128.066 78.9648 128.184 78.9844C128.223 78.9844 128.242 78.9844 128.281 79.0039C128.418 79.0234 128.574 79.043 128.711 79.082C128.75 79.082 128.77 79.1016 128.809 79.1016C128.926 79.1211 129.043 79.1602 129.141 79.1797C129.18 79.1992 129.219 79.1992 129.258 79.2188C129.395 79.2578 129.531 79.2969 129.668 79.3555C129.805 79.3945 129.922 79.4531 130.059 79.5117L130.176 79.5703C130.273 79.6094 130.391 79.668 130.488 79.7266C130.508 79.7461 130.547 79.7461 130.566 79.7656C130.684 79.8242 130.82 79.9023 130.938 79.9805C130.957 80 130.996 80.0195 131.016 80.0391C131.113 80.0977 131.211 80.1562 131.289 80.2344C131.328 80.2539 131.348 80.2734 131.387 80.293C131.504 80.3711 131.621 80.4688 131.719 80.5469C131.816 80.625 131.934 80.7227 132.031 80.8203L132.109 80.8984L132.344 81.1328L132.402 81.1914C132.5 81.2891 132.598 81.4062 132.676 81.5039C132.695 81.5234 132.715 81.5625 132.734 81.582C132.812 81.6602 132.871 81.7578 132.93 81.8555C132.949 81.8945 132.969 81.9141 132.988 81.9531L133.223 82.3047V82.3242C133.874 83.417 134.218 84.6654 134.219 85.9375C134.219 87.1094 133.926 88.2227 133.418 89.1992C133.359 89.3164 133.281 89.4336 133.223 89.5508V89.5703L132.988 89.9219C132.969 89.9609 132.949 89.9805 132.93 90.0195C132.871 90.1172 132.793 90.1953 132.734 90.293C132.715 90.3125 132.695 90.3516 132.676 90.3711C132.578 90.4883 132.5 90.5859 132.402 90.6836L132.344 90.7422L132.109 90.9766L132.031 91.0547C131.934 91.1523 131.836 91.2305 131.719 91.3281C131.602 91.4258 131.504 91.5039 131.387 91.582C131.348 91.6016 131.328 91.6211 131.289 91.6406C131.191 91.6992 131.113 91.7773 131.016 91.8359C130.996 91.8555 130.957 91.875 130.938 91.8945C130.82 91.9727 130.703 92.0312 130.566 92.1094C130.547 92.1289 130.508 92.1289 130.488 92.1484C130.391 92.207 130.293 92.2461 130.176 92.3047L130.059 92.3633C129.922 92.4219 129.805 92.4805 129.668 92.5195C129.531 92.5781 129.395 92.6172 129.258 92.6562C129.219 92.6758 129.18 92.6758 129.141 92.6953C129.023 92.7344 128.926 92.7539 128.809 92.7734C128.77 92.7734 128.75 92.793 128.711 92.793C128.574 92.832 128.418 92.8516 128.281 92.8711C128.242 92.8711 128.223 92.8711 128.184 92.8906C128.066 92.9102 127.949 92.9102 127.832 92.9297H127.715C127.559 92.9297 127.422 92.9492 127.266 92.9492C127.109 92.9492 126.973 92.9492 126.816 92.9297H126.699C126.582 92.9297 126.465 92.9102 126.348 92.8906C126.309 92.8906 126.289 92.8906 126.25 92.8711C126.113 92.8516 125.957 92.832 125.82 92.793C125.781 92.793 125.762 92.7734 125.723 92.7734C125.605 92.7539 125.488 92.7148 125.391 92.6953C125.352 92.6758 125.313 92.6758 125.273 92.6562C125.137 92.6172 125 92.5781 124.863 92.5195C124.727 92.4805 124.609 92.4219 124.473 92.3633L124.355 92.3047C124.258 92.2656 124.141 92.207 124.043 92.1484C124.023 92.1289 123.984 92.1289 123.965 92.1094C123.848 92.0508 123.711 91.9727 123.594 91.8945C123.574 91.875 123.535 91.8555 123.516 91.8359C123.418 91.7773 123.32 91.7188 123.242 91.6406C123.203 91.6211 123.184 91.6016 123.145 91.582C123.027 91.5039 122.91 91.4062 122.812 91.3281C122.715 91.25 122.598 91.1523 122.5 91.0547L122.422 90.9766L122.187 90.7422L122.129 90.6836C122.031 90.5859 121.934 90.4688 121.855 90.3711C121.836 90.3516 121.816 90.3125 121.797 90.293C121.719 90.2148 121.66 90.1172 121.602 90.0195C121.582 89.9805 121.562 89.9609 121.543 89.9219L121.309 89.5703V89.5508C121.23 89.4336 121.172 89.3164 121.113 89.1992C120.605 88.2227 120.312 87.1094 120.312 85.9375C120.312 84.7656 120.605 83.6523 121.113 82.6758Z" fill="#183475" fill-opacity="0.5"/>
</g>
</svg>
