<?xml version="1.0" encoding="utf-8"?><svg viewBox="0 0 502.66 502.66" xmlns="http://www.w3.org/2000/svg" xmlns:xlink="http://www.w3.org/1999/xlink"><style>:root>svg{display:none}:root>svg:target{display:block}</style><svg viewBox="0 0 502.664 502.664" id="icon" xmlns="http://www.w3.org/2000/svg"><path d="M153.821 358.226L0 274.337v-46.463l153.821-83.414v54.574L46.636 250.523l107.185 53.431v54.272zm26.273 29.358L282.103 115.08h32.227L212.084 387.584h-31.99zm168.749-29.358v-54.272l107.164-52.999-107.164-52.59v-53.927l153.821 83.522v46.183l-153.821 84.083z"/></svg><svg viewBox="0 0 20 21" id="list-icon" xmlns="http://www.w3.org/2000/svg"><path d="M0 11.5l2-2 5 5 11-11 2 2-13 13-7-7z"/></svg><svg viewBox="0 0 25 25" id="phone-icon" xmlns="http://www.w3.org/2000/svg"><path d="M21.56 15.833l-4.61-2.063a1.17 1.17 0 00-1.15.125l-2.421 2.064a.384.384 0 01-.361.02c-1.586-.765-3.228-2.394-3.994-3.961a.38.38 0 01.018-.36l2.07-2.463c.01-.011.019-.024.028-.037a1.173 1.173 0 00.097-1.11L9.17 3.446a1.172 1.172 0 00-1.219-.702 5.103 5.103 0 00-4.435 5.07c0 7.539 6.132 13.671 13.671 13.671a5.103 5.103 0 005.07-4.435 1.172 1.172 0 00-.696-1.216zm-.076 1.118a4.32 4.32 0 01-4.297 3.752c-7.107 0-12.89-5.783-12.89-12.89a4.32 4.32 0 013.752-4.297.378.378 0 01.047 0 .39.39 0 01.358.243l2.062 4.603a.39.39 0 01-.023.352l-2.07 2.46c-.009.014-.019.025-.027.039a1.172 1.172 0 00-.077 1.147c.849 1.738 2.599 3.475 4.356 4.324a1.173 1.173 0 001.151-.085l.036-.028 2.425-2.062a.384.384 0 01.349-.027l4.61 2.067a.39.39 0 01.238.402z"/></svg><svg viewBox="0 0 25 25" id="telegram-icon" xmlns="http://www.w3.org/2000/svg"><path d="M23.004 2.705a.684.684 0 00-.696-.12L2.517 10.332a1.194 1.194 0 00.205 2.284l5.285 1.038v5.878a1.367 1.367 0 002.352.949l2.601-2.699 4.06 3.56a1.357 1.357 0 001.325.273 1.354 1.354 0 00.912-.993l3.967-17.245a.684.684 0 00-.22-.67zm-20.07 8.757a.045.045 0 010-.031.048.048 0 01.015-.008l15.596-6.106-10.088 7.227-5.508-1.078-.015-.004zm6.581 8.203a.195.195 0 01-.336-.134v-5.067l2.9 2.539-2.564 2.662zm8.6.692a.189.189 0 01-.13.14.195.195 0 01-.196-.039l-8.254-7.241 12.242-8.774-3.661 15.914z"/></svg><svg viewBox="0 0 25 25" id="whatsapp-icon" xmlns="http://www.w3.org/2000/svg"><path d="M18.145 14.494l-3.125-1.562a.391.391 0 00-.39.024l-1.625 1.084a4.35 4.35 0 01-2.042-2.042l1.084-1.625a.39.39 0 00.024-.39L10.51 6.856a.39.39 0 00-.35-.216 3.516 3.516 0 00-3.517 3.515 8.212 8.212 0 008.204 8.203 3.516 3.516 0 003.515-3.515.391.391 0 00-.216-.35zm-3.3 3.084a7.43 7.43 0 01-7.421-7.422 2.734 2.734 0 012.498-2.724l1.347 2.696-1.074 1.615a.391.391 0 00-.037.366 5.12 5.12 0 002.734 2.735.39.39 0 00.368-.036l1.615-1.075 2.696 1.348a2.734 2.734 0 01-2.725 2.497zM12.503 2.734A9.766 9.766 0 003.96 17.236l-1.162 3.486a1.172 1.172 0 001.482 1.482l3.485-1.162a9.766 9.766 0 104.737-18.308zm0 18.75a8.984 8.984 0 01-4.5-1.206.395.395 0 00-.319-.032l-3.65 1.217a.39.39 0 01-.494-.494l1.217-3.65a.39.39 0 00-.033-.32 8.984 8.984 0 117.779 4.485z"/></svg></svg>