<?xml version="1.0" encoding="utf-8"?><svg viewBox="0 0 502.66 502.66" xmlns="http://www.w3.org/2000/svg" xmlns:xlink="http://www.w3.org/1999/xlink"><style>:root>svg{display:none}:root>svg:target{display:block}</style><svg viewBox="0 0 502.664 502.664" id="icon" xmlns="http://www.w3.org/2000/svg"><path d="M153.821 358.226L0 274.337v-46.463l153.821-83.414v54.574L46.636 250.523l107.185 53.431v54.272zm26.273 29.358L282.103 115.08h32.227L212.084 387.584h-31.99zm168.749-29.358v-54.272l107.164-52.999-107.164-52.59v-53.927l153.821 83.522v46.183l-153.821 84.083z"/></svg><svg viewBox="0 0 20 21" id="list-icon" xmlns="http://www.w3.org/2000/svg"><path d="M0 11.5l2-2 5 5 11-11 2 2-13 13-7-7z"/></svg><svg viewBox="0 0 98 37" id="logo" xmlns="http://www.w3.org/2000/svg"><path d="M36.82 15.424l2.601 4.574h-5.202l2.601-4.574zm4.254 7.505l1.17 2.053h6.187l-7.375-12.967H34.48l-7.376 12.967h4.273l1.17-2.053h8.527zm20.704-5.058h-5.482v-2.856h5.63c.836 0 1.356.594 1.356 1.428s-.668 1.428-1.504 1.428zm7.523-1.428c0-2.482-1.691-4.428-4.198-4.428H50.278v12.967h6.018v-4.111h3.66l3.16 4.111h6.037l-3.27-4.242c1.968-.48 3.418-2.185 3.418-4.297z"/><path d="M88.489 12.015l-3.863 7.783-3.902-7.783h-8.082v12.967h6.019v-8.856l4.44 8.856h4.44l4.44-8.856c0 4.957 0 9.91-.003 14.863L0 30.993V37h98V12.015h-9.511z"/><path d="M6.022 0H0v24.982h8.081l3.902-7.778 3.864 7.778h9.512V12.015h-6.02v8.856l-4.44-8.856h-4.44l-4.44 8.856.003-14.867H98V0H6.022z"/></svg><svg viewBox="0 0 218 50" id="part1" xmlns="http://www.w3.org/2000/svg"><path d="M18.525.745c-.964.203-2.513.711-3.426 1.143-2.03.99-4.975 3.197-6.091 4.543-.432.533-1.04 1.243-1.32 1.573-.685.787-2.487 4.594-2.893 6.168-.482 1.776-.457 7.386.025 9.29.685 2.613 2.513 5.837 4.39 7.766 2.462 2.538 3.046 2.97 5.686 4.238 8.476 4.061 18.983 1.218 23.907-6.523 1.523-2.385 2.208-4.01 2.589-6.091 1.548-8.832-1.777-16.091-9.39-20.457-3.3-1.878-8.807-2.563-13.477-1.65zm7.233.33c2.335.254 6.269 1.878 8.197 3.401 2.132 1.675 2.208 1.777 3.35 3.224 3.96 5.127 4.95 11.954 2.538 17.64-1.599 3.756-3.654 6.345-6.547 8.223-9.771 6.345-22.816 2.385-26.928-8.173-1.75-4.442-1.878-7.868-.431-12.107C7.84 7.65 11.19 4.248 17.18 1.837c2.055-.838 5.203-1.117 8.578-.762z"/><path d="M20.809 9.578c-1.777.431-2.817 1.04-4.39 2.538-1.549 1.447-1.98 2.157-2.488 4.137-1.396 5.406 1.726 10.558 7.056 11.675 1.548.33 2.157.33 3.756.05 2.208-.355 2.766-.583 4.517-1.979.965-.787 1.523-1.497 2.31-3.096.964-1.904 1.04-2.208 1.04-4.137 0-1.828-.101-2.285-.863-3.833-1.37-2.893-3.553-4.67-6.471-5.355-1.726-.406-2.792-.406-4.467 0zm6.269 1.37c2.994 1.473 4.771 4.391 4.771 7.792 0 3.503-1.624 6.168-4.797 7.792-1.7.889-2.005.965-3.959.965-1.929 0-2.259-.076-3.934-.94-2.03-1.04-3.223-2.258-4.213-4.314-.583-1.193-.66-1.548-.558-3.807.076-2.488.076-2.488 1.27-4.315 1.877-2.868 4.313-4.162 7.689-4.06 1.726.05 2.31.177 3.73.887zm73.701 6.574c-.051.05-.482.152-.965.203-.456.05-1.116.152-1.472.254-.355.076-.761.178-.939.228-.177.026-.406.127-.482.229-.101.101-.406.177-.685.177-.838 0-4.29 2.056-5.71 3.401-4.34 4.087-5.838 11.422-3.553 17.665.634 1.752 1.269 2.792 2.715 4.417 2.335 2.69 6.37 4.873 9.949 5.406 1.776.279 6.903.152 7.588-.153.076-.05.355-.101.635-.127 1.04-.126 3.147-.964 4.314-1.7 1.802-1.142 3.426-2.563 3.426-3.02 0-.559-4.619-5.076-5.177-5.076-.279 0-.838.279-1.269.583-1.523 1.168-3.502 1.7-6.218 1.7-2.639 0-3.578-.253-5.355-1.42-1.117-.736-2.36-2.412-2.487-3.325-.05-.508 0-.61.431-.457a14.3 14.3 0 001.32.279c.482.076 1.218.203 1.624.254 1.599.279 8.629.152 8.629-.152 0-.026.33-.102.736-.153 1.853-.203 5.304-2.208 6.624-3.807 2.487-3.02 2.563-8.096.152-10.964-1.167-1.422-3.908-3.35-4.72-3.35-.305 0-.635-.077-.736-.178-.152-.178-.508-.28-1.548-.432a5.947 5.947 0 01-.635-.152c-.406-.229-5.989-.533-6.192-.33zm6.446 1.32c6.116 1.117 9.543 5.787 7.969 10.837-.355 1.193-.761 1.802-2.005 3.02-1.751 1.752-3.147 2.488-6.065 3.224-1.726.431-2.538.508-5.584.38-2.436-.1-4.187-.304-5.456-.66-1.955-.532-2.31-.507-2.31.128 0 .812 1.32 3.553 2.107 4.365 2.817 2.944 9.339 3.376 13.603.889l1.117-.635 2.055 2.056 2.056 2.081-.761.635c-1.625 1.345-3.046 2.132-5.025 2.817-1.879.634-2.412.71-5.635.71-3.045 0-3.832-.076-5.532-.609-1.092-.33-2.03-.71-2.107-.837-.076-.102-.33-.203-.584-.203-.583 0-3.502-2.107-4.644-3.401-.99-1.066-2.386-3.427-2.944-4.95-.457-1.243-.66-6.192-.355-8.375.482-3.401 2.69-6.828 5.837-9.112 1.294-.914 4.111-2.03 6.269-2.487 1.776-.355 5.608-.305 7.994.127z"/><path d="M101.007 24.375c-1.04.228-2.817.964-3.705 1.497-1.802 1.117-3.604 3.934-3.198 4.975.178.533 4.213 1.218 6.929 1.218 2.791 0 4.771-.533 5.862-1.573 1.168-1.117 1.498-2.03 1.117-3.224-.609-2.081-4.137-3.553-7.005-2.893zm3.604 1.193c1.041.228 2.081.913 2.259 1.472.507 1.573.025 2.74-1.472 3.452-.99.482-1.472.507-4.771.431-4.061-.076-4.467-.127-5.178-.533-.482-.28-.457-.33.152-1.396 1.168-1.98 2.843-3.147 4.797-3.375.406-.051.812-.127.863-.178.127-.152 2.614-.051 3.35.127zm89.309-8.046c-.025.05-.456.127-.939.178a7.114 7.114 0 00-1.624.507c-.406.229-.939.406-1.167.406-.203 0-1.193.559-2.158 1.27-6.928 4.847-9.161 13.654-5.405 21.268 2.208 4.467 6.598 7.818 10.989 8.35 1.878.255 5.126.153 5.609-.126.152-.102.533-.203.862-.254.889-.127 2.488-.99 4.036-2.157l1.345-1.016 1.117 1.27c.634.71 1.522 1.42 1.954 1.598.457.178 1.066.406 1.345.508 1.573.61 5.964.305 7.537-.533.407-.228.457-.61.457-3.68v-3.452l-1.624.178c-1.447.152-1.675.127-2.157-.356-.533-.533-.533-.685-.533-11.7 0-10.761-.026-11.168-.482-11.421-.711-.381-7.462-.33-7.843.05-.177.178-.304.686-.304 1.142 0 1.041-.178 1.041-1.371.102-.533-.431-1.37-.888-1.878-1.066-.507-.152-1.04-.355-1.192-.457-.127-.076-.432-.178-.635-.228-.203-.026-.66-.127-1.015-.203-.66-.127-4.822-.28-4.924-.178zm6.447 1.574c1.472.533 3.426 1.776 4.238 2.766.152.178.508.305.761.254.356-.076.483-.355.533-1.548l.076-1.447h6.574v10.457c0 6.294.101 10.863.253 11.396.356 1.269 1.295 1.853 2.995 1.827h1.32v5.178l-.99.28c-4.137 1.243-8.121.151-9.466-2.615-.305-.635-.686-1.142-.838-1.142-.152 0-.888.584-1.649 1.269-.965.913-1.98 1.523-3.427 2.081-1.827.736-2.309.812-4.695.812-3.807 0-5.989-.761-8.857-3.172-1.396-1.143-2.081-1.955-3.198-3.757-.127-.228-.431-.685-.66-1.04-.736-1.117-1.497-4.772-1.497-7.107 0-6.98 4.238-12.944 10.507-14.746 2.157-.635 5.786-.508 8.02.254z"/><path d="M193.946 25.415c-1.802.635-3.477 2.234-4.492 4.264-.813 1.574-.889 1.904-.863 3.884 0 1.954.101 2.36.837 3.832.939 1.878 2.919 3.883 4.289 4.366.559.203 2.081.33 3.731.33 3.325-.026 4.188-.33 6.091-2.285 2.005-2.03 2.411-3.121 2.411-6.218 0-3.198-.431-4.264-2.512-6.345-1.066-1.066-1.777-1.523-2.843-1.853-1.827-.558-5.025-.558-6.649.025zm6.091.686c1.675.507 3.426 2.056 4.289 3.807.558 1.167.66 1.726.66 3.375-.026 2.792-.127 3.198-1.168 4.747-2.842 4.289-9.568 4.568-12.562.558-1.498-2.005-1.929-3.985-1.472-6.904.634-4.365 5.481-7.005 10.253-5.583zM56.898 18.41c-.355.28-.431 1.295-.558 7.69-.203 10.128-.432 12.437-1.244 14.062-.634 1.218-1.192 1.523-2.944 1.599l-1.65.076-.076 3.502c-.076 3.477-.076 3.477.559 3.706.33.127 1.776.203 3.223.177 2.36-.076 2.792-.152 4.162-.862 4.39-2.209 6.015-6.625 6.396-17.386l.152-4.493h8.553v11.041c0 10.635.025 11.04.482 11.294.71.381 7.715.33 8.096-.05.228-.229.304-3.934.304-15.076 0-13.097-.05-14.823-.406-15.178-.355-.355-1.827-.406-12.511-.406-9.29 0-12.208.076-12.538.304zm24.44 29.391h-6.852V25.72h-5.177c-4.492 0-5.203.05-5.33.406-.076.229-.152 2.36-.152 4.746 0 7.792-1.27 12.894-3.782 15.33-1.523 1.472-5.33 2.564-7.639 2.158l-1.142-.203-.152-5.432h1.167c2.513 0 3.426-1.015 4.34-4.67.33-1.396.812-10.66.838-16.98l.025-1.954h23.856v28.68zm39.135-29.391c-.228.229-.305 3.985-.305 15.33 0 13.452.051 15.026.407 15.178.228.076 2.03.152 4.009.152 3.198 0 3.68-.05 4.036-.457.38-.406.431-1.193.431-5.837v-5.38h12.182v5.354c0 3.198.102 5.533.254 5.838.254.431.584.482 3.959.482 2.056 0 3.909-.127 4.188-.254.457-.253.482-.71.482-15.228s-.025-14.975-.482-15.228c-.279-.127-2.081-.254-4.061-.254-2.893 0-3.604.076-3.934.406-.355.33-.406 1.193-.406 5.584v5.177h-12.182v-5.152c0-4.695-.051-5.203-.457-5.584-.406-.355-1.091-.431-4.136-.431-2.538 0-3.782.101-3.985.304zm7.36 6.092l.076 5.406 6.954.076c4.898.05 7.055-.025 7.284-.229.279-.228.355-1.395.355-5.456V19.12h6.599V47.8h-6.599v-5.457c0-5.127-.025-5.456-.482-5.71-.736-.381-13.527-.356-13.933.05-.229.229-.305 1.853-.305 5.711V47.8h-6.598V19.12h6.598l.051 5.38zm25.202-5.99c-.33.33-.381.99-.33 4.111l.076 3.732 4.771.076 4.746.05v10.99c0 8.198.076 11.066.304 11.295.432.431 7.589.431 8.02 0 .229-.229.305-3.097.305-11.295v-10.99l4.771-.05 4.746-.076.076-3.808c.051-3.35.026-3.832-.381-4.111-.329-.254-3.426-.33-13.552-.33-11.7 0-13.172.05-13.552.406zm26.521 7.208l-4.619.05-4.645.077-.076 10.964-.051 10.99h-6.852l-.051-10.99-.076-10.964-4.746-.076-4.771-.051v-6.599h25.887v6.599zM.125 34.35c0 .507 1.523 3.299 1.802 3.299.127 0 .203.101.101.228-.177.33 2.513 3.68 4.163 5.153 1.852 1.675 4.34 3.274 6.827 4.39 3.375 1.498 4.745 1.802 7.918 1.752 1.244-.026 1.675.025 1.269.152-.482.152-.28.203.761.203 1.142 0 1.244-.05.635-.203-.533-.127-.178-.178 1.142-.178 2.715.026 3.756-.177 6.015-1.218 3.629-1.675 6.801-4.568 8.806-8.071.38-.66.61-1.32.533-1.447-.228-.38-2.842-.304-4.314.102-1.751.482-4.569 1.599-5.406 2.106-2.462 1.549-5.228 4.264-6.472 6.346l-.787 1.294-.71-1.117c-.38-.634-.71-1.218-.71-1.294 0-.38-2.26-3.147-3.91-4.772-1.902-1.878-3.68-3.147-5.989-4.314-1.954-.99-4.542-1.93-5.583-2.03-.482-.077-1.574-.23-2.411-.382-1.954-.33-3.68-.33-3.68 0zM7.993 36c4.238 1.471 6.979 3.222 10.126 6.471 2.233 2.31 4.467 5.787 3.984 6.27-.279.304-3.908-.356-6.522-1.168-5.127-1.574-9.619-4.899-12.588-9.29-1.04-1.548-1.853-3.02-1.853-3.324 0-.102.94-.102 2.107-.026 1.472.102 2.867.406 4.746 1.066zm30.962 3.248c0 .482-1.37 2.487-2.69 3.96-2.31 2.588-7.157 5.025-10.837 5.482-1.878.228-1.878-.051-.076-2.488 1.573-2.106 3.096-3.477 5.609-4.949 2.842-1.65 7.994-2.944 7.994-2.005z"/></svg><svg viewBox="0 0 258 50" id="part2" xmlns="http://www.w3.org/2000/svg"><g opacity=".735" fill-rule="evenodd" clip-rule="evenodd"><path d="M0 0h24.207v7.006h-7.644v42.039H7.644V7.006H0V0zm.956.955h21.977v4.777H15.29V48.09H8.92V5.732H.956V.955zM43.637 0h-7.326C29.534 1.748 26.084 6.207 25.96 13.376a412.65 412.65 0 000 22.93C26.05 43.519 29.5 48.083 36.311 50h7.326c6.617-1.737 10.068-6.09 10.352-13.057a460.64 460.64 0 000-24.204C53.576 5.913 50.126 1.667 43.637 0zm9.078 12.42C51.58 4.015 46.749.194 38.222.955c-6.857.86-10.52 4.788-10.989 11.784a459.982 459.982 0 000 24.204c.526 7.957 4.773 11.99 12.741 12.102 7.806-.055 12.053-3.982 12.74-11.784.213-8.28.213-16.56 0-24.84zM57.97 0h8.6c-.053 5.946 0 11.89.16 17.834A679.787 679.787 0 0075.17 0h8.6a1357.329 1357.329 0 00-9.555 21.656c3.52 9.058 7.13 18.08 10.83 27.07a29.197 29.197 0 01-8.6 0l-8.123-20.064a9.975 9.975 0 00-1.592 2.548 497.847 497.847 0 00-.16 17.835h-8.6V0zm.956.955h6.37c-.053 7.432 0 14.863.16 22.293l10.67-21.974a13.061 13.061 0 015.733 0 834.93 834.93 0 00-8.918 20.541 1397.32 1397.32 0 0010.51 26.115 19.34 19.34 0 01-6.051-.16 919.74 919.74 0 00-9.078-21.974l-2.866 5.096a463.987 463.987 0 00-.16 17.197h-6.37V.955zM86.956 0H94.6c-.053 9.449 0 18.897.16 28.344L106.703 0h6.37v49.045h-7.644c.053-9.555 0-19.11-.16-28.663L93.644 48.726a35.368 35.368 0 01-6.688.319V0zm.955.955h5.733c-.053 10.935 0 21.87.16 32.803A2112.486 2112.486 0 00107.34.955h4.459V48.09h-5.415c.053-11.04 0-22.081-.159-33.12l-13.536 32.8a18.206 18.206 0 01-4.778.318V.955zM135.689 0h-7.326c-6.516 1.636-9.967 5.882-10.352 12.739a460.633 460.633 0 000 24.204c.253 6.984 3.704 11.337 10.352 13.057h7.326a15.36 15.36 0 005.415-2.389c3.16-3.084 4.806-6.852 4.937-11.305.212-7.644.212-15.287 0-22.93-.103-7.152-3.554-11.61-10.352-13.376zm9.078 12.739C143.806 4.106 138.975.178 130.274.955c-6.565.78-10.228 4.495-10.989 11.147a497.71 497.71 0 000 25.16c.675 7.787 4.922 11.714 12.741 11.783 7.756-.325 12.004-4.359 12.741-12.102a460.64 460.64 0 000-24.204zM172.637 0h7.326c5.922 1.742 8.947 5.776 9.078 12.102.159 2.44.212 4.88.159 7.325h-8.281c.052-2.656 0-5.31-.16-7.962.036-2.83-1.344-4.316-4.14-4.459-2.716-.08-4.308 1.193-4.778 3.822a210.438 210.438 0 000 28.344c.525 2.488 2.064 3.762 4.618 3.822 3.029-.111 4.463-1.704 4.3-4.777.16-2.758.212-5.519.16-8.28h8.281a38.866 38.866 0 01-1.433 13.375c-1.499 3.572-4.1 5.801-7.804 6.688h-7.007c-3.865-.832-6.679-3.062-8.441-6.688a27.233 27.233 0 01-1.593-7.643 358.014 358.014 0 010-21.338c.066-3.663 1.022-7.06 2.867-10.19C167.677 2.056 169.96.676 172.637 0zm2.23.955c7.553-.661 11.853 2.736 12.9 10.191.159 2.334.212 4.669.159 7.007h-5.733a58.435 58.435 0 00-.478-8.599c-.693-2.71-2.445-3.879-5.256-3.503-3.582-.188-5.546 1.51-5.892 5.095a600.767 600.767 0 000 27.707c.893 4.487 3.6 6.133 8.122 4.937 1.691-.632 2.7-1.852 3.026-3.663a61.24 61.24 0 00.478-8.917h5.733a31.789 31.789 0 01-1.433 12.102c-1.029 2.409-2.781 4.054-5.256 4.936-10.138 2.554-15.819-1.32-17.041-11.624a436.714 436.714 0 010-23.567c.277-7.079 3.834-11.113 10.671-12.102zM193.978 0h8.281v49.045h-8.281V0zm.955.955h6.052V48.09h-6.052V.955zM204.807 0h32.489c2.036 6.692 4.107 13.38 6.211 20.064A2184.09 2184.09 0 00249.719 0H258v.955a987.366 987.366 0 00-10.033 29.937c-.16 6.05-.213 12.1-.16 18.153h-8.6c.054-6.052 0-12.103-.159-18.153A2454.495 2454.495 0 00229.174.955c-.159 2.015-.212 4.032-.159 6.051h-7.645v42.039h-8.6V7.006h-7.963V0zm1.274.955h21.978v4.777h-7.963V48.09h-6.052V5.732h-7.963V.955zm24.526 0h5.734a572.95 572.95 0 007.166 22.93 929.633 929.633 0 007.167-22.611 26.08 26.08 0 015.733-.319 4917.454 4917.454 0 01-9.714 29.937 462.898 462.898 0 00-.16 17.197h-6.052a480.2 480.2 0 00-.159-17.516A1610.258 1610.258 0 01230.607.955z"/><path d="M37.267 6.051c1.808-.053 3.613 0 5.414.16 2.456 1.032 3.677 2.89 3.663 5.572a533.72 533.72 0 010 26.115c-.635 5.234-3.555 7.198-8.759 5.892-1.616-.448-2.73-1.456-3.344-3.026a25.185 25.185 0 01-.637-3.184 496.772 496.772 0 010-25.16c.003-2.878 1.224-5 3.663-6.369zm1.592.955c-2.622.45-3.95 2.043-3.981 4.777a534.964 534.964 0 000 26.115c.082 1.738.773 3.171 2.07 4.3 2.269 1.016 4.498.91 6.689-.319a6.525 6.525 0 001.433-3.662c.213-8.918.213-17.835 0-26.752-.533-3.537-2.603-5.024-6.21-4.459zm90.46-.955a46.17 46.17 0 015.414.16c2.507 1.131 3.728 3.095 3.663 5.89.213 8.493.213 16.986 0 25.479-.446 5.457-3.366 7.527-8.759 6.21-2.622-1.04-3.949-3.003-3.981-5.892a533.709 533.709 0 010-26.115c.025-2.71 1.246-4.621 3.663-5.732zm1.592.955c-2.479.41-3.806 1.897-3.981 4.459a560.055 560.055 0 000 26.752c.131.87.344 1.719.637 2.547 1.077 1.494 2.563 2.237 4.459 2.23 3.181-.208 4.879-1.907 5.096-5.096a533.72 533.72 0 000-26.115c-.445-3.602-2.516-5.194-6.211-4.777z"/></g></svg><svg viewBox="0 0 172 50" id="part3" xmlns="http://www.w3.org/2000/svg"><path opacity=".897" fill-rule="evenodd" clip-rule="evenodd" d="M69.144.183c5.004-.6 9.762.273 14.276 2.62.931-.264 1.677-.825 2.236-1.684a4.109 4.109 0 011.72-.187v14.594h-2.064c-.9-8.463-5.257-12.954-13.072-13.472-6.57.171-11.1 3.539-13.588 10.104A40.31 40.31 0 0056.76 28.25a328.028 328.028 0 0150.224-.748 719.304 719.304 0 019.632-26.382c.459-.25.917-.25 1.376 0A2144.61 2144.61 0 01129 29.934a238.507 238.507 0 0135.432 8.233A35.372 35.372 0 01172 41.16a247.321 247.321 0 00-40.764-8.42l-1.204.374a696.54 696.54 0 014.3 11.6c1.313 2.555 3.32 3.678 6.02 3.368v1.871c-4.134.125-8.262 0-12.384-.374l-6.02-17.588a401.098 401.098 0 00-11.008-1.122 2.049 2.049 0 00-1.032.374 488.788 488.788 0 01-4.816 13.846c-.424 2.471.55 3.594 2.924 3.368v1.122H93.912v-1.497c2.457.565 4.464-.184 6.02-2.245a394.72 394.72 0 005.504-15.343c-12.514-.053-25.07.01-37.668.188-3.442.17-6.882.356-10.32.56 2.044 6.15 6.057 9.829 12.04 11.04 4.32.74 8.562.366 12.728-1.122a18.238 18.238 0 004.816-3.555c.4 2.61.458 5.23.172 7.858-3.223 2.485-6.835 3.794-10.836 3.93-8.592 1.362-15.873-1.32-21.844-8.046-1.878-2.84-3.197-5.958-3.956-9.356a60.714 60.714 0 00-7.912.749v17.213H31.648v-1.87c1.972-.044 3.52-.917 4.644-2.62.172-3.99.23-7.981.172-11.975A238.232 238.232 0 000 41.347a165.78 165.78 0 0136.464-10.104c.058-8.483 0-16.965-.172-25.446-.382-.867-1.012-1.428-1.892-1.684-.918-.213-1.835-.4-2.752-.562V2.054h11.008V30.12a288.57 288.57 0 007.224-1.122c-1.117-9.14 1.291-16.937 7.224-23.389 3.64-2.854 7.653-4.663 12.04-5.426zm46.44 14.22a296.85 296.85 0 014.988 13.472c.258.425.201.799-.172 1.123-3.098-.38-6.194-.817-9.288-1.31a179.282 179.282 0 004.472-13.285z"/></svg><svg viewBox="0 0 500 110" id="part4" xmlns="http://www.w3.org/2000/svg"><path d="M230.259 14.58c-.013.047-.02 6.79-.007 14.986.02 16.432-.013 15.094.426 17.111.919 4.258 3.096 8.108 6.572 11.645 2.43 2.472 5.233 4.55 8.675 6.438 1.451.8 3.801 1.88 4.087 1.88.207 0 1.718-.685 3.156-1.425 2.943-1.522 5.3-3.083 7.79-5.154.985-.822 3.096-2.934 3.841-3.844 2.737-3.354 4.255-6.681 4.827-10.593.113-.767.12-1.724.12-15.957V14.525l-19.727-.02c-15.932-.014-19.733 0-19.76.074zm37.456 15.923c0 14.707.007 14.51-.299 16.004-1.358 6.655-6.884 12.664-15.786 17.153l-1.604.814-.826-.38c-1.811-.835-3.901-2.03-5.652-3.232-2.011-1.379-3.562-2.682-5.093-4.278-3.409-3.565-5.42-7.456-6.032-11.693-.12-.862-.127-1.399-.127-14.599V16.596h35.419v13.907z"/><path d="M234.061 44.402l.146.747c.08.408.253 1.127.38 1.596 1.291 4.814 4.86 9.29 10.292 12.915 1.958 1.31 4.907 2.893 5.207 2.798.086-.027.606-.272 1.151-.557 3.822-1.942 7.098-4.326 9.628-6.987 2.743-2.893 4.28-5.67 4.94-8.936.139-.686.139-.781.159-14.158l.02-13.459h-31.957l.034 26.041zm4.613-8.813c.007 8.338-.006 15.162-.033 15.162-.06 0-.067-.013-.659-1.052-.692-1.222-1.338-2.907-1.631-4.278-.333-1.521-.326-1.216-.326-13.452 0-6.315.02-11.503.046-11.53.027-.02.619-.034 1.312-.027l1.271.02.02 15.157zm25.28-15.102c.02.047.026.978.02 2.064l-.02 1.983-.5-.693c-.645-.896-1.91-2.186-2.796-2.858a43.557 43.557 0 01-.726-.557c-.013-.014.879-.027 1.984-.027 1.552 0 2.018.02 2.038.088zm-10.413.122c3.901.4 7.27 2.757 9.041 6.308a11.753 11.753 0 01.693 8.794c-1.332 4.223-4.927 7.32-9.208 7.944-.566.082-1.611.102-5.539.102h-4.847v9.337l1.152.991 1.145.992.02-4.475.013-4.468h2.663v6.688c0 3.68-.02 6.689-.046 6.689-.074 0-1.398-.781-2.171-1.27a31.683 31.683 0 01-4.52-3.524l-.919-.856V41.034l6.212.007c6.071.014 6.218.007 6.89-.129 3.542-.747 6.165-3.422 6.918-7.069.159-.794.159-2.519 0-3.34-.699-3.558-3.196-6.18-6.705-7.07-.546-.135-.752-.142-5.605-.162l-5.047-.027v12.772h4.547c3.682 0 4.627-.02 4.987-.102 1.391-.298 2.523-1.419 2.883-2.852.492-1.975-.739-4.087-2.697-4.617-.286-.081-.852-.102-2.543-.102h-2.184v5.093h-2.663V25.62l3.748.027c3.649.02 3.755.028 4.275.177 2.197.632 3.848 2.24 4.514 4.393 1.138 3.674-1.099 7.53-4.847 8.352-.4.089-1.365.102-6.471.095-3.309 0-6.059-.02-6.112-.04-.087-.034-.1-1.087-.1-9.065v-9.025h5.919c3.675 0 6.178.028 6.604.075zm10.426 21.62c-.033 2.22-.093 2.784-.413 4.02-.339 1.318-1.045 2.947-1.777 4.108l-.353.564-.02-4.067-.013-4.068.785-.821a20.239 20.239 0 001.285-1.494c.426-.584.493-.652.519-.51.014.089.007 1.107-.013 2.268zm-4.973 6.994v4.713l-.713.658a34.687 34.687 0 01-4.62 3.552c-.826.523-2.264 1.365-2.337 1.365-.027 0-.053-3.008-.053-6.689v-6.688h1.025c.559 0 1.158-.02 1.332-.04l.306-.049.013 4.53.02 4.529 1.165-1.005 1.165-1.012.067-7.51.632-.23c.347-.13.906-.367 1.232-.53.333-.17.639-.306.686-.306.06-.007.08.978.08 4.712zM172.51 72.175c-2.31.387-4.101 1.813-4.914 3.91-.359.924-.446 1.468-.446 2.778.007 1.019.027 1.277.16 1.793.313 1.235.752 2.064 1.511 2.892 1.139 1.23 2.697 1.929 4.494 2.017 2.131.109 4.115-.733 5.426-2.302.453-.543 1.046-1.738 1.232-2.499.22-.903.253-2.587.06-3.53-.246-1.243-.732-2.214-1.531-3.077-.872-.944-1.851-1.528-3.116-1.853-.819-.218-2.051-.272-2.876-.13zm2.596 1.527c.852.252 1.492.639 2.137 1.29.486.496.626.686.879 1.223.446.957.539 1.405.539 2.614 0 1.216-.093 1.664-.545 2.614-.253.537-.4.74-.873 1.223-.905.923-1.95 1.392-3.275 1.473-2.197.136-4.155-1.086-4.954-3.083-.366-.923-.479-2.458-.259-3.537.406-2.024 1.857-3.49 3.888-3.925.619-.13 1.824-.082 2.463.108z"/><path d="M172.41 74.042c-.633.17-.919.299-1.445.652-1.112.754-1.757 1.915-1.931 3.47-.352 3.17 1.598 5.581 4.541 5.595 1.864.007 3.389-.883 4.181-2.431.386-.76.546-1.487.546-2.499 0-1.046-.12-1.61-.506-2.41a4.271 4.271 0 00-1.957-1.997c-.347-.17-.839-.36-1.099-.414-.659-.143-1.751-.122-2.33.034zm2.024 1.365c1.118.258 2.084 1.297 2.33 2.492.107.509.087 1.46-.027 1.976-.299 1.276-1.318 2.247-2.589 2.451a3.146 3.146 0 01-2.983-1.202c-.366-.495-.566-1.005-.659-1.704-.306-2.261 1.065-4.074 3.102-4.081.293 0 .666.027.826.068zm39.52-3.267c-1.678.272-3.216 1.135-4.161 2.35-1.844 2.363-1.844 6.315-.007 8.671.866 1.107 1.998 1.827 3.516 2.227.492.136.752.157 1.651.157s1.158-.02 1.651-.157c1.984-.522 3.402-1.656 4.208-3.354.912-1.928.912-4.482 0-6.41-.826-1.731-2.397-2.947-4.394-3.388-.573-.13-1.918-.177-2.464-.095zm1.984 1.454c2.064.407 3.529 1.88 3.942 3.972.159.78.106 2.275-.094 2.96-.685 2.337-2.729 3.77-5.153 3.613-.805-.054-1.278-.183-2.044-.57-.526-.258-.725-.415-1.205-.903-.479-.49-.626-.686-.879-1.223-.446-.93-.539-1.392-.539-2.614s.093-1.684.539-2.614c.546-1.148 1.678-2.119 2.903-2.479a5.367 5.367 0 012.53-.142z"/><path d="M213.794 74.008c-.233.054-.705.238-1.045.407-1.385.686-2.243 2.03-2.423 3.796-.167 1.657.313 3.205 1.298 4.217 1.398 1.42 3.662 1.745 5.559.801.666-.326 1.532-1.195 1.884-1.901.407-.801.533-1.392.533-2.499 0-1.623-.353-2.553-1.345-3.565-.652-.658-1.225-.991-2.104-1.222-.619-.163-1.697-.177-2.357-.034zm2.024 1.426c1.638.441 2.604 2.16 2.284 4.088-.2 1.181-.779 2.016-1.731 2.492-1.844.916-3.961-.075-4.474-2.105-.146-.584-.14-1.644.02-2.214.3-1.12 1.205-2.037 2.25-2.288.406-.095 1.225-.082 1.651.027zm21.285 3.062c-2.004 4.42-2.876 6.424-2.876 6.587v.23h3.196l.379-.814.373-.815 2.53.014 2.523.02.353.78.346.782 1.611.02 1.605.014v-.238c0-.17-.806-2.017-2.876-6.586l-2.883-6.35h-1.411l-2.87 6.356zm5.992.503c1.272 2.784 2.317 5.086 2.317 5.113 0 .034-.093.047-.213.034-.2-.02-.226-.061-.613-.924l-.399-.896h-6.971l-.426.917c-.413.89-.433.916-.632.916-.173 0-.207-.02-.173-.115.026-.061 1.065-2.37 2.317-5.127 1.731-3.816 2.296-5.01 2.376-4.997.067.013.932 1.826 2.417 5.079z"/><path d="M239.034 78.293c-.892 1.962-1.611 3.585-1.591 3.598.013.014 1.491.02 3.289.014l3.262-.02-1.638-3.579c-.899-1.976-1.651-3.585-1.671-3.585-.02 0-.766 1.61-1.651 3.572zm2.33.93l.646 1.44-.666.02a42.58 42.58 0 01-1.318 0l-.659-.02.632-1.447c.353-.788.653-1.44.679-1.44.02 0 .333.652.686 1.447zM155 85.314h3.329v-4.957l.433-.014c.945-.027.665-.34 2.223 2.458l1.385 2.479 1.804.02 1.811.014v-.285c0-.265-.173-.578-1.697-3.097-.933-1.541-1.698-2.825-1.698-2.852 0-.027.1-.108.22-.183.339-.204 1.125-1.053 1.371-1.487.559-.964.806-2.187.806-4.006v-1.128h-3.329v.876c0 1.46-.16 2.316-.546 2.94-.413.673-1.145 1.046-2.191 1.121l-.592.04v-4.977H155v13.038zm1.864-6.634l1.285-.041c.985-.027 1.398-.068 1.791-.177 1.285-.34 2.157-1.032 2.643-2.064.34-.726.466-1.27.519-2.173.04-.74.06-.787.313-.686.127.048.14.36.034 1.182-.134 1.12-.586 2.166-1.219 2.838-.326.353-.918.781-1.298.937-.153.061-.273.116-.273.13 0 .013.799 1.344 3.143 5.241l.133.224h-.227c-.219-.006-.233-.027-1.811-2.668l-1.591-2.669-.406.089c-.22.054-.999.115-1.718.135l-1.318.041v5.072h-.399V73.5h.399v5.18zm25.812-6.363c-.027.027-.047 2.96-.047 6.526v6.47h3.263v-3.326h1.425c2.03 0 2.776-.177 3.715-.883 1.151-.863 1.784-2.261 1.784-3.939 0-.964-.147-1.616-.539-2.444-.38-.788-1.139-1.569-1.858-1.922-.952-.468-1.012-.475-4.527-.502-1.738-.02-3.189-.007-3.216.02zm6.511 1.42c1.658.44 2.59 2.37 2.098 4.338-.347 1.379-1.245 2.316-2.457 2.553-.2.034-1.252.068-2.344.068h-1.99v3.463h-.4V73.634h2.35c1.898 0 2.424.02 2.743.102z"/><path d="M184.494 80.296l2.217-.02c2.583-.028 2.676-.048 3.375-.714.646-.604.932-1.358.932-2.45 0-1.02-.319-1.848-.945-2.439-.699-.645-.939-.699-3.495-.699h-2.084v6.322zm4.227-4.903c.606.279.939.985.886 1.867-.053.802-.36 1.365-.886 1.61-.226.108-.446.129-1.544.129h-1.285v-3.735h1.285c1.092 0 1.318.02 1.544.13zm6.625 9.921h3.329V75.4h3.928v9.914h3.329V72.276h-10.586v13.038zm9.121-1.155h-.4V74.042h-6.924v10.117h-.332V73.634h7.656V84.16zm19.507 1.155h3.262V82l1.651-.027c1.558-.027 1.671-.04 2.177-.21.733-.245 1.305-.612 1.791-1.135.972-1.052 1.465-2.736 1.239-4.243-.3-1.997-1.472-3.423-3.243-3.919-.492-.142-.692-.149-3.695-.176l-3.182-.027v13.05zm6.491-11.578c1.059.285 1.824 1.107 2.131 2.282.126.482.126 1.555 0 2.064-.333 1.324-1.252 2.288-2.417 2.54-.213.047-1.145.074-2.377.074h-2.03v3.463h-.4V73.634h2.35c1.898 0 2.424.02 2.743.102z"/><path d="M225.772 80.289h2.03c2.151 0 2.503-.034 3.049-.32 1.079-.55 1.711-2.104 1.425-3.51-.226-1.113-.726-1.833-1.564-2.234l-.446-.217-4.494-.04v6.32zm4.467-4.787c1.025.733.865 2.92-.253 3.402-.16.068-.566.095-1.485.095h-1.265v-3.742l2.717.041.286.204zm18.568 9.812h8.988v1.494h2.663v-4.346h-1.265V72.276h-3.328v9.982h-3.729v-9.982h-3.329v13.038zm1.865-1.698h6.657V73.5h.4v10.117h1.598v1.97h-.4v-1.63h-8.655V73.499h.4v10.117zm11.83-11.299c-.026.027-.046 2.96-.046 6.526v6.47h.619l.612-.006 3.163-3.15c1.737-1.739 3.182-3.158 3.215-3.158.027 0 .047 1.419.047 3.157v3.158h3.329V72.276h-1.205l-3.176 3.172-3.176 3.177-.066-6.315-1.638-.02c-.899-.007-1.651.007-1.678.027zm1.831 5.507l.02 4.326 3.642-3.647c2.889-2.893 3.675-3.646 3.808-3.646h.173v9.234h-.399l-.014-4.298-.02-4.291-3.049 3.055c-3.488 3.49-4.267 4.244-4.407 4.244-.087 0-.1-.584-.1-4.651v-4.651h.333l.013 4.325zm15.646-5.473c-1.079.143-1.904.543-2.61 1.277-.879.896-1.265 1.901-1.265 3.266 0 1.385.386 2.37 1.298 3.3l.533.543-1.245 2.064c-.959 1.59-1.252 2.119-1.252 2.289v.224l1.844-.014 1.845-.02 2.143-3.735 1.691-.04v3.809h3.263V72.276l-2.91.007c-1.604.007-3.102.034-3.335.068zm4.847 11.808h-.333l-.014-1.99-.02-1.982-2.063-.02-2.064-.014-1.165 1.983c-1.119 1.894-1.179 1.99-1.385 2.01-.12.013-.213.007-.213-.007 0-.02.386-.672.859-1.46 1.005-1.663 1.498-2.526 1.464-2.553a6.137 6.137 0 00-.359-.143c-.753-.278-1.312-.8-1.658-1.555-.912-1.942-.04-4.176 1.831-4.685.279-.081.879-.102 2.743-.102l2.377-.007V84.16z"/><path d="M279.832 74.083c-.745.203-1.318.713-1.684 1.507-.206.435-.213.489-.213 1.304 0 .815.007.869.213 1.303.399.87 1.105 1.406 2.017 1.555.24.035 1.305.055 2.364.048l1.93-.02.02-2.907.014-2.899-2.144.007c-1.671 0-2.23.027-2.517.102zm3.129 4.454l-1.311-.027c-1.252-.02-1.332-.027-1.598-.183-1.065-.625-.965-2.554.16-2.961.18-.068.619-.095 1.504-.102h1.245v3.273zm41.811-6.132c-1.325.292-2.29.829-3.229 1.8-.925.95-1.391 1.82-1.671 3.13-.16.747-.16 2.377 0 3.124.526 2.43 2.144 4.155 4.541 4.834.605.177.752.19 1.857.19 1.318-.006 1.824-.095 2.79-.516 1.578-.685 2.723-2.098 3.135-3.87.167-.74.32-.672-1.484-.672h-1.585l-.186.448c-.366.855-1.139 1.433-2.131 1.589-1.677.271-3.189-.822-3.601-2.594-.214-.93-.067-2.214.346-2.995.606-1.134 1.884-1.758 3.222-1.555.992.15 1.658.598 2.071 1.406l.219.441h3.176l-.04-.305c-.113-.754-.552-1.752-1.072-2.424-.652-.85-1.871-1.63-3.062-1.963-.766-.21-2.49-.25-3.296-.068zm2.763 1.331c.786.21 1.551.645 2.091 1.195.259.272.805 1.019.805 1.107 0 .027-.086.041-.186.041-.153 0-.24-.068-.446-.38-.766-1.127-2.004-1.739-3.529-1.732-2.217.007-3.975 1.42-4.527 3.64-.16.645-.167 1.935-.007 2.58.34 1.379 1.212 2.499 2.417 3.117.759.387 1.192.482 2.184.475.752 0 .938-.027 1.404-.183a5.22 5.22 0 00.933-.442c.439-.291 1.005-.89 1.264-1.344.147-.251.207-.299.373-.299.247 0 .233.048-.186.686a4.27 4.27 0 01-2.224 1.718c-2.217.76-4.6-.061-5.839-2.01-1.098-1.731-1.098-4.285 0-6.016.966-1.521 2.63-2.377 4.441-2.288.346.02.812.081 1.032.135zm-31.791 11.646h3.263v-3.328h1.518c1.298 0 1.597-.02 2.037-.135.865-.224 1.338-.496 1.971-1.148.645-.659.965-1.229 1.205-2.153.199-.746.199-2.016.006-2.763-.346-1.31-1.205-2.424-2.277-2.96-.932-.462-1.085-.483-4.607-.483h-3.116v12.97zm6.345-11.578c1.458.313 2.37 1.603 2.377 3.334 0 1.487-.699 2.757-1.851 3.334l-.506.258-4.567.041v3.456h-.4V73.702h2.251c1.691 0 2.357.028 2.696.102z"/><path d="M297.542 80.364l2.25-.02c2.164-.021 2.257-.028 2.623-.177 1.185-.49 1.891-2.024 1.632-3.558-.233-1.386-1.059-2.295-2.251-2.5-.233-.033-1.285-.067-2.337-.067h-1.917v6.322zm4.268-4.896c.912.475 1.158 2.037.492 3.07-.306.474-.512.529-1.997.529h-1.298v-3.66l.319-.027c.613-.061 2.317 0 2.484.088zm5.053-2.805c0 .204.399.992 2.057 4.061 1.132 2.091 2.097 3.884 2.137 3.98.073.169 0 .346-.925 2.294-.553 1.161-1.006 2.173-1.006 2.248 0 .129.054.136 1.785.136h1.777l3.016-6.24c2.31-4.781 3.009-6.295 3.009-6.485v-.245l-1.777.014-1.778.02-1.098 2.322c-.606 1.277-1.119 2.336-1.139 2.357-.02.013-.566-1.04-1.218-2.343l-1.192-2.37h-3.648v.251zm4.32 4.299c.966 1.867 1.771 3.408 1.798 3.422.02.014.766-1.507 1.651-3.382l1.618-3.401.466-.041-1.085 2.26a931.394 931.394 0 00-2.543 5.331l-1.465 3.07-.213.006h-.213l.792-1.67.799-1.664-1.571-3.035c-.866-1.67-1.718-3.32-1.904-3.667l-.327-.624h.453l1.744 3.395zm23.642 8.42h3.149c3.582 0 3.709-.014 4.674-.503 2.157-1.086 2.969-3.83 1.851-6.22-.333-.706-1.119-1.507-1.818-1.854-.865-.434-1.112-.475-2.943-.509l-1.651-.027v-3.857h-3.262v12.97zm1.798-7.81h2.064c2.19 0 2.516.035 3.129.327.452.21 1.118.882 1.351 1.337.4.815.506 1.922.253 2.744a2.916 2.916 0 01-2.263 2.044c-.2.034-1.365.067-2.644.067h-2.29V73.567h.4v4.006z"/><path d="M336.623 83.752h2.017c2.21 0 2.69-.061 3.222-.38.959-.57 1.498-1.827 1.299-3.029-.207-1.236-.992-2.078-2.138-2.295-.193-.034-1.265-.068-2.376-.068h-2.024v5.772zm4.514-4.25c.399.278.639.807.639 1.391-.007.49-.12.788-.42 1.114-.353.387-.459.414-1.917.441l-1.352.027v-3.211l2.777.04.273.197zm-77.756 12.032c-.752.23-1.078 1.202-.632 1.874.186.292.512.51.839.563l.259.048-.326.672c-.186.367-.333.7-.333.74 0 .041.167.068.373.068h.366l.579-1.209c.513-1.072.573-1.242.573-1.575-.007-.618-.333-1.052-.926-1.215-.332-.088-.392-.088-.772.034zm.759.706c.207.17.273.42.18.72-.087.258-.233.366-.499.366a.697.697 0 01-.3-.068c-.16-.088-.286-.475-.226-.706.053-.217.326-.448.526-.448a.64.64 0 01.319.136zm2.583-.747c-.432.109-.825.543-.912 1.005-.113.618.32 1.29.932 1.446.167.041.307.102.307.136 0 .034-.154.367-.333.74l-.333.68h.799l.539-1.142c.479-.99.546-1.188.573-1.575.02-.367 0-.489-.127-.713-.26-.448-.905-.713-1.445-.577zm.693.78c.126.123.166.239.166.476 0 .394-.166.577-.519.577-.3 0-.46-.142-.519-.461-.114-.584.486-.992.872-.591zm2.729-.814c-.033.014-.146.04-.246.061-.246.054-.652.428-.759.7-.133.319-.113.746.047 1.093.159.332.412.523.845.631.153.041.28.088.28.102 0 .02-.147.333-.333.706-.18.374-.333.693-.333.713 0 .02.173.034.386.034h.386l.58-1.209c.499-1.025.579-1.249.579-1.534 0-.475-.213-.883-.553-1.087-.259-.156-.732-.264-.879-.21zm.533.815c.126.122.166.237.166.448 0 .387-.193.604-.539.604-.446 0-.659-.489-.426-.95.16-.32.539-.374.799-.102zm-41.365-.706c-.319.095-.705.523-.805.89-.053.196-.073.61-.06 1.18.013.727.047.924.16 1.148.213.414.592.652 1.098.693.373.027.466.013.793-.163.286-.156.392-.265.532-.53.147-.292.167-.434.187-1.168.026-.937-.06-1.344-.36-1.677-.359-.387-.979-.536-1.545-.373zm.866.679c.226.122.32.475.32 1.25 0 1.052-.147 1.323-.72 1.323-.319 0-.512-.19-.605-.611-.154-.672-.047-1.603.206-1.888.16-.163.559-.203.799-.074zm2.796-.577a1.143 1.143 0 00-.532.488c-.174.313-.18.353-.18 1.338 0 .985.006 1.025.18 1.338.466.794 1.611.882 2.23.17.173-.204.393-.714.333-.768a3.524 3.524 0 00-.353-.06c-.333-.042-.346-.042-.386.135-.073.292-.333.51-.606.51-.566 0-.699-.259-.699-1.325 0-1.066.133-1.324.699-1.324.273 0 .533.217.606.51.04.176.053.176.386.135a3.49 3.49 0 00.353-.061c.06-.054-.16-.564-.333-.767-.439-.51-1.085-.632-1.698-.32zm7.75-.075c-.646.23-.872.726-.872 1.901 0 1.14.193 1.596.799 1.874a1.404 1.404 0 001.91-.801c.14-.4.12-1.806-.033-2.207-.266-.713-1.052-1.046-1.804-.767zm.945.726c.22.245.28.496.28 1.175 0 .964-.193 1.324-.699 1.324s-.699-.36-.699-1.324c0-.964.193-1.324.699-1.324.199 0 .313.04.419.15zm18.376-.611l-.453.21v.727l.333-.136c.186-.074.353-.135.366-.135.02 0 .033.7.033 1.561V95.5h.733v-4.006l-.28.007c-.166 0-.479.095-.732.21zm-23.955 3.721h.659l.04-1.663 1.232-.041v1.704h.732v-3.87h-.732v1.562h-1.265V91.56h-.666v3.87zm7.656.014l.952-.027c1.126-.027 1.319-.102 1.572-.618.219-.448.153-.87-.173-1.188-.233-.218-.233-.231-.107-.32.366-.258.373-.984.027-1.35-.293-.306-.586-.381-1.498-.381h-.773v3.884zm1.691-3.096c.06.054.107.21.107.332 0 .32-.193.442-.679.442h-.386v-.883h.426c.299 0 .459.034.532.109zm-.193 1.453c.3.067.433.217.433.488 0 .333-.2.462-.732.462h-.466v-1.018h.253c.133 0 .366.034.512.068zm2.504-.347a86.024 86.024 0 00-.606 1.936c0 .02.16.04.359.04h.36l.12-.394.126-.387h1.252l.106.374.114.373.386.02c.346.021.379.007.346-.101-.02-.068-.306-.93-.626-1.922l-.592-1.8-.733-.04-.612 1.901zm1.211-.156c.1.34.18.638.18.659 0 .027-.193.047-.426.047h-.426l.206-.713c.114-.394.227-.692.247-.658.026.027.126.326.219.665zm2.244 2.132h.733v-1.704l1.231.04.04 1.664h.659v-3.87h-.665v1.562h-1.265V91.56h-.733v3.87zm4.228-2.023a97.07 97.07 0 01-.619 1.935c-.02.068.073.088.339.088h.366l.134-.394.126-.387h1.238l.134.387.126.394h.36c.199 0 .359-.02.359-.047s-.28-.903-.612-1.936l-.62-1.887h-.739l-.592 1.847zm1.212-.082l.206.68h-.426c-.253 0-.426-.028-.426-.075 0-.136.359-1.284.399-1.284.027 0 .133.306.247.68zm-47.85.34h13.848v-.34h-13.848v.34zm68.069-.238c-.02.055-.02.13.007.17.026.047 2.21.068 6.964.068h6.917v-.34h-6.924c-5.999 0-6.931.014-6.964.102z"/></svg><svg viewBox="0 0 198 52" id="part5" xmlns="http://www.w3.org/2000/svg"><path d="M57.575 40.615H1.5l2.38-6.471h55.48l-1.785 6.471zm0 0l-1.04 3.462H14.142l.744-3.16 42.688-.302zM3.88 29.93l8.032-27.542h8.627L18.308 29.93h-5.801l.744-7.224h-2.083L9.383 29.93H3.88zm8.032-10.084l3.421-13.244-1.19 13.244h-2.231zm8.032 10.084l5.8-27.542h8.925c1.481 0 2.588 2.408 2.529 2.86-.297 2.257-1.19 8.428-1.785 9.03-.863.873-3.867 1.203-3.867 1.655 0 .753 2.712.8 3.123 2.258.298 1.053-1.785 9.33-2.23 10.234-.513 1.037-1.384 1.505-2.53 1.505h-9.965zm5.8-2.408c-.297-.301 1.34-10.234 2.232-10.385.852-.143 1.636.631 1.636 1.505 0 .301-1.19 7.074-1.636 7.977-.42.849-1.568 1.574-2.231.903zm2.232-12.492c-.297 0 1.339-8.729 1.934-9.783.41-.725 1.753.528 1.636 1.355-.298 2.107-.744 4.816-1.636 7.676-.244.78-1.042.752-1.934.752zm9.817 14.9l4.462-23.328h-3.272l.744-4.214h11.75l-1.339 4.214h-2.677l-4.61 23.328h-5.058zm10.71-1.505c-.596-1.806 2.23-13.395 4.015-21.823.412-1.945.86-4.214 2.826-4.214h7.586c2.083 0 2.083 2.374 2.083 4.214 0 1.505-3.273 18.813-4.76 21.823-.535 1.082-2.678 1.505-2.678 1.505h-6.842s-1.9-.5-2.23-1.505zm4.61-1.355c-.595-.752 2.975-21.07 4.462-21.823.936-.473 1.764-.513 2.678 0 1.339.753-3.719 21.07-4.462 21.823-.78.79-2.083.753-2.678 0zm26.03-12.792h5.95s3.57-12.944 2.38-12.944H72.597c-2.135 0-3.372 1.811-3.867 3.913-3.718 15.803-7.734 37.626-8.478 42.743C59.976 49.897 64.12 51 64.12 51h11.304c2.095 0 3.057-1 3.719-3.01 1.041-3.16 2.677-12.642 2.677-12.642h-6.99s-.744 5.568-2.232 9.481c-.294.776-.666 1.526-1.487 1.505-.987-.024-1.395-1.28-1.19-2.257 2.677-12.793 4.165-22.876 7.437-36.572.213-.892.879-1.55 1.785-1.505 1.168.057 1.687 1.58 1.339 2.709-.744 2.408-1.339 5.569-1.339 5.569zm12.94-12.944l-2.528 12.944h5.206L86.58 51h9.816l7.735-36.722h4.016l2.677-12.944H92.083zm21.122 0c.122-.752 11.304 0 16.361 0 1.607 0 2.949 1.559 2.678 3.161-1.934 11.438-4.909 27.542-7.586 41.84-.431 2.3-1.405 4.665-3.719 4.665h-13.684c-1.684 0-3.123-1.306-3.123-3.01 0-4.064 6.693-32.057 9.073-46.656zm6.842 6.171c.549-1.297 2.826-1.354 3.57 0 .33.602-6.099 33.411-7.437 37.324-.38 1.111-2.747 1.153-2.975 0-.446-2.257 6.396-36.27 6.842-37.324zm12.197 20.167l-.893 3.612h5.206c1.931 0 2.972-1.908 3.421-3.612 1.19-4.515 3.719-20.167 3.719-20.167s-.012-2.117.892-1.956c.819.145.595 1.956.595 1.956l-4.76 23.78h5.504l5.057-28.596h-11.75s-3.421 23.177-4.611 24.23c-.733.65-2.38.753-2.38.753zM154.406 2.69l-5.355 28.595h5.355l4.76-13.394-1.785 13.394h5.057L168.09 2.69h-5.652l-5.057 13.997L159.91 2.69h-5.504zm17.105 0l-6.247 28.595h7.884l-.893 3.16h-41.647l-1.042 5.419h46.705l3.124-11.137-1.19-1.054 5.652-24.983h-5.652l-5.95 24.983 4.016-24.983h-4.76zm-43.432 41.237l1.487-3.01h35.698l-.743 3.01h-36.442zm52.059-13.394l8.181-27.843h8.181l-1.934 27.843h-6.247l1.488-7.224h-2.38l-1.636 7.224h-5.653zm8.181-10.385l2.975-12.642-.744 12.642h-2.231z"/></svg><svg viewBox="0 0 25 25" id="phone-icon" xmlns="http://www.w3.org/2000/svg"><path d="M21.56 15.833l-4.61-2.063a1.17 1.17 0 00-1.15.125l-2.421 2.064a.384.384 0 01-.361.02c-1.586-.765-3.228-2.394-3.994-3.961a.38.38 0 01.018-.36l2.07-2.463c.01-.011.019-.024.028-.037a1.173 1.173 0 00.097-1.11L9.17 3.446a1.172 1.172 0 00-1.219-.702 5.103 5.103 0 00-4.435 5.07c0 7.539 6.132 13.671 13.671 13.671a5.103 5.103 0 005.07-4.435 1.172 1.172 0 00-.696-1.216zm-.076 1.118a4.32 4.32 0 01-4.297 3.752c-7.107 0-12.89-5.783-12.89-12.89a4.32 4.32 0 013.752-4.297.378.378 0 01.047 0 .39.39 0 01.358.243l2.062 4.603a.39.39 0 01-.023.352l-2.07 2.46c-.009.014-.019.025-.027.039a1.172 1.172 0 00-.077 1.147c.849 1.738 2.599 3.475 4.356 4.324a1.173 1.173 0 001.151-.085l.036-.028 2.425-2.062a.384.384 0 01.349-.027l4.61 2.067a.39.39 0 01.238.402z"/></svg><svg viewBox="0 0 25 25" id="telegram-icon" xmlns="http://www.w3.org/2000/svg"><path d="M23.004 2.705a.684.684 0 00-.696-.12L2.517 10.332a1.194 1.194 0 00.205 2.284l5.285 1.038v5.878a1.367 1.367 0 002.352.949l2.601-2.699 4.06 3.56a1.357 1.357 0 001.325.273 1.354 1.354 0 00.912-.993l3.967-17.245a.684.684 0 00-.22-.67zm-20.07 8.757a.045.045 0 010-.031.048.048 0 01.015-.008l15.596-6.106-10.088 7.227-5.508-1.078-.015-.004zm6.581 8.203a.195.195 0 01-.336-.134v-5.067l2.9 2.539-2.564 2.662zm8.6.692a.189.189 0 01-.13.14.195.195 0 01-.196-.039l-8.254-7.241 12.242-8.774-3.661 15.914z"/></svg><svg viewBox="0 0 25 25" id="whatsapp-icon" xmlns="http://www.w3.org/2000/svg"><path d="M18.145 14.494l-3.125-1.562a.391.391 0 00-.39.024l-1.625 1.084a4.35 4.35 0 01-2.042-2.042l1.084-1.625a.39.39 0 00.024-.39L10.51 6.856a.39.39 0 00-.35-.216 3.516 3.516 0 00-3.517 3.515 8.212 8.212 0 008.204 8.203 3.516 3.516 0 003.515-3.515.391.391 0 00-.216-.35zm-3.3 3.084a7.43 7.43 0 01-7.421-7.422 2.734 2.734 0 012.498-2.724l1.347 2.696-1.074 1.615a.391.391 0 00-.037.366 5.12 5.12 0 002.734 2.735.39.39 0 00.368-.036l1.615-1.075 2.696 1.348a2.734 2.734 0 01-2.725 2.497zM12.503 2.734A9.766 9.766 0 003.96 17.236l-1.162 3.486a1.172 1.172 0 001.482 1.482l3.485-1.162a9.766 9.766 0 104.737-18.308zm0 18.75a8.984 8.984 0 01-4.5-1.206.395.395 0 00-.319-.032l-3.65 1.217a.39.39 0 01-.494-.494l1.217-3.65a.39.39 0 00-.033-.32 8.984 8.984 0 117.779 4.485z"/></svg></svg>